<ttFont>
    <TTGlyph name=".notdef" xMin="74" yMin="-220" xMax="759" yMax="1030">
      <contour>
        <pt x="74" y="1030" on="1"/>
        <pt x="759" y="1030" on="1"/>
        <pt x="759" y="-220" on="1"/>
        <pt x="74" y="-220" on="1"/>
      </contour>
      <contour>
        <pt x="604" y="-75" on="1"/>
        <pt x="604" y="886" on="1"/>
        <pt x="230" y="886" on="1"/>
        <pt x="230" y="-75" on="1"/>
      </contour>
    </TTGlyph>
    <TTGlyph name="A" xMin="-3" yMin="0" xMax="764" yMax="740">
      <contour>
        <pt x="-3" y="10" on="1"/>
        <pt x="233" y="740" on="1"/>
        <pt x="528" y="740" on="1"/>
        <pt x="764" y="10" on="1"/>
        <pt x="764" y="0" on="1"/>
        <pt x="571" y="0" on="1"/>
        <pt x="520" y="164" on="1"/>
        <pt x="240" y="164" on="1"/>
        <pt x="190" y="0" on="1"/>
        <pt x="-3" y="0" on="1"/>
      </contour>
      <contour>
        <pt x="475" y="317" on="1"/>
        <pt x="433" y="453" on="1"/>
        <pt x="388" y="603" on="1"/>
        <pt x="372" y="603" on="1"/>
        <pt x="328" y="452" on="1"/>
        <pt x="286" y="317" on="1"/>
      </contour>
    </TTGlyph>
    <TTGlyph name="A.sc" xMin="0" yMin="0" xMax="702" yMax="577">
      <contour>
        <pt x="0" y="9" on="1"/>
        <pt x="211" y="577" on="1"/>
        <pt x="491" y="577" on="1"/>
        <pt x="702" y="9" on="1"/>
        <pt x="702" y="0" on="1"/>
        <pt x="519" y="0" on="1"/>
        <pt x="477" y="106" on="1"/>
        <pt x="224" y="106" on="1"/>
        <pt x="182" y="0" on="1"/>
        <pt x="0" y="0" on="1"/>
      </contour>
      <contour>
        <pt x="441" y="231" on="1"/>
        <pt x="399" y="345" on="1"/>
        <pt x="358" y="449" on="1"/>
        <pt x="342" y="449" on="1"/>
        <pt x="302" y="343" on="1"/>
        <pt x="260" y="231" on="1"/>
      </contour>
    </TTGlyph>
    <TTGlyph name="AE" xMin="-8" yMin="0" xMax="983" yMax="740">
      <contour>
        <pt x="-8" y="10" on="1"/>
        <pt x="289" y="740" on="1"/>
        <pt x="966" y="740" on="1"/>
        <pt x="966" y="586" on="1"/>
        <pt x="655" y="586" on="1"/>
        <pt x="664" y="448" on="1"/>
        <pt x="954" y="448" on="1"/>
        <pt x="954" y="294" on="1"/>
        <pt x="675" y="294" on="1"/>
        <pt x="685" y="154" on="1"/>
        <pt x="983" y="154" on="1"/>
        <pt x="983" y="0" on="1"/>
        <pt x="487" y="0" on="1"/>
        <pt x="480" y="159" on="1"/>
        <pt x="252" y="159" on="1"/>
        <pt x="188" y="0" on="1"/>
        <pt x="-8" y="0" on="1"/>
      </contour>
      <contour>
        <pt x="316" y="320" on="1"/>
        <pt x="474" y="320" on="1"/>
        <pt x="462" y="602" on="1"/>
        <pt x="430" y="602" on="1"/>
      </contour>
    </TTGlyph>
    <TTGlyph name="AE.sc" xMin="-5" yMin="0" xMax="907" yMax="577">
      <contour>
        <pt x="-5" y="9" on="1"/>
        <pt x="266" y="577" on="1"/>
        <pt x="892" y="577" on="1"/>
        <pt x="892" y="438" on="1"/>
        <pt x="609" y="438" on="1"/>
        <pt x="615" y="350" on="1"/>
        <pt x="881" y="350" on="1"/>
        <pt x="881" y="229" on="1"/>
        <pt x="628" y="229" on="1"/>
        <pt x="637" y="140" on="1"/>
        <pt x="907" y="140" on="1"/>
        <pt x="907" y="0" on="1"/>
        <pt x="448" y="0" on="1"/>
        <pt x="444" y="106" on="1"/>
        <pt x="231" y="106" on="1"/>
        <pt x="180" y="0" on="1"/>
        <pt x="-5" y="0" on="1"/>
      </contour>
      <contour>
        <pt x="292" y="230" on="1"/>
        <pt x="436" y="230" on="1"/>
        <pt x="428" y="449" on="1"/>
        <pt x="399" y="449" on="1"/>
      </contour>
    </TTGlyph>
    <TTGlyph name="AEacute" xMin="-8" yMin="0" xMax="983" yMax="992">
      <contour>
        <pt x="477" y="812" on="1"/>
        <pt x="542" y="992" on="1"/>
        <pt x="742" y="992" on="1"/>
        <pt x="618" y="802" on="1"/>
      </contour>
      <contour>
        <pt x="-8" y="10" on="1"/>
        <pt x="289" y="740" on="1"/>
        <pt x="966" y="740" on="1"/>
        <pt x="966" y="586" on="1"/>
        <pt x="655" y="586" on="1"/>
        <pt x="664" y="448" on="1"/>
        <pt x="954" y="448" on="1"/>
        <pt x="954" y="294" on="1"/>
        <pt x="675" y="294" on="1"/>
        <pt x="685" y="154" on="1"/>
        <pt x="983" y="154" on="1"/>
        <pt x="983" y="0" on="1"/>
        <pt x="487" y="0" on="1"/>
        <pt x="480" y="159" on="1"/>
        <pt x="252" y="159" on="1"/>
        <pt x="188" y="0" on="1"/>
        <pt x="-8" y="0" on="1"/>
      </contour>
      <contour>
        <pt x="316" y="320" on="1"/>
        <pt x="474" y="320" on="1"/>
        <pt x="462" y="602" on="1"/>
        <pt x="430" y="602" on="1"/>
      </contour>
    </TTGlyph>
    <TTGlyph name="AEacute.sc" xMin="-5" yMin="0" xMax="907" yMax="788">
      <contour>
        <pt x="-5" y="9" on="1"/>
        <pt x="266" y="577" on="1"/>
        <pt x="892" y="577" on="1"/>
        <pt x="892" y="438" on="1"/>
        <pt x="609" y="438" on="1"/>
        <pt x="615" y="350" on="1"/>
        <pt x="881" y="350" on="1"/>
        <pt x="881" y="229" on="1"/>
        <pt x="628" y="229" on="1"/>
        <pt x="637" y="140" on="1"/>
        <pt x="907" y="140" on="1"/>
        <pt x="907" y="0" on="1"/>
        <pt x="448" y="0" on="1"/>
        <pt x="444" y="106" on="1"/>
        <pt x="231" y="106" on="1"/>
        <pt x="180" y="0" on="1"/>
        <pt x="-5" y="0" on="1"/>
      </contour>
      <contour>
        <pt x="436" y="230" on="1"/>
        <pt x="428" y="449" on="1"/>
        <pt x="399" y="449" on="1"/>
        <pt x="292" y="230" on="1"/>
      </contour>
      <contour>
        <pt x="434" y="636" on="1"/>
        <pt x="491" y="788" on="1"/>
        <pt x="680" y="788" on="1"/>
        <pt x="567" y="627" on="1"/>
      </contour>
    </TTGlyph>
    <TTGlyph name="Aacute" xMin="-3" yMin="0" xMax="764" yMax="992">
      <contour>
        <pt x="-3" y="10" on="1"/>
        <pt x="233" y="740" on="1"/>
        <pt x="528" y="740" on="1"/>
        <pt x="764" y="10" on="1"/>
        <pt x="764" y="0" on="1"/>
        <pt x="571" y="0" on="1"/>
        <pt x="520" y="164" on="1"/>
        <pt x="240" y="164" on="1"/>
        <pt x="190" y="0" on="1"/>
        <pt x="-3" y="0" on="1"/>
      </contour>
      <contour>
        <pt x="475" y="317" on="1"/>
        <pt x="433" y="453" on="1"/>
        <pt x="388" y="603" on="1"/>
        <pt x="372" y="603" on="1"/>
        <pt x="328" y="452" on="1"/>
        <pt x="286" y="317" on="1"/>
      </contour>
      <contour>
        <pt x="304" y="812" on="1"/>
        <pt x="369" y="992" on="1"/>
        <pt x="569" y="992" on="1"/>
        <pt x="445" y="802" on="1"/>
      </contour>
    </TTGlyph>
    <TTGlyph name="Aacute.sc" xMin="0" yMin="0" xMax="702" yMax="788">
      <contour>
        <pt x="0" y="9" on="1"/>
        <pt x="211" y="577" on="1"/>
        <pt x="491" y="577" on="1"/>
        <pt x="702" y="9" on="1"/>
        <pt x="702" y="0" on="1"/>
        <pt x="519" y="0" on="1"/>
        <pt x="477" y="106" on="1"/>
        <pt x="224" y="106" on="1"/>
        <pt x="182" y="0" on="1"/>
        <pt x="0" y="0" on="1"/>
      </contour>
      <contour>
        <pt x="440" y="238" on="1"/>
        <pt x="399" y="345" on="1"/>
        <pt x="358" y="449" on="1"/>
        <pt x="342" y="449" on="1"/>
        <pt x="302" y="343" on="1"/>
        <pt x="261" y="238" on="1"/>
      </contour>
      <contour>
        <pt x="280" y="636" on="1"/>
        <pt x="337" y="788" on="1"/>
        <pt x="526" y="788" on="1"/>
        <pt x="413" y="627" on="1"/>
      </contour>
    </TTGlyph>
    <TTGlyph name="Abreve" xMin="-3" yMin="0" xMax="764" yMax="992">
      <contour>
        <pt x="-3" y="10" on="1"/>
        <pt x="233" y="740" on="1"/>
        <pt x="528" y="740" on="1"/>
        <pt x="764" y="10" on="1"/>
        <pt x="764" y="0" on="1"/>
        <pt x="571" y="0" on="1"/>
        <pt x="520" y="164" on="1"/>
        <pt x="240" y="164" on="1"/>
        <pt x="190" y="0" on="1"/>
        <pt x="-3" y="0" on="1"/>
      </contour>
      <contour>
        <pt x="475" y="317" on="1"/>
        <pt x="433" y="453" on="1"/>
        <pt x="388" y="603" on="1"/>
        <pt x="372" y="603" on="1"/>
        <pt x="328" y="452" on="1"/>
        <pt x="286" y="317" on="1"/>
      </contour>
      <contour>
        <pt x="381" y="807" on="1"/>
        <pt x="318" y="807" on="0"/>
        <pt x="231" y="835" on="0"/>
        <pt x="177" y="884" on="0"/>
        <pt x="153" y="952" on="0"/>
        <pt x="153" y="992" on="1"/>
        <pt x="282" y="992" on="1"/>
        <pt x="282" y="945" on="0"/>
        <pt x="323" y="899" on="0"/>
        <pt x="381" y="899" on="1"/>
        <pt x="439" y="899" on="0"/>
        <pt x="480" y="945" on="0"/>
        <pt x="480" y="992" on="1"/>
        <pt x="609" y="992" on="1"/>
        <pt x="609" y="951" on="0"/>
        <pt x="585" y="884" on="0"/>
        <pt x="531" y="834" on="0"/>
        <pt x="444" y="807" on="0"/>
      </contour>
    </TTGlyph>
    <TTGlyph name="Abreve.sc" xMin="0" yMin="0" xMax="702" yMax="783">
      <contour>
        <pt x="351" y="629" on="1"/>
        <pt x="291" y="629" on="0"/>
        <pt x="210" y="653" on="0"/>
        <pt x="161" y="695" on="0"/>
        <pt x="139" y="751" on="0"/>
        <pt x="139" y="783" on="1"/>
        <pt x="261" y="783" on="1"/>
        <pt x="261" y="748" on="0"/>
        <pt x="298" y="712" on="0"/>
        <pt x="351" y="712" on="1"/>
        <pt x="404" y="712" on="0"/>
        <pt x="441" y="748" on="0"/>
        <pt x="441" y="783" on="1"/>
        <pt x="562" y="783" on="1"/>
        <pt x="562" y="750" on="0"/>
        <pt x="540" y="694" on="0"/>
        <pt x="491" y="652" on="0"/>
        <pt x="410" y="629" on="0"/>
      </contour>
      <contour>
        <pt x="0" y="9" on="1"/>
        <pt x="211" y="577" on="1"/>
        <pt x="491" y="577" on="1"/>
        <pt x="702" y="9" on="1"/>
        <pt x="702" y="0" on="1"/>
        <pt x="519" y="0" on="1"/>
        <pt x="477" y="106" on="1"/>
        <pt x="224" y="106" on="1"/>
        <pt x="182" y="0" on="1"/>
        <pt x="0" y="0" on="1"/>
      </contour>
      <contour>
        <pt x="440" y="238" on="1"/>
        <pt x="399" y="345" on="1"/>
        <pt x="358" y="449" on="1"/>
        <pt x="342" y="449" on="1"/>
        <pt x="302" y="343" on="1"/>
        <pt x="261" y="238" on="1"/>
      </contour>
    </TTGlyph>
    <TTGlyph name="Acircumflex" xMin="-3" yMin="0" xMax="764" yMax="1004">
      <contour>
        <pt x="-3" y="10" on="1"/>
        <pt x="233" y="740" on="1"/>
        <pt x="528" y="740" on="1"/>
        <pt x="764" y="10" on="1"/>
        <pt x="764" y="0" on="1"/>
        <pt x="571" y="0" on="1"/>
        <pt x="520" y="164" on="1"/>
        <pt x="240" y="164" on="1"/>
        <pt x="190" y="0" on="1"/>
        <pt x="-3" y="0" on="1"/>
      </contour>
      <contour>
        <pt x="475" y="317" on="1"/>
        <pt x="433" y="453" on="1"/>
        <pt x="388" y="603" on="1"/>
        <pt x="372" y="603" on="1"/>
        <pt x="328" y="452" on="1"/>
        <pt x="286" y="317" on="1"/>
      </contour>
      <contour>
        <pt x="174" y="926" on="1"/>
        <pt x="381" y="1004" on="1"/>
        <pt x="591" y="926" on="1"/>
        <pt x="591" y="798" on="1"/>
        <pt x="382" y="875" on="1"/>
        <pt x="174" y="798" on="1"/>
      </contour>
    </TTGlyph>
    <TTGlyph name="Acircumflex.sc" xMin="0" yMin="0" xMax="702" yMax="800">
      <contour>
        <pt x="0" y="9" on="1"/>
        <pt x="211" y="577" on="1"/>
        <pt x="491" y="577" on="1"/>
        <pt x="702" y="9" on="1"/>
        <pt x="702" y="0" on="1"/>
        <pt x="519" y="0" on="1"/>
        <pt x="477" y="106" on="1"/>
        <pt x="224" y="106" on="1"/>
        <pt x="182" y="0" on="1"/>
        <pt x="0" y="0" on="1"/>
      </contour>
      <contour>
        <pt x="440" y="238" on="1"/>
        <pt x="399" y="345" on="1"/>
        <pt x="358" y="449" on="1"/>
        <pt x="342" y="449" on="1"/>
        <pt x="302" y="343" on="1"/>
        <pt x="261" y="238" on="1"/>
      </contour>
      <contour>
        <pt x="158" y="737" on="1"/>
        <pt x="351" y="800" on="1"/>
        <pt x="546" y="737" on="1"/>
        <pt x="546" y="618" on="1"/>
        <pt x="352" y="681" on="1"/>
        <pt x="158" y="618" on="1"/>
      </contour>
    </TTGlyph>
    <TTGlyph name="Adblgrave" xMin="-3" yMin="0" xMax="764" yMax="991">
      <contour>
        <pt x="-3" y="10" on="1"/>
        <pt x="233" y="740" on="1"/>
        <pt x="528" y="740" on="1"/>
        <pt x="764" y="10" on="1"/>
        <pt x="764" y="0" on="1"/>
        <pt x="571" y="0" on="1"/>
        <pt x="520" y="164" on="1"/>
        <pt x="240" y="164" on="1"/>
        <pt x="190" y="0" on="1"/>
        <pt x="-3" y="0" on="1"/>
      </contour>
      <contour>
        <pt x="475" y="317" on="1"/>
        <pt x="433" y="453" on="1"/>
        <pt x="388" y="603" on="1"/>
        <pt x="372" y="603" on="1"/>
        <pt x="328" y="452" on="1"/>
        <pt x="286" y="317" on="1"/>
      </contour>
      <contour>
        <pt x="195" y="801" on="1"/>
        <pt x="71" y="991" on="1"/>
        <pt x="260" y="991" on="1"/>
        <pt x="324" y="812" on="1"/>
      </contour>
      <contour>
        <pt x="419" y="801" on="1"/>
        <pt x="294" y="991" on="1"/>
        <pt x="483" y="991" on="1"/>
        <pt x="548" y="812" on="1"/>
      </contour>
    </TTGlyph>
    <TTGlyph name="Adblgrave.sc" xMin="0" yMin="0" xMax="702" yMax="789">
      <contour>
        <pt x="0" y="9" on="1"/>
        <pt x="211" y="577" on="1"/>
        <pt x="491" y="577" on="1"/>
        <pt x="702" y="9" on="1"/>
        <pt x="702" y="0" on="1"/>
        <pt x="519" y="0" on="1"/>
        <pt x="477" y="106" on="1"/>
        <pt x="224" y="106" on="1"/>
        <pt x="182" y="0" on="1"/>
        <pt x="0" y="0" on="1"/>
      </contour>
      <contour>
        <pt x="440" y="238" on="1"/>
        <pt x="399" y="345" on="1"/>
        <pt x="358" y="449" on="1"/>
        <pt x="342" y="449" on="1"/>
        <pt x="302" y="343" on="1"/>
        <pt x="261" y="238" on="1"/>
      </contour>
      <contour>
        <pt x="61" y="789" on="1"/>
        <pt x="242" y="789" on="1"/>
        <pt x="298" y="635" on="1"/>
        <pt x="175" y="628" on="1"/>
      </contour>
      <contour>
        <pt x="269" y="789" on="1"/>
        <pt x="450" y="789" on="1"/>
        <pt x="506" y="635" on="1"/>
        <pt x="383" y="628" on="1"/>
      </contour>
    </TTGlyph>
    <TTGlyph name="Adieresis" xMin="-3" yMin="0" xMax="764" yMax="1004">
      <contour>
        <pt x="-3" y="10" on="1"/>
        <pt x="233" y="740" on="1"/>
        <pt x="528" y="740" on="1"/>
        <pt x="764" y="10" on="1"/>
        <pt x="764" y="0" on="1"/>
        <pt x="571" y="0" on="1"/>
        <pt x="520" y="164" on="1"/>
        <pt x="240" y="164" on="1"/>
        <pt x="190" y="0" on="1"/>
        <pt x="-3" y="0" on="1"/>
      </contour>
      <contour>
        <pt x="475" y="317" on="1"/>
        <pt x="433" y="453" on="1"/>
        <pt x="388" y="603" on="1"/>
        <pt x="372" y="603" on="1"/>
        <pt x="328" y="452" on="1"/>
        <pt x="286" y="317" on="1"/>
      </contour>
      <contour>
        <pt x="231" y="800" on="1"/>
        <pt x="174" y="800" on="0"/>
        <pt x="126" y="848" on="0"/>
        <pt x="126" y="902" on="1"/>
        <pt x="126" y="956" on="0"/>
        <pt x="174" y="1004" on="0"/>
        <pt x="231" y="1004" on="1"/>
        <pt x="289" y="1004" on="0"/>
        <pt x="337" y="955" on="0"/>
        <pt x="337" y="902" on="1"/>
        <pt x="337" y="849" on="0"/>
        <pt x="289" y="800" on="0"/>
      </contour>
      <contour>
        <pt x="529" y="800" on="1"/>
        <pt x="472" y="800" on="0"/>
        <pt x="424" y="848" on="0"/>
        <pt x="424" y="902" on="1"/>
        <pt x="424" y="956" on="0"/>
        <pt x="472" y="1004" on="0"/>
        <pt x="529" y="1004" on="1"/>
        <pt x="587" y="1004" on="0"/>
        <pt x="635" y="955" on="0"/>
        <pt x="635" y="902" on="1"/>
        <pt x="635" y="849" on="0"/>
        <pt x="587" y="800" on="0"/>
      </contour>
    </TTGlyph>
    <TTGlyph name="Adieresis.sc" xMin="0" yMin="0" xMax="702" yMax="807">
      <contour>
        <pt x="214" y="618" on="1"/>
        <pt x="160" y="618" on="0"/>
        <pt x="115" y="662" on="0"/>
        <pt x="115" y="713" on="1"/>
        <pt x="115" y="762" on="0"/>
        <pt x="160" y="807" on="0"/>
        <pt x="214" y="807" on="1"/>
        <pt x="268" y="807" on="0"/>
        <pt x="313" y="761" on="0"/>
        <pt x="313" y="713" on="1"/>
        <pt x="313" y="664" on="0"/>
        <pt x="268" y="618" on="0"/>
      </contour>
      <contour>
        <pt x="487" y="618" on="1"/>
        <pt x="433" y="618" on="0"/>
        <pt x="388" y="662" on="0"/>
        <pt x="388" y="713" on="1"/>
        <pt x="388" y="762" on="0"/>
        <pt x="433" y="807" on="0"/>
        <pt x="487" y="807" on="1"/>
        <pt x="541" y="807" on="0"/>
        <pt x="586" y="761" on="0"/>
        <pt x="586" y="713" on="1"/>
        <pt x="586" y="664" on="0"/>
        <pt x="541" y="618" on="0"/>
      </contour>
      <contour>
        <pt x="0" y="9" on="1"/>
        <pt x="211" y="577" on="1"/>
        <pt x="491" y="577" on="1"/>
        <pt x="702" y="9" on="1"/>
        <pt x="702" y="0" on="1"/>
        <pt x="519" y="0" on="1"/>
        <pt x="477" y="106" on="1"/>
        <pt x="224" y="106" on="1"/>
        <pt x="182" y="0" on="1"/>
        <pt x="0" y="0" on="1"/>
      </contour>
      <contour>
        <pt x="440" y="238" on="1"/>
        <pt x="399" y="345" on="1"/>
        <pt x="358" y="449" on="1"/>
        <pt x="342" y="449" on="1"/>
        <pt x="302" y="343" on="1"/>
        <pt x="261" y="238" on="1"/>
      </contour>
    </TTGlyph>
    <TTGlyph name="Agrave" xMin="-3" yMin="0" xMax="764" yMax="992">
      <contour>
        <pt x="-3" y="10" on="1"/>
        <pt x="233" y="740" on="1"/>
        <pt x="528" y="740" on="1"/>
        <pt x="764" y="10" on="1"/>
        <pt x="764" y="0" on="1"/>
        <pt x="571" y="0" on="1"/>
        <pt x="520" y="164" on="1"/>
        <pt x="240" y="164" on="1"/>
        <pt x="190" y="0" on="1"/>
        <pt x="-3" y="0" on="1"/>
      </contour>
      <contour>
        <pt x="475" y="317" on="1"/>
        <pt x="433" y="453" on="1"/>
        <pt x="388" y="603" on="1"/>
        <pt x="372" y="603" on="1"/>
        <pt x="328" y="452" on="1"/>
        <pt x="286" y="317" on="1"/>
      </contour>
      <contour>
        <pt x="295" y="802" on="1"/>
        <pt x="171" y="992" on="1"/>
        <pt x="371" y="992" on="1"/>
        <pt x="435" y="813" on="1"/>
      </contour>
    </TTGlyph>
    <TTGlyph name="Agrave.sc" xMin="0" yMin="0" xMax="702" yMax="788">
      <contour>
        <pt x="0" y="9" on="1"/>
        <pt x="211" y="577" on="1"/>
        <pt x="491" y="577" on="1"/>
        <pt x="702" y="9" on="1"/>
        <pt x="702" y="0" on="1"/>
        <pt x="519" y="0" on="1"/>
        <pt x="477" y="106" on="1"/>
        <pt x="224" y="106" on="1"/>
        <pt x="182" y="0" on="1"/>
        <pt x="0" y="0" on="1"/>
      </contour>
      <contour>
        <pt x="440" y="238" on="1"/>
        <pt x="399" y="345" on="1"/>
        <pt x="358" y="449" on="1"/>
        <pt x="342" y="449" on="1"/>
        <pt x="302" y="343" on="1"/>
        <pt x="261" y="238" on="1"/>
      </contour>
      <contour>
        <pt x="269" y="627" on="1"/>
        <pt x="155" y="788" on="1"/>
        <pt x="345" y="788" on="1"/>
        <pt x="401" y="635" on="1"/>
      </contour>
    </TTGlyph>
    <TTGlyph name="Ainvertedbreve" xMin="-3" yMin="0" xMax="764" yMax="1001">
      <contour>
        <pt x="-3" y="10" on="1"/>
        <pt x="233" y="740" on="1"/>
        <pt x="528" y="740" on="1"/>
        <pt x="764" y="10" on="1"/>
        <pt x="764" y="0" on="1"/>
        <pt x="571" y="0" on="1"/>
        <pt x="520" y="164" on="1"/>
        <pt x="240" y="164" on="1"/>
        <pt x="190" y="0" on="1"/>
        <pt x="-3" y="0" on="1"/>
      </contour>
      <contour>
        <pt x="475" y="317" on="1"/>
        <pt x="433" y="453" on="1"/>
        <pt x="388" y="603" on="1"/>
        <pt x="372" y="603" on="1"/>
        <pt x="328" y="452" on="1"/>
        <pt x="286" y="317" on="1"/>
      </contour>
      <contour>
        <pt x="480" y="816" on="1"/>
        <pt x="480" y="862" on="0"/>
        <pt x="438" y="909" on="0"/>
        <pt x="380" y="909" on="1"/>
        <pt x="323" y="909" on="0"/>
        <pt x="281" y="862" on="0"/>
        <pt x="281" y="816" on="1"/>
        <pt x="152" y="816" on="1"/>
        <pt x="152" y="855" on="0"/>
        <pt x="176" y="923" on="0"/>
        <pt x="230" y="973" on="0"/>
        <pt x="317" y="1001" on="0"/>
        <pt x="380" y="1001" on="1"/>
        <pt x="443" y="1001" on="0"/>
        <pt x="530" y="974" on="0"/>
        <pt x="585" y="924" on="0"/>
        <pt x="609" y="856" on="0"/>
        <pt x="609" y="816" on="1"/>
      </contour>
    </TTGlyph>
    <TTGlyph name="Ainvertedbreve.sc" xMin="0" yMin="0" xMax="702" yMax="792">
      <contour>
        <pt x="140" y="638" on="1"/>
        <pt x="140" y="670" on="0"/>
        <pt x="161" y="726" on="0"/>
        <pt x="211" y="768" on="0"/>
        <pt x="291" y="792" on="0"/>
        <pt x="351" y="792" on="1"/>
        <pt x="411" y="792" on="0"/>
        <pt x="492" y="769" on="0"/>
        <pt x="541" y="727" on="0"/>
        <pt x="563" y="671" on="0"/>
        <pt x="563" y="638" on="1"/>
        <pt x="441" y="638" on="1"/>
        <pt x="441" y="673" on="0"/>
        <pt x="405" y="708" on="0"/>
        <pt x="351" y="708" on="1"/>
        <pt x="298" y="708" on="0"/>
        <pt x="261" y="673" on="0"/>
        <pt x="261" y="638" on="1"/>
      </contour>
      <contour>
        <pt x="0" y="9" on="1"/>
        <pt x="211" y="577" on="1"/>
        <pt x="491" y="577" on="1"/>
        <pt x="702" y="9" on="1"/>
        <pt x="702" y="0" on="1"/>
        <pt x="519" y="0" on="1"/>
        <pt x="477" y="106" on="1"/>
        <pt x="224" y="106" on="1"/>
        <pt x="182" y="0" on="1"/>
        <pt x="0" y="0" on="1"/>
      </contour>
      <contour>
        <pt x="440" y="238" on="1"/>
        <pt x="399" y="345" on="1"/>
        <pt x="358" y="449" on="1"/>
        <pt x="342" y="449" on="1"/>
        <pt x="302" y="343" on="1"/>
        <pt x="261" y="238" on="1"/>
      </contour>
    </TTGlyph>
    <TTGlyph name="Amacron" xMin="-3" yMin="0" xMax="764" yMax="969">
      <contour>
        <pt x="-3" y="10" on="1"/>
        <pt x="233" y="740" on="1"/>
        <pt x="528" y="740" on="1"/>
        <pt x="764" y="10" on="1"/>
        <pt x="764" y="0" on="1"/>
        <pt x="571" y="0" on="1"/>
        <pt x="520" y="164" on="1"/>
        <pt x="240" y="164" on="1"/>
        <pt x="190" y="0" on="1"/>
        <pt x="-3" y="0" on="1"/>
      </contour>
      <contour>
        <pt x="475" y="317" on="1"/>
        <pt x="433" y="453" on="1"/>
        <pt x="388" y="603" on="1"/>
        <pt x="372" y="603" on="1"/>
        <pt x="328" y="452" on="1"/>
        <pt x="286" y="317" on="1"/>
      </contour>
      <contour>
        <pt x="173" y="969" on="1"/>
        <pt x="587" y="969" on="1"/>
        <pt x="587" y="841" on="1"/>
        <pt x="173" y="841" on="1"/>
      </contour>
    </TTGlyph>
    <TTGlyph name="Amacron.sc" xMin="0" yMin="0" xMax="702" yMax="775">
      <contour>
        <pt x="0" y="9" on="1"/>
        <pt x="211" y="577" on="1"/>
        <pt x="491" y="577" on="1"/>
        <pt x="702" y="9" on="1"/>
        <pt x="702" y="0" on="1"/>
        <pt x="519" y="0" on="1"/>
        <pt x="477" y="106" on="1"/>
        <pt x="224" y="106" on="1"/>
        <pt x="182" y="0" on="1"/>
        <pt x="0" y="0" on="1"/>
      </contour>
      <contour>
        <pt x="440" y="238" on="1"/>
        <pt x="399" y="345" on="1"/>
        <pt x="358" y="449" on="1"/>
        <pt x="342" y="449" on="1"/>
        <pt x="302" y="343" on="1"/>
        <pt x="261" y="238" on="1"/>
      </contour>
      <contour>
        <pt x="159" y="775" on="1"/>
        <pt x="543" y="775" on="1"/>
        <pt x="543" y="656" on="1"/>
        <pt x="159" y="656" on="1"/>
      </contour>
    </TTGlyph>
    <TTGlyph name="Aogonek" xMin="-4" yMin="-220" xMax="764" yMax="740">
      <contour>
        <pt x="672" y="-220" on="1"/>
        <pt x="598" y="-220" on="0"/>
        <pt x="518" y="-171" on="0"/>
        <pt x="518" y="-125" on="1"/>
        <pt x="518" y="-91" on="0"/>
        <pt x="562" y="-25" on="0"/>
        <pt x="603" y="0" on="1"/>
        <pt x="570" y="0" on="1"/>
        <pt x="519" y="164" on="1"/>
        <pt x="239" y="164" on="1"/>
        <pt x="189" y="0" on="1"/>
        <pt x="-4" y="0" on="1"/>
        <pt x="-4" y="10" on="1"/>
        <pt x="232" y="740" on="1"/>
        <pt x="527" y="740" on="1"/>
        <pt x="763" y="10" on="1"/>
        <pt x="763" y="-7" on="1"/>
        <pt x="695" y="-35" on="0"/>
        <pt x="642" y="-77" on="0"/>
        <pt x="642" y="-96" on="1"/>
        <pt x="642" y="-118" on="0"/>
        <pt x="674" y="-118" on="1"/>
        <pt x="688" y="-118" on="0"/>
        <pt x="741" y="-109" on="0"/>
        <pt x="764" y="-103" on="1"/>
        <pt x="764" y="-208" on="1"/>
        <pt x="722" y="-220" on="0"/>
      </contour>
      <contour>
        <pt x="474" y="317" on="1"/>
        <pt x="432" y="453" on="1"/>
        <pt x="387" y="603" on="1"/>
        <pt x="371" y="603" on="1"/>
        <pt x="327" y="452" on="1"/>
        <pt x="285" y="317" on="1"/>
      </contour>
    </TTGlyph>
    <TTGlyph name="Aogonek.sc" xMin="-1" yMin="-171" xMax="703" yMax="577">
      <contour>
        <pt x="618" y="-171" on="1"/>
        <pt x="549" y="-171" on="0"/>
        <pt x="475" y="-128" on="0"/>
        <pt x="475" y="-92" on="1"/>
        <pt x="475" y="-68" on="0"/>
        <pt x="513" y="-14" on="0"/>
        <pt x="543" y="0" on="1"/>
        <pt x="519" y="0" on="1"/>
        <pt x="476" y="106" on="1"/>
        <pt x="223" y="106" on="1"/>
        <pt x="182" y="0" on="1"/>
        <pt x="-1" y="0" on="1"/>
        <pt x="-1" y="9" on="1"/>
        <pt x="210" y="577" on="1"/>
        <pt x="490" y="577" on="1"/>
        <pt x="702" y="9" on="1"/>
        <pt x="702" y="-3" on="1"/>
        <pt x="665" y="-15" on="0"/>
        <pt x="622" y="-34" on="0"/>
        <pt x="599" y="-48" on="0"/>
        <pt x="592" y="-58" on="0"/>
        <pt x="592" y="-62" on="1"/>
        <pt x="592" y="-70" on="0"/>
        <pt x="604" y="-75" on="0"/>
        <pt x="617" y="-75" on="1"/>
        <pt x="624" y="-75" on="0"/>
        <pt x="647" y="-73" on="0"/>
        <pt x="671" y="-70" on="0"/>
        <pt x="695" y="-66" on="0"/>
        <pt x="703" y="-64" on="1"/>
        <pt x="703" y="-162" on="1"/>
        <pt x="659" y="-171" on="0"/>
      </contour>
      <contour>
        <pt x="438" y="238" on="1"/>
        <pt x="398" y="346" on="1"/>
        <pt x="357" y="449" on="1"/>
        <pt x="341" y="449" on="1"/>
        <pt x="301" y="344" on="1"/>
        <pt x="260" y="238" on="1"/>
      </contour>
    </TTGlyph>
    <TTGlyph name="Aring" xMin="-3" yMin="0" xMax="764" yMax="1010">
      <contour>
        <pt x="-3" y="10" on="1"/>
        <pt x="233" y="740" on="1"/>
        <pt x="528" y="740" on="1"/>
        <pt x="764" y="10" on="1"/>
        <pt x="764" y="0" on="1"/>
        <pt x="571" y="0" on="1"/>
        <pt x="520" y="164" on="1"/>
        <pt x="240" y="164" on="1"/>
        <pt x="190" y="0" on="1"/>
        <pt x="-3" y="0" on="1"/>
      </contour>
      <contour>
        <pt x="475" y="317" on="1"/>
        <pt x="433" y="453" on="1"/>
        <pt x="388" y="603" on="1"/>
        <pt x="372" y="603" on="1"/>
        <pt x="328" y="452" on="1"/>
        <pt x="286" y="317" on="1"/>
      </contour>
      <contour>
        <pt x="381" y="777" on="1"/>
        <pt x="351" y="777" on="0"/>
        <pt x="301" y="794" on="0"/>
        <pt x="264" y="824" on="0"/>
        <pt x="243" y="866" on="0"/>
        <pt x="243" y="892" on="1"/>
        <pt x="243" y="918" on="0"/>
        <pt x="264" y="961" on="0"/>
        <pt x="301" y="993" on="0"/>
        <pt x="351" y="1010" on="0"/>
        <pt x="381" y="1010" on="1"/>
        <pt x="411" y="1010" on="0"/>
        <pt x="461" y="993" on="0"/>
        <pt x="498" y="961" on="0"/>
        <pt x="519" y="918" on="0"/>
        <pt x="519" y="892" on="1"/>
        <pt x="519" y="866" on="0"/>
        <pt x="498" y="824" on="0"/>
        <pt x="461" y="794" on="0"/>
        <pt x="411" y="777" on="0"/>
      </contour>
      <contour>
        <pt x="381" y="840" on="1"/>
        <pt x="416" y="840" on="0"/>
        <pt x="443" y="866" on="0"/>
        <pt x="443" y="892" on="1"/>
        <pt x="443" y="920" on="0"/>
        <pt x="416" y="946" on="0"/>
        <pt x="381" y="946" on="1"/>
        <pt x="346" y="946" on="0"/>
        <pt x="318" y="920" on="0"/>
        <pt x="318" y="892" on="1"/>
        <pt x="318" y="866" on="0"/>
        <pt x="346" y="840" on="0"/>
      </contour>
    </TTGlyph>
    <TTGlyph name="Aring.sc" xMin="0" yMin="0" xMax="702" yMax="795">
      <contour>
        <pt x="0" y="9" on="1"/>
        <pt x="211" y="577" on="1"/>
        <pt x="491" y="577" on="1"/>
        <pt x="702" y="9" on="1"/>
        <pt x="702" y="0" on="1"/>
        <pt x="519" y="0" on="1"/>
        <pt x="477" y="106" on="1"/>
        <pt x="224" y="106" on="1"/>
        <pt x="182" y="0" on="1"/>
        <pt x="0" y="0" on="1"/>
      </contour>
      <contour>
        <pt x="439" y="238" on="1"/>
        <pt x="399" y="345" on="1"/>
        <pt x="358" y="449" on="1"/>
        <pt x="342" y="449" on="1"/>
        <pt x="302" y="343" on="1"/>
        <pt x="261" y="238" on="1"/>
      </contour>
      <contour>
        <pt x="351" y="608" on="1"/>
        <pt x="297" y="608" on="0"/>
        <pt x="225" y="659" on="0"/>
        <pt x="225" y="701" on="1"/>
        <pt x="225" y="722" on="0"/>
        <pt x="244" y="756" on="0"/>
        <pt x="278" y="781" on="0"/>
        <pt x="324" y="795" on="0"/>
        <pt x="351" y="795" on="1"/>
        <pt x="406" y="795" on="0"/>
        <pt x="477" y="743" on="0"/>
        <pt x="477" y="701" on="1"/>
        <pt x="477" y="659" on="0"/>
        <pt x="406" y="608" on="0"/>
      </contour>
      <contour>
        <pt x="351" y="664" on="1"/>
        <pt x="383" y="664" on="0"/>
        <pt x="407" y="681" on="0"/>
        <pt x="407" y="701" on="1"/>
        <pt x="407" y="721" on="0"/>
        <pt x="383" y="739" on="0"/>
        <pt x="351" y="739" on="1"/>
        <pt x="319" y="739" on="0"/>
        <pt x="296" y="721" on="0"/>
        <pt x="296" y="701" on="1"/>
        <pt x="296" y="681" on="0"/>
        <pt x="319" y="664" on="0"/>
      </contour>
    </TTGlyph>
    <TTGlyph name="Aringacute" xMin="-3" yMin="0" xMax="763" yMax="1019">
      <contour>
        <pt x="-3" y="10" on="1"/>
        <pt x="215" y="678" on="1"/>
        <pt x="187" y="710" on="0"/>
        <pt x="187" y="758" on="1"/>
        <pt x="187" y="814" on="0"/>
        <pt x="261" y="890" on="0"/>
        <pt x="326" y="901" on="1"/>
        <pt x="369" y="1019" on="1"/>
        <pt x="569" y="1019" on="1"/>
        <pt x="483" y="887" on="1"/>
        <pt x="528" y="869" on="0"/>
        <pt x="579" y="803" on="0"/>
        <pt x="579" y="758" on="1"/>
        <pt x="579" y="734" on="0"/>
        <pt x="562" y="691" on="0"/>
        <pt x="547" y="674" on="1"/>
        <pt x="763" y="10" on="1"/>
        <pt x="763" y="0" on="1"/>
        <pt x="571" y="0" on="1"/>
        <pt x="521" y="159" on="1"/>
        <pt x="239" y="159" on="1"/>
        <pt x="190" y="0" on="1"/>
        <pt x="-3" y="0" on="1"/>
      </contour>
      <contour>
        <pt x="381" y="698" on="1"/>
        <pt x="419" y="698" on="0"/>
        <pt x="465" y="731" on="0"/>
        <pt x="465" y="758" on="1"/>
        <pt x="465" y="786" on="0"/>
        <pt x="419" y="818" on="0"/>
        <pt x="381" y="818" on="1"/>
        <pt x="344" y="818" on="0"/>
        <pt x="301" y="786" on="0"/>
        <pt x="301" y="758" on="1"/>
        <pt x="301" y="731" on="0"/>
        <pt x="345" y="698" on="0"/>
      </contour>
      <contour>
        <pt x="473" y="320" on="1"/>
        <pt x="433" y="453" on="1"/>
        <pt x="392" y="594" on="1"/>
        <pt x="368" y="594" on="1"/>
        <pt x="327" y="452" on="1"/>
        <pt x="286" y="320" on="1"/>
      </contour>
    </TTGlyph>
    <TTGlyph name="Aringacute.sc" xMin="-1" yMin="0" xMax="702" yMax="808">
      <contour>
        <pt x="-1" y="9" on="1"/>
        <pt x="195" y="533" on="1"/>
        <pt x="171" y="560" on="0"/>
        <pt x="171" y="594" on="1"/>
        <pt x="171" y="640" on="0"/>
        <pt x="239" y="702" on="0"/>
        <pt x="299" y="713" on="1"/>
        <pt x="337" y="808" on="1"/>
        <pt x="526" y="808" on="1"/>
        <pt x="448" y="700" on="1"/>
        <pt x="489" y="684" on="0"/>
        <pt x="536" y="629" on="0"/>
        <pt x="536" y="594" on="1"/>
        <pt x="536" y="558" on="0"/>
        <pt x="507" y="529" on="1"/>
        <pt x="702" y="9" on="1"/>
        <pt x="702" y="0" on="1"/>
        <pt x="519" y="0" on="1"/>
        <pt x="477" y="106" on="1"/>
        <pt x="224" y="106" on="1"/>
        <pt x="182" y="0" on="1"/>
        <pt x="-1" y="0" on="1"/>
      </contour>
      <contour>
        <pt x="351" y="550" on="1"/>
        <pt x="386" y="550" on="0"/>
        <pt x="428" y="574" on="0"/>
        <pt x="428" y="594" on="1"/>
        <pt x="428" y="614" on="0"/>
        <pt x="386" y="638" on="0"/>
        <pt x="351" y="638" on="1"/>
        <pt x="318" y="638" on="0"/>
        <pt x="279" y="614" on="0"/>
        <pt x="279" y="594" on="1"/>
        <pt x="279" y="574" on="0"/>
        <pt x="319" y="550" on="0"/>
      </contour>
      <contour>
        <pt x="441" y="238" on="1"/>
        <pt x="399" y="345" on="1"/>
        <pt x="360" y="453" on="1"/>
        <pt x="341" y="453" on="1"/>
        <pt x="302" y="343" on="1"/>
        <pt x="263" y="238" on="1"/>
      </contour>
    </TTGlyph>
    <TTGlyph name="Atilde" xMin="-3" yMin="0" xMax="764" yMax="987">
      <contour>
        <pt x="-3" y="10" on="1"/>
        <pt x="233" y="740" on="1"/>
        <pt x="528" y="740" on="1"/>
        <pt x="764" y="10" on="1"/>
        <pt x="764" y="0" on="1"/>
        <pt x="571" y="0" on="1"/>
        <pt x="520" y="164" on="1"/>
        <pt x="240" y="164" on="1"/>
        <pt x="190" y="0" on="1"/>
        <pt x="-3" y="0" on="1"/>
      </contour>
      <contour>
        <pt x="475" y="317" on="1"/>
        <pt x="433" y="453" on="1"/>
        <pt x="388" y="603" on="1"/>
        <pt x="372" y="603" on="1"/>
        <pt x="328" y="452" on="1"/>
        <pt x="286" y="317" on="1"/>
      </contour>
      <contour>
        <pt x="141" y="855" on="1"/>
        <pt x="176" y="921" on="0"/>
        <pt x="266" y="987" on="0"/>
        <pt x="308" y="987" on="1"/>
        <pt x="334" y="987" on="0"/>
        <pt x="385" y="975" on="0"/>
        <pt x="436" y="962" on="0"/>
        <pt x="486" y="950" on="0"/>
        <pt x="512" y="950" on="1"/>
        <pt x="535" y="950" on="0"/>
        <pt x="580" y="965" on="0"/>
        <pt x="609" y="987" on="1"/>
        <pt x="632" y="955" on="1"/>
        <pt x="597" y="888" on="0"/>
        <pt x="506" y="822" on="0"/>
        <pt x="465" y="822" on="1"/>
        <pt x="439" y="822" on="0"/>
        <pt x="388" y="834" on="0"/>
        <pt x="337" y="847" on="0"/>
        <pt x="286" y="859" on="0"/>
        <pt x="261" y="859" on="1"/>
        <pt x="237" y="859" on="0"/>
        <pt x="192" y="845" on="0"/>
        <pt x="164" y="823" on="1"/>
      </contour>
    </TTGlyph>
    <TTGlyph name="Atilde.sc" xMin="0" yMin="0" xMax="702" yMax="788">
      <contour>
        <pt x="0" y="9" on="1"/>
        <pt x="211" y="577" on="1"/>
        <pt x="491" y="577" on="1"/>
        <pt x="702" y="9" on="1"/>
        <pt x="702" y="0" on="1"/>
        <pt x="519" y="0" on="1"/>
        <pt x="477" y="106" on="1"/>
        <pt x="224" y="106" on="1"/>
        <pt x="182" y="0" on="1"/>
        <pt x="0" y="0" on="1"/>
      </contour>
      <contour>
        <pt x="439" y="238" on="1"/>
        <pt x="399" y="345" on="1"/>
        <pt x="358" y="449" on="1"/>
        <pt x="342" y="449" on="1"/>
        <pt x="302" y="343" on="1"/>
        <pt x="261" y="238" on="1"/>
      </contour>
      <contour>
        <pt x="129" y="667" on="1"/>
        <pt x="161" y="727" on="0"/>
        <pt x="245" y="787" on="0"/>
        <pt x="283" y="787" on="1"/>
        <pt x="307" y="787" on="0"/>
        <pt x="354" y="779" on="0"/>
        <pt x="401" y="768" on="0"/>
        <pt x="448" y="760" on="0"/>
        <pt x="472" y="760" on="1"/>
        <pt x="493" y="760" on="0"/>
        <pt x="533" y="770" on="0"/>
        <pt x="561" y="788" on="1"/>
        <pt x="581" y="760" on="1"/>
        <pt x="548" y="699" on="0"/>
        <pt x="465" y="640" on="0"/>
        <pt x="427" y="640" on="1"/>
        <pt x="403" y="640" on="0"/>
        <pt x="356" y="649" on="0"/>
        <pt x="308" y="659" on="0"/>
        <pt x="261" y="668" on="0"/>
        <pt x="237" y="668" on="1"/>
        <pt x="216" y="668" on="0"/>
        <pt x="176" y="657" on="0"/>
        <pt x="150" y="640" on="1"/>
      </contour>
    </TTGlyph>
    <TTGlyph name="B" xMin="66" yMin="-10" xMax="701" yMax="750">
      <contour>
        <pt x="374" y="-10" on="1"/>
        <pt x="297" y="-10" on="0"/>
        <pt x="149" y="-3" on="0"/>
        <pt x="66" y="5" on="1"/>
        <pt x="66" y="735" on="1"/>
        <pt x="144" y="743" on="0"/>
        <pt x="281" y="750" on="0"/>
        <pt x="347" y="750" on="1"/>
        <pt x="519" y="750" on="0"/>
        <pt x="677" y="648" on="0"/>
        <pt x="677" y="539" on="1"/>
        <pt x="677" y="415" on="0"/>
        <pt x="550" y="382" on="1"/>
        <pt x="550" y="378" on="1"/>
        <pt x="623" y="364" on="0"/>
        <pt x="701" y="275" on="0"/>
        <pt x="701" y="203" on="1"/>
        <pt x="701" y="94" on="0"/>
        <pt x="542" y="-10" on="0"/>
      </contour>
      <contour>
        <pt x="371" y="130" on="1"/>
        <pt x="439" y="130" on="0"/>
        <pt x="502" y="174" on="0"/>
        <pt x="502" y="222" on="1"/>
        <pt x="502" y="270" on="0"/>
        <pt x="443" y="310" on="0"/>
        <pt x="373" y="310" on="1"/>
        <pt x="256" y="310" on="1"/>
        <pt x="256" y="134" on="1"/>
        <pt x="263" y="132" on="0"/>
        <pt x="279" y="131" on="0"/>
        <pt x="304" y="130" on="0"/>
        <pt x="342" y="130" on="0"/>
      </contour>
      <contour>
        <pt x="359" y="438" on="1"/>
        <pt x="426" y="438" on="0"/>
        <pt x="480" y="477" on="0"/>
        <pt x="480" y="525" on="1"/>
        <pt x="480" y="572" on="0"/>
        <pt x="424" y="611" on="0"/>
        <pt x="358" y="611" on="1"/>
        <pt x="329" y="611" on="0"/>
        <pt x="277" y="608" on="0"/>
        <pt x="256" y="604" on="1"/>
        <pt x="256" y="438" on="1"/>
      </contour>
    </TTGlyph>
    <TTGlyph name="B.sc" xMin="63" yMin="-8" xMax="648" yMax="585">
      <contour>
        <pt x="353" y="-8" on="1"/>
        <pt x="281" y="-8" on="0"/>
        <pt x="141" y="-2" on="0"/>
        <pt x="63" y="4" on="1"/>
        <pt x="63" y="573" on="1"/>
        <pt x="135" y="579" on="0"/>
        <pt x="261" y="585" on="0"/>
        <pt x="324" y="585" on="1"/>
        <pt x="482" y="585" on="0"/>
        <pt x="626" y="505" on="0"/>
        <pt x="626" y="418" on="1"/>
        <pt x="626" y="328" on="0"/>
        <pt x="511" y="299" on="1"/>
        <pt x="511" y="296" on="1"/>
        <pt x="577" y="285" on="0"/>
        <pt x="648" y="216" on="0"/>
        <pt x="648" y="161" on="1"/>
        <pt x="648" y="73" on="0"/>
        <pt x="505" y="-8" on="0"/>
      </contour>
      <contour>
        <pt x="349" y="118" on="1"/>
        <pt x="462" y="118" on="0"/>
        <pt x="462" y="180" on="1"/>
        <pt x="462" y="212" on="0"/>
        <pt x="411" y="237" on="0"/>
        <pt x="350" y="237" on="1"/>
        <pt x="243" y="237" on="1"/>
        <pt x="243" y="120" on="1"/>
        <pt x="249" y="119" on="0"/>
        <pt x="263" y="118" on="0"/>
        <pt x="285" y="118" on="0"/>
        <pt x="321" y="118" on="0"/>
      </contour>
      <contour>
        <pt x="335" y="347" on="1"/>
        <pt x="394" y="347" on="0"/>
        <pt x="441" y="372" on="0"/>
        <pt x="441" y="404" on="1"/>
        <pt x="441" y="435" on="0"/>
        <pt x="393" y="459" on="0"/>
        <pt x="334" y="459" on="1"/>
        <pt x="308" y="459" on="0"/>
        <pt x="262" y="458" on="0"/>
        <pt x="243" y="455" on="1"/>
        <pt x="243" y="347" on="1"/>
      </contour>
    </TTGlyph>
    <TTGlyph name="C" xMin="35" yMin="-13" xMax="579" yMax="753">
      <contour>
        <pt x="418" y="-13" on="1"/>
        <pt x="223" y="-13" on="0"/>
        <pt x="35" y="174" on="0"/>
        <pt x="35" y="369" on="1"/>
        <pt x="35" y="565" on="0"/>
        <pt x="217" y="753" on="0"/>
        <pt x="403" y="753" on="1"/>
        <pt x="438" y="753" on="0"/>
        <pt x="522" y="746" on="0"/>
        <pt x="579" y="738" on="1"/>
        <pt x="579" y="580" on="1"/>
        <pt x="547" y="583" on="0"/>
        <pt x="503" y="588" on="0"/>
        <pt x="468" y="590" on="0"/>
        <pt x="441" y="591" on="0"/>
        <pt x="428" y="591" on="1"/>
        <pt x="372" y="591" on="0"/>
        <pt x="300" y="572" on="0"/>
        <pt x="257" y="522" on="0"/>
        <pt x="240" y="436" on="0"/>
        <pt x="240" y="369" on="1"/>
        <pt x="240" y="304" on="0"/>
        <pt x="257" y="219" on="0"/>
        <pt x="299" y="169" on="0"/>
        <pt x="371" y="150" on="0"/>
        <pt x="425" y="150" on="1"/>
        <pt x="441" y="150" on="0"/>
        <pt x="484" y="152" on="0"/>
        <pt x="526" y="156" on="0"/>
        <pt x="565" y="160" on="0"/>
        <pt x="579" y="163" on="1"/>
        <pt x="579" y="5" on="1"/>
        <pt x="542" y="-3" on="0"/>
        <pt x="458" y="-13" on="0"/>
      </contour>
    </TTGlyph>
    <TTGlyph name="C.sc" xMin="35" yMin="-11" xMax="531" yMax="588">
      <contour>
        <pt x="387" y="-11" on="1"/>
        <pt x="207" y="-11" on="0"/>
        <pt x="35" y="134" on="0"/>
        <pt x="35" y="288" on="1"/>
        <pt x="35" y="441" on="0"/>
        <pt x="200" y="588" on="0"/>
        <pt x="371" y="588" on="1"/>
        <pt x="408" y="588" on="0"/>
        <pt x="484" y="583" on="0"/>
        <pt x="531" y="577" on="1"/>
        <pt x="531" y="429" on="1"/>
        <pt x="508" y="431" on="0"/>
        <pt x="473" y="434" on="0"/>
        <pt x="442" y="435" on="0"/>
        <pt x="412" y="436" on="0"/>
        <pt x="395" y="436" on="1"/>
        <pt x="343" y="436" on="0"/>
        <pt x="278" y="425" on="0"/>
        <pt x="242" y="393" on="0"/>
        <pt x="229" y="335" on="0"/>
        <pt x="229" y="288" on="1"/>
        <pt x="229" y="242" on="0"/>
        <pt x="242" y="185" on="0"/>
        <pt x="278" y="153" on="0"/>
        <pt x="342" y="142" on="0"/>
        <pt x="393" y="142" on="1"/>
        <pt x="408" y="142" on="0"/>
        <pt x="446" y="143" on="0"/>
        <pt x="485" y="146" on="0"/>
        <pt x="520" y="149" on="0"/>
        <pt x="531" y="151" on="1"/>
        <pt x="531" y="2" on="1"/>
        <pt x="500" y="-4" on="0"/>
        <pt x="426" y="-11" on="0"/>
      </contour>
    </TTGlyph>
    <TTGlyph name="Cacute" xMin="35" yMin="-13" xMax="579" yMax="992">
      <contour>
        <pt x="418" y="-13" on="1"/>
        <pt x="223" y="-13" on="0"/>
        <pt x="35" y="174" on="0"/>
        <pt x="35" y="369" on="1"/>
        <pt x="35" y="565" on="0"/>
        <pt x="217" y="753" on="0"/>
        <pt x="403" y="753" on="1"/>
        <pt x="438" y="753" on="0"/>
        <pt x="522" y="746" on="0"/>
        <pt x="579" y="738" on="1"/>
        <pt x="579" y="580" on="1"/>
        <pt x="547" y="583" on="0"/>
        <pt x="503" y="588" on="0"/>
        <pt x="468" y="590" on="0"/>
        <pt x="441" y="591" on="0"/>
        <pt x="428" y="591" on="1"/>
        <pt x="372" y="591" on="0"/>
        <pt x="300" y="572" on="0"/>
        <pt x="257" y="522" on="0"/>
        <pt x="240" y="436" on="0"/>
        <pt x="240" y="369" on="1"/>
        <pt x="240" y="304" on="0"/>
        <pt x="257" y="219" on="0"/>
        <pt x="299" y="169" on="0"/>
        <pt x="371" y="150" on="0"/>
        <pt x="425" y="150" on="1"/>
        <pt x="441" y="150" on="0"/>
        <pt x="484" y="152" on="0"/>
        <pt x="526" y="156" on="0"/>
        <pt x="565" y="160" on="0"/>
        <pt x="579" y="163" on="1"/>
        <pt x="579" y="5" on="1"/>
        <pt x="542" y="-3" on="0"/>
        <pt x="458" y="-13" on="0"/>
      </contour>
      <contour>
        <pt x="267" y="812" on="1"/>
        <pt x="332" y="992" on="1"/>
        <pt x="532" y="992" on="1"/>
        <pt x="408" y="802" on="1"/>
      </contour>
    </TTGlyph>
    <TTGlyph name="Cacute.sc" xMin="34" yMin="-11" xMax="531" yMax="788">
      <contour>
        <pt x="387" y="-11" on="1"/>
        <pt x="207" y="-11" on="0"/>
        <pt x="34" y="134" on="0"/>
        <pt x="34" y="288" on="1"/>
        <pt x="34" y="441" on="0"/>
        <pt x="200" y="588" on="0"/>
        <pt x="371" y="588" on="1"/>
        <pt x="402" y="588" on="0"/>
        <pt x="477" y="583" on="0"/>
        <pt x="531" y="577" on="1"/>
        <pt x="531" y="429" on="1"/>
        <pt x="501" y="431" on="0"/>
        <pt x="460" y="434" on="0"/>
        <pt x="430" y="435" on="0"/>
        <pt x="406" y="436" on="0"/>
        <pt x="394" y="436" on="1"/>
        <pt x="344" y="436" on="0"/>
        <pt x="280" y="426" on="0"/>
        <pt x="243" y="395" on="0"/>
        <pt x="229" y="336" on="0"/>
        <pt x="229" y="288" on="1"/>
        <pt x="229" y="241" on="0"/>
        <pt x="243" y="183" on="0"/>
        <pt x="280" y="152" on="0"/>
        <pt x="343" y="142" on="0"/>
        <pt x="392" y="142" on="1"/>
        <pt x="407" y="142" on="0"/>
        <pt x="445" y="143" on="0"/>
        <pt x="484" y="146" on="0"/>
        <pt x="519" y="149" on="0"/>
        <pt x="531" y="151" on="1"/>
        <pt x="531" y="2" on="1"/>
        <pt x="497" y="-5" on="0"/>
        <pt x="422" y="-11" on="0"/>
      </contour>
      <contour>
        <pt x="243" y="636" on="1"/>
        <pt x="300" y="788" on="1"/>
        <pt x="490" y="788" on="1"/>
        <pt x="376" y="627" on="1"/>
      </contour>
    </TTGlyph>
    <TTGlyph name="Ccaron" xMin="35" yMin="-13" xMax="579" yMax="1004">
      <contour>
        <pt x="418" y="-13" on="1"/>
        <pt x="223" y="-13" on="0"/>
        <pt x="35" y="174" on="0"/>
        <pt x="35" y="369" on="1"/>
        <pt x="35" y="565" on="0"/>
        <pt x="217" y="753" on="0"/>
        <pt x="403" y="753" on="1"/>
        <pt x="438" y="753" on="0"/>
        <pt x="522" y="746" on="0"/>
        <pt x="579" y="738" on="1"/>
        <pt x="579" y="580" on="1"/>
        <pt x="547" y="583" on="0"/>
        <pt x="503" y="588" on="0"/>
        <pt x="468" y="590" on="0"/>
        <pt x="441" y="591" on="0"/>
        <pt x="428" y="591" on="1"/>
        <pt x="372" y="591" on="0"/>
        <pt x="300" y="572" on="0"/>
        <pt x="257" y="522" on="0"/>
        <pt x="240" y="436" on="0"/>
        <pt x="240" y="369" on="1"/>
        <pt x="240" y="304" on="0"/>
        <pt x="257" y="219" on="0"/>
        <pt x="299" y="169" on="0"/>
        <pt x="371" y="150" on="0"/>
        <pt x="425" y="150" on="1"/>
        <pt x="441" y="150" on="0"/>
        <pt x="484" y="152" on="0"/>
        <pt x="526" y="156" on="0"/>
        <pt x="565" y="160" on="0"/>
        <pt x="579" y="163" on="1"/>
        <pt x="579" y="5" on="1"/>
        <pt x="542" y="-3" on="0"/>
        <pt x="458" y="-13" on="0"/>
      </contour>
      <contour>
        <pt x="139" y="1004" on="1"/>
        <pt x="348" y="925" on="1"/>
        <pt x="557" y="1004" on="1"/>
        <pt x="557" y="875" on="1"/>
        <pt x="346" y="797" on="1"/>
        <pt x="139" y="875" on="1"/>
      </contour>
    </TTGlyph>
    <TTGlyph name="Ccaron.sc" xMin="34" yMin="-11" xMax="531" yMax="800">
      <contour>
        <pt x="387" y="-11" on="1"/>
        <pt x="207" y="-11" on="0"/>
        <pt x="34" y="134" on="0"/>
        <pt x="34" y="288" on="1"/>
        <pt x="34" y="441" on="0"/>
        <pt x="200" y="588" on="0"/>
        <pt x="371" y="588" on="1"/>
        <pt x="402" y="588" on="0"/>
        <pt x="477" y="583" on="0"/>
        <pt x="531" y="577" on="1"/>
        <pt x="531" y="429" on="1"/>
        <pt x="501" y="431" on="0"/>
        <pt x="460" y="434" on="0"/>
        <pt x="430" y="435" on="0"/>
        <pt x="406" y="436" on="0"/>
        <pt x="394" y="436" on="1"/>
        <pt x="344" y="436" on="0"/>
        <pt x="280" y="426" on="0"/>
        <pt x="243" y="395" on="0"/>
        <pt x="229" y="336" on="0"/>
        <pt x="229" y="288" on="1"/>
        <pt x="229" y="241" on="0"/>
        <pt x="243" y="183" on="0"/>
        <pt x="280" y="152" on="0"/>
        <pt x="343" y="142" on="0"/>
        <pt x="392" y="142" on="1"/>
        <pt x="407" y="142" on="0"/>
        <pt x="445" y="143" on="0"/>
        <pt x="484" y="146" on="0"/>
        <pt x="519" y="149" on="0"/>
        <pt x="531" y="151" on="1"/>
        <pt x="531" y="2" on="1"/>
        <pt x="497" y="-5" on="0"/>
        <pt x="422" y="-11" on="0"/>
      </contour>
      <contour>
        <pt x="125" y="800" on="1"/>
        <pt x="318" y="737" on="1"/>
        <pt x="512" y="800" on="1"/>
        <pt x="512" y="681" on="1"/>
        <pt x="317" y="619" on="1"/>
        <pt x="125" y="681" on="1"/>
      </contour>
    </TTGlyph>
    <TTGlyph name="Ccedilla" xMin="35" yMin="-220" xMax="579" yMax="753">
      <contour>
        <pt x="344" y="-220" on="1"/>
        <pt x="321" y="-220" on="0"/>
        <pt x="264" y="-213" on="0"/>
        <pt x="235" y="-208" on="1"/>
        <pt x="235" y="-97" on="1"/>
        <pt x="255" y="-102" on="0"/>
        <pt x="300" y="-108" on="0"/>
        <pt x="317" y="-108" on="1"/>
        <pt x="337" y="-108" on="0"/>
        <pt x="352" y="-94" on="0"/>
        <pt x="352" y="-83" on="1"/>
        <pt x="352" y="-71" on="0"/>
        <pt x="334" y="-31" on="0"/>
        <pt x="316" y="-5" on="1"/>
        <pt x="173" y="18" on="0"/>
        <pt x="35" y="201" on="0"/>
        <pt x="35" y="369" on="1"/>
        <pt x="35" y="565" on="0"/>
        <pt x="217" y="753" on="0"/>
        <pt x="403" y="753" on="1"/>
        <pt x="438" y="753" on="0"/>
        <pt x="522" y="746" on="0"/>
        <pt x="579" y="738" on="1"/>
        <pt x="579" y="580" on="1"/>
        <pt x="547" y="583" on="0"/>
        <pt x="503" y="588" on="0"/>
        <pt x="468" y="590" on="0"/>
        <pt x="441" y="591" on="0"/>
        <pt x="428" y="591" on="1"/>
        <pt x="372" y="591" on="0"/>
        <pt x="300" y="572" on="0"/>
        <pt x="257" y="522" on="0"/>
        <pt x="240" y="436" on="0"/>
        <pt x="240" y="369" on="1"/>
        <pt x="240" y="304" on="0"/>
        <pt x="257" y="219" on="0"/>
        <pt x="299" y="169" on="0"/>
        <pt x="371" y="150" on="0"/>
        <pt x="425" y="150" on="1"/>
        <pt x="441" y="150" on="0"/>
        <pt x="484" y="152" on="0"/>
        <pt x="526" y="156" on="0"/>
        <pt x="565" y="160" on="0"/>
        <pt x="579" y="163" on="1"/>
        <pt x="579" y="5" on="1"/>
        <pt x="547" y="-2" on="0"/>
        <pt x="474" y="-11" on="0"/>
        <pt x="439" y="-13" on="1"/>
        <pt x="461" y="-42" on="0"/>
        <pt x="477" y="-85" on="0"/>
        <pt x="477" y="-109" on="1"/>
        <pt x="477" y="-162" on="0"/>
        <pt x="406" y="-220" on="0"/>
      </contour>
    </TTGlyph>
    <TTGlyph name="Ccedilla.sc" xMin="35" yMin="-172" xMax="531" yMax="588">
      <contour>
        <pt x="320" y="-172" on="1"/>
        <pt x="299" y="-172" on="0"/>
        <pt x="246" y="-165" on="0"/>
        <pt x="220" y="-162" on="1"/>
        <pt x="220" y="-60" on="1"/>
        <pt x="238" y="-64" on="0"/>
        <pt x="280" y="-69" on="0"/>
        <pt x="296" y="-69" on="1"/>
        <pt x="313" y="-69" on="0"/>
        <pt x="324" y="-63" on="0"/>
        <pt x="324" y="-60" on="1"/>
        <pt x="324" y="-44" on="0"/>
        <pt x="298" y="-6" on="1"/>
        <pt x="164" y="10" on="0"/>
        <pt x="35" y="154" on="0"/>
        <pt x="35" y="288" on="1"/>
        <pt x="35" y="441" on="0"/>
        <pt x="201" y="588" on="0"/>
        <pt x="371" y="588" on="1"/>
        <pt x="402" y="588" on="0"/>
        <pt x="477" y="583" on="0"/>
        <pt x="531" y="577" on="1"/>
        <pt x="531" y="429" on="1"/>
        <pt x="501" y="431" on="0"/>
        <pt x="460" y="434" on="0"/>
        <pt x="430" y="435" on="0"/>
        <pt x="407" y="436" on="0"/>
        <pt x="395" y="436" on="1"/>
        <pt x="345" y="436" on="0"/>
        <pt x="280" y="426" on="0"/>
        <pt x="243" y="395" on="0"/>
        <pt x="229" y="336" on="0"/>
        <pt x="229" y="288" on="1"/>
        <pt x="229" y="241" on="0"/>
        <pt x="243" y="183" on="0"/>
        <pt x="280" y="152" on="0"/>
        <pt x="344" y="142" on="0"/>
        <pt x="393" y="142" on="1"/>
        <pt x="408" y="142" on="0"/>
        <pt x="446" y="143" on="0"/>
        <pt x="484" y="146" on="0"/>
        <pt x="519" y="149" on="0"/>
        <pt x="531" y="151" on="1"/>
        <pt x="531" y="2" on="1"/>
        <pt x="503" y="-3" on="0"/>
        <pt x="441" y="-10" on="0"/>
        <pt x="412" y="-11" on="1"/>
        <pt x="429" y="-33" on="0"/>
        <pt x="441" y="-66" on="0"/>
        <pt x="441" y="-85" on="1"/>
        <pt x="441" y="-126" on="0"/>
        <pt x="376" y="-172" on="0"/>
      </contour>
    </TTGlyph>
    <TTGlyph name="Ccircumflex" xMin="35" yMin="-13" xMax="579" yMax="1004">
      <contour>
        <pt x="418" y="-13" on="1"/>
        <pt x="223" y="-13" on="0"/>
        <pt x="35" y="174" on="0"/>
        <pt x="35" y="369" on="1"/>
        <pt x="35" y="565" on="0"/>
        <pt x="217" y="753" on="0"/>
        <pt x="403" y="753" on="1"/>
        <pt x="438" y="753" on="0"/>
        <pt x="522" y="746" on="0"/>
        <pt x="579" y="738" on="1"/>
        <pt x="579" y="580" on="1"/>
        <pt x="547" y="583" on="0"/>
        <pt x="503" y="588" on="0"/>
        <pt x="468" y="590" on="0"/>
        <pt x="441" y="591" on="0"/>
        <pt x="428" y="591" on="1"/>
        <pt x="372" y="591" on="0"/>
        <pt x="300" y="572" on="0"/>
        <pt x="257" y="522" on="0"/>
        <pt x="240" y="436" on="0"/>
        <pt x="240" y="369" on="1"/>
        <pt x="240" y="304" on="0"/>
        <pt x="257" y="219" on="0"/>
        <pt x="299" y="169" on="0"/>
        <pt x="371" y="150" on="0"/>
        <pt x="425" y="150" on="1"/>
        <pt x="441" y="150" on="0"/>
        <pt x="484" y="152" on="0"/>
        <pt x="526" y="156" on="0"/>
        <pt x="565" y="160" on="0"/>
        <pt x="579" y="163" on="1"/>
        <pt x="579" y="5" on="1"/>
        <pt x="542" y="-3" on="0"/>
        <pt x="458" y="-13" on="0"/>
      </contour>
      <contour>
        <pt x="135" y="926" on="1"/>
        <pt x="342" y="1004" on="1"/>
        <pt x="552" y="926" on="1"/>
        <pt x="552" y="798" on="1"/>
        <pt x="343" y="875" on="1"/>
        <pt x="135" y="798" on="1"/>
      </contour>
    </TTGlyph>
    <TTGlyph name="Ccircumflex.sc" xMin="34" yMin="-11" xMax="531" yMax="800">
      <contour>
        <pt x="387" y="-11" on="1"/>
        <pt x="207" y="-11" on="0"/>
        <pt x="34" y="134" on="0"/>
        <pt x="34" y="288" on="1"/>
        <pt x="34" y="441" on="0"/>
        <pt x="200" y="588" on="0"/>
        <pt x="371" y="588" on="1"/>
        <pt x="402" y="588" on="0"/>
        <pt x="477" y="583" on="0"/>
        <pt x="531" y="577" on="1"/>
        <pt x="531" y="429" on="1"/>
        <pt x="501" y="431" on="0"/>
        <pt x="460" y="434" on="0"/>
        <pt x="430" y="435" on="0"/>
        <pt x="406" y="436" on="0"/>
        <pt x="394" y="436" on="1"/>
        <pt x="344" y="436" on="0"/>
        <pt x="280" y="426" on="0"/>
        <pt x="243" y="395" on="0"/>
        <pt x="229" y="336" on="0"/>
        <pt x="229" y="288" on="1"/>
        <pt x="229" y="241" on="0"/>
        <pt x="243" y="183" on="0"/>
        <pt x="280" y="152" on="0"/>
        <pt x="343" y="142" on="0"/>
        <pt x="392" y="142" on="1"/>
        <pt x="407" y="142" on="0"/>
        <pt x="445" y="143" on="0"/>
        <pt x="484" y="146" on="0"/>
        <pt x="519" y="149" on="0"/>
        <pt x="531" y="151" on="1"/>
        <pt x="531" y="2" on="1"/>
        <pt x="497" y="-5" on="0"/>
        <pt x="422" y="-11" on="0"/>
      </contour>
      <contour>
        <pt x="121" y="737" on="1"/>
        <pt x="313" y="800" on="1"/>
        <pt x="509" y="737" on="1"/>
        <pt x="509" y="618" on="1"/>
        <pt x="315" y="681" on="1"/>
        <pt x="121" y="618" on="1"/>
      </contour>
    </TTGlyph>
    <TTGlyph name="Cdotaccent" xMin="35" yMin="-13" xMax="579" yMax="1003">
      <contour>
        <pt x="362" y="799" on="1"/>
        <pt x="305" y="799" on="0"/>
        <pt x="257" y="847" on="0"/>
        <pt x="257" y="901" on="1"/>
        <pt x="257" y="955" on="0"/>
        <pt x="305" y="1003" on="0"/>
        <pt x="362" y="1003" on="1"/>
        <pt x="419" y="1003" on="0"/>
        <pt x="467" y="954" on="0"/>
        <pt x="467" y="901" on="1"/>
        <pt x="467" y="848" on="0"/>
        <pt x="419" y="799" on="0"/>
      </contour>
      <contour>
        <pt x="418" y="-13" on="1"/>
        <pt x="223" y="-13" on="0"/>
        <pt x="35" y="174" on="0"/>
        <pt x="35" y="369" on="1"/>
        <pt x="35" y="565" on="0"/>
        <pt x="217" y="753" on="0"/>
        <pt x="403" y="753" on="1"/>
        <pt x="438" y="753" on="0"/>
        <pt x="522" y="746" on="0"/>
        <pt x="579" y="738" on="1"/>
        <pt x="579" y="580" on="1"/>
        <pt x="547" y="583" on="0"/>
        <pt x="503" y="588" on="0"/>
        <pt x="468" y="590" on="0"/>
        <pt x="441" y="591" on="0"/>
        <pt x="428" y="591" on="1"/>
        <pt x="372" y="591" on="0"/>
        <pt x="300" y="572" on="0"/>
        <pt x="257" y="522" on="0"/>
        <pt x="240" y="436" on="0"/>
        <pt x="240" y="369" on="1"/>
        <pt x="240" y="304" on="0"/>
        <pt x="257" y="219" on="0"/>
        <pt x="299" y="169" on="0"/>
        <pt x="371" y="150" on="0"/>
        <pt x="425" y="150" on="1"/>
        <pt x="441" y="150" on="0"/>
        <pt x="484" y="152" on="0"/>
        <pt x="526" y="156" on="0"/>
        <pt x="565" y="160" on="0"/>
        <pt x="579" y="163" on="1"/>
        <pt x="579" y="5" on="1"/>
        <pt x="542" y="-3" on="0"/>
        <pt x="458" y="-13" on="0"/>
      </contour>
    </TTGlyph>
    <TTGlyph name="Cdotaccent.sc" xMin="34" yMin="-11" xMax="531" yMax="807">
      <contour>
        <pt x="387" y="-11" on="1"/>
        <pt x="207" y="-11" on="0"/>
        <pt x="34" y="134" on="0"/>
        <pt x="34" y="288" on="1"/>
        <pt x="34" y="441" on="0"/>
        <pt x="200" y="588" on="0"/>
        <pt x="371" y="588" on="1"/>
        <pt x="402" y="588" on="0"/>
        <pt x="477" y="583" on="0"/>
        <pt x="531" y="577" on="1"/>
        <pt x="531" y="429" on="1"/>
        <pt x="501" y="431" on="0"/>
        <pt x="460" y="434" on="0"/>
        <pt x="430" y="435" on="0"/>
        <pt x="406" y="436" on="0"/>
        <pt x="394" y="436" on="1"/>
        <pt x="344" y="436" on="0"/>
        <pt x="280" y="426" on="0"/>
        <pt x="243" y="395" on="0"/>
        <pt x="229" y="336" on="0"/>
        <pt x="229" y="288" on="1"/>
        <pt x="229" y="241" on="0"/>
        <pt x="243" y="183" on="0"/>
        <pt x="280" y="152" on="0"/>
        <pt x="343" y="142" on="0"/>
        <pt x="392" y="142" on="1"/>
        <pt x="407" y="142" on="0"/>
        <pt x="445" y="143" on="0"/>
        <pt x="484" y="146" on="0"/>
        <pt x="519" y="149" on="0"/>
        <pt x="531" y="151" on="1"/>
        <pt x="531" y="2" on="1"/>
        <pt x="497" y="-5" on="0"/>
        <pt x="422" y="-11" on="0"/>
      </contour>
      <contour>
        <pt x="334" y="619" on="1"/>
        <pt x="280" y="619" on="0"/>
        <pt x="235" y="662" on="0"/>
        <pt x="235" y="713" on="1"/>
        <pt x="235" y="762" on="0"/>
        <pt x="280" y="807" on="0"/>
        <pt x="334" y="807" on="1"/>
        <pt x="388" y="807" on="0"/>
        <pt x="433" y="761" on="0"/>
        <pt x="433" y="713" on="1"/>
        <pt x="433" y="665" on="0"/>
        <pt x="388" y="619" on="0"/>
      </contour>
    </TTGlyph>
    <TTGlyph name="D" xMin="66" yMin="-11" xMax="753" yMax="750">
      <contour>
        <pt x="292" y="-11" on="1"/>
        <pt x="231" y="-11" on="0"/>
        <pt x="110" y="-4" on="0"/>
        <pt x="66" y="2" on="1"/>
        <pt x="66" y="738" on="1"/>
        <pt x="154" y="744" on="0"/>
        <pt x="283" y="750" on="0"/>
        <pt x="331" y="750" on="1"/>
        <pt x="442" y="750" on="0"/>
        <pt x="601" y="706" on="0"/>
        <pt x="704" y="613" on="0"/>
        <pt x="753" y="469" on="0"/>
        <pt x="753" y="369" on="1"/>
        <pt x="753" y="267" on="0"/>
        <pt x="702" y="123" on="0"/>
        <pt x="591" y="31" on="0"/>
        <pt x="416" y="-11" on="0"/>
      </contour>
      <contour>
        <pt x="370" y="146" on="1"/>
        <pt x="421" y="146" on="0"/>
        <pt x="490" y="168" on="0"/>
        <pt x="531" y="220" on="0"/>
        <pt x="549" y="305" on="0"/>
        <pt x="549" y="369" on="1"/>
        <pt x="549" y="432" on="0"/>
        <pt x="530" y="517" on="0"/>
        <pt x="486" y="570" on="0"/>
        <pt x="414" y="592" on="0"/>
        <pt x="361" y="592" on="1"/>
        <pt x="341" y="592" on="0"/>
        <pt x="296" y="590" on="0"/>
        <pt x="265" y="587" on="1"/>
        <pt x="265" y="154" on="1"/>
        <pt x="291" y="150" on="0"/>
        <pt x="344" y="146" on="0"/>
      </contour>
    </TTGlyph>
    <TTGlyph name="D.sc" xMin="64" yMin="-8" xMax="695" yMax="585">
      <contour>
        <pt x="309" y="-8" on="1"/>
        <pt x="277" y="-8" on="0"/>
        <pt x="210" y="-7" on="0"/>
        <pt x="146" y="-4" on="0"/>
        <pt x="87" y="0" on="0"/>
        <pt x="64" y="2" on="1"/>
        <pt x="64" y="576" on="1"/>
        <pt x="142" y="581" on="0"/>
        <pt x="263" y="585" on="0"/>
        <pt x="310" y="585" on="1"/>
        <pt x="510" y="585" on="0"/>
        <pt x="695" y="442" on="0"/>
        <pt x="695" y="287" on="1"/>
        <pt x="695" y="210" on="0"/>
        <pt x="650" y="98" on="0"/>
        <pt x="555" y="26" on="0"/>
        <pt x="409" y="-8" on="0"/>
      </contour>
      <contour>
        <pt x="347" y="139" on="1"/>
        <pt x="392" y="139" on="0"/>
        <pt x="451" y="152" on="0"/>
        <pt x="487" y="186" on="0"/>
        <pt x="501" y="244" on="0"/>
        <pt x="501" y="288" on="1"/>
        <pt x="501" y="331" on="0"/>
        <pt x="485" y="388" on="0"/>
        <pt x="447" y="423" on="0"/>
        <pt x="385" y="437" on="0"/>
        <pt x="339" y="437" on="1"/>
        <pt x="319" y="437" on="0"/>
        <pt x="280" y="436" on="0"/>
        <pt x="252" y="434" on="1"/>
        <pt x="252" y="145" on="1"/>
        <pt x="294" y="139" on="0"/>
      </contour>
    </TTGlyph>
    <TTGlyph name="Dcaron" xMin="66" yMin="-11" xMax="753" yMax="1004">
      <contour>
        <pt x="179" y="1004" on="1"/>
        <pt x="388" y="925" on="1"/>
        <pt x="597" y="1004" on="1"/>
        <pt x="597" y="875" on="1"/>
        <pt x="386" y="797" on="1"/>
        <pt x="179" y="875" on="1"/>
      </contour>
      <contour>
        <pt x="292" y="-11" on="1"/>
        <pt x="231" y="-11" on="0"/>
        <pt x="110" y="-4" on="0"/>
        <pt x="66" y="2" on="1"/>
        <pt x="66" y="738" on="1"/>
        <pt x="154" y="744" on="0"/>
        <pt x="283" y="750" on="0"/>
        <pt x="331" y="750" on="1"/>
        <pt x="442" y="750" on="0"/>
        <pt x="601" y="706" on="0"/>
        <pt x="704" y="613" on="0"/>
        <pt x="753" y="469" on="0"/>
        <pt x="753" y="369" on="1"/>
        <pt x="753" y="267" on="0"/>
        <pt x="702" y="123" on="0"/>
        <pt x="591" y="31" on="0"/>
        <pt x="416" y="-11" on="0"/>
      </contour>
      <contour>
        <pt x="370" y="146" on="1"/>
        <pt x="421" y="146" on="0"/>
        <pt x="490" y="168" on="0"/>
        <pt x="531" y="220" on="0"/>
        <pt x="549" y="305" on="0"/>
        <pt x="549" y="369" on="1"/>
        <pt x="549" y="432" on="0"/>
        <pt x="530" y="517" on="0"/>
        <pt x="486" y="570" on="0"/>
        <pt x="414" y="592" on="0"/>
        <pt x="361" y="592" on="1"/>
        <pt x="341" y="592" on="0"/>
        <pt x="296" y="590" on="0"/>
        <pt x="265" y="587" on="1"/>
        <pt x="265" y="154" on="1"/>
        <pt x="291" y="150" on="0"/>
        <pt x="344" y="146" on="0"/>
      </contour>
    </TTGlyph>
    <TTGlyph name="Dcaron.sc" xMin="64" yMin="-8" xMax="695" yMax="800">
      <contour>
        <pt x="309" y="-8" on="1"/>
        <pt x="277" y="-8" on="0"/>
        <pt x="210" y="-7" on="0"/>
        <pt x="146" y="-4" on="0"/>
        <pt x="87" y="0" on="0"/>
        <pt x="64" y="2" on="1"/>
        <pt x="64" y="576" on="1"/>
        <pt x="142" y="581" on="0"/>
        <pt x="263" y="585" on="0"/>
        <pt x="310" y="585" on="1"/>
        <pt x="510" y="585" on="0"/>
        <pt x="695" y="442" on="0"/>
        <pt x="695" y="287" on="1"/>
        <pt x="695" y="210" on="0"/>
        <pt x="650" y="98" on="0"/>
        <pt x="555" y="26" on="0"/>
        <pt x="409" y="-8" on="0"/>
      </contour>
      <contour>
        <pt x="347" y="139" on="1"/>
        <pt x="392" y="139" on="0"/>
        <pt x="451" y="152" on="0"/>
        <pt x="487" y="186" on="0"/>
        <pt x="501" y="244" on="0"/>
        <pt x="501" y="288" on="1"/>
        <pt x="501" y="331" on="0"/>
        <pt x="485" y="388" on="0"/>
        <pt x="447" y="423" on="0"/>
        <pt x="385" y="437" on="0"/>
        <pt x="339" y="437" on="1"/>
        <pt x="319" y="437" on="0"/>
        <pt x="280" y="436" on="0"/>
        <pt x="252" y="434" on="1"/>
        <pt x="252" y="145" on="1"/>
        <pt x="294" y="139" on="0"/>
      </contour>
      <contour>
        <pt x="169" y="681" on="1"/>
        <pt x="169" y="800" on="1"/>
        <pt x="363" y="737" on="1"/>
        <pt x="557" y="800" on="1"/>
        <pt x="557" y="681" on="1"/>
        <pt x="361" y="619" on="1"/>
      </contour>
    </TTGlyph>
    <TTGlyph name="Dcroat" xMin="3" yMin="-11" xMax="778" yMax="750">
      <contour>
        <pt x="3" y="448" on="1"/>
        <pt x="91" y="448" on="1"/>
        <pt x="91" y="738" on="1"/>
        <pt x="179" y="744" on="0"/>
        <pt x="308" y="750" on="0"/>
        <pt x="356" y="750" on="1"/>
        <pt x="467" y="750" on="0"/>
        <pt x="626" y="706" on="0"/>
        <pt x="729" y="613" on="0"/>
        <pt x="778" y="469" on="0"/>
        <pt x="778" y="369" on="1"/>
        <pt x="778" y="267" on="0"/>
        <pt x="727" y="123" on="0"/>
        <pt x="616" y="31" on="0"/>
        <pt x="441" y="-11" on="0"/>
        <pt x="317" y="-11" on="1"/>
        <pt x="256" y="-11" on="0"/>
        <pt x="135" y="-4" on="0"/>
        <pt x="91" y="2" on="1"/>
        <pt x="91" y="299" on="1"/>
        <pt x="3" y="299" on="1"/>
      </contour>
      <contour>
        <pt x="395" y="146" on="1"/>
        <pt x="446" y="146" on="0"/>
        <pt x="515" y="168" on="0"/>
        <pt x="556" y="220" on="0"/>
        <pt x="574" y="305" on="0"/>
        <pt x="574" y="369" on="1"/>
        <pt x="574" y="432" on="0"/>
        <pt x="555" y="517" on="0"/>
        <pt x="511" y="570" on="0"/>
        <pt x="439" y="592" on="0"/>
        <pt x="386" y="592" on="1"/>
        <pt x="366" y="592" on="0"/>
        <pt x="321" y="590" on="0"/>
        <pt x="290" y="587" on="1"/>
        <pt x="290" y="448" on="1"/>
        <pt x="398" y="448" on="1"/>
        <pt x="398" y="299" on="1"/>
        <pt x="290" y="299" on="1"/>
        <pt x="290" y="154" on="1"/>
        <pt x="316" y="150" on="0"/>
        <pt x="369" y="146" on="0"/>
      </contour>
    </TTGlyph>
    <TTGlyph name="Dcroat.sc" xMin="12" yMin="-8" xMax="721" yMax="585">
      <contour>
        <pt x="12" y="363" on="1"/>
        <pt x="90" y="363" on="1"/>
        <pt x="90" y="576" on="1"/>
        <pt x="173" y="581" on="0"/>
        <pt x="292" y="585" on="0"/>
        <pt x="336" y="585" on="1"/>
        <pt x="437" y="585" on="0"/>
        <pt x="582" y="551" on="0"/>
        <pt x="676" y="478" on="0"/>
        <pt x="721" y="365" on="0"/>
        <pt x="721" y="287" on="1"/>
        <pt x="721" y="207" on="0"/>
        <pt x="674" y="94" on="0"/>
        <pt x="572" y="24" on="0"/>
        <pt x="411" y="-8" on="0"/>
        <pt x="297" y="-8" on="1"/>
        <pt x="269" y="-8" on="0"/>
        <pt x="212" y="-7" on="0"/>
        <pt x="158" y="-4" on="0"/>
        <pt x="109" y="0" on="0"/>
        <pt x="90" y="2" on="1"/>
        <pt x="90" y="223" on="1"/>
        <pt x="12" y="223" on="1"/>
      </contour>
      <contour>
        <pt x="373" y="139" on="1"/>
        <pt x="418" y="139" on="0"/>
        <pt x="477" y="152" on="0"/>
        <pt x="513" y="185" on="0"/>
        <pt x="528" y="243" on="0"/>
        <pt x="528" y="288" on="1"/>
        <pt x="528" y="331" on="0"/>
        <pt x="512" y="388" on="0"/>
        <pt x="474" y="423" on="0"/>
        <pt x="411" y="437" on="0"/>
        <pt x="365" y="437" on="1"/>
        <pt x="348" y="437" on="0"/>
        <pt x="308" y="436" on="0"/>
        <pt x="278" y="434" on="1"/>
        <pt x="278" y="363" on="1"/>
        <pt x="371" y="363" on="1"/>
        <pt x="371" y="223" on="1"/>
        <pt x="278" y="223" on="1"/>
        <pt x="278" y="145" on="1"/>
        <pt x="300" y="142" on="0"/>
        <pt x="349" y="139" on="0"/>
      </contour>
    </TTGlyph>
    <TTGlyph name="Ddotbelow" xMin="66" yMin="-213" xMax="753" yMax="750">
      <contour>
        <pt x="382" y="-213" on="1"/>
        <pt x="338" y="-213" on="0"/>
        <pt x="301" y="-177" on="0"/>
        <pt x="301" y="-135" on="1"/>
        <pt x="301" y="-93" on="0"/>
        <pt x="338" y="-56" on="0"/>
        <pt x="382" y="-56" on="1"/>
        <pt x="427" y="-56" on="0"/>
        <pt x="464" y="-95" on="0"/>
        <pt x="464" y="-135" on="1"/>
        <pt x="464" y="-175" on="0"/>
        <pt x="427" y="-213" on="0"/>
      </contour>
      <contour>
        <pt x="292" y="-11" on="1"/>
        <pt x="231" y="-11" on="0"/>
        <pt x="110" y="-4" on="0"/>
        <pt x="66" y="2" on="1"/>
        <pt x="66" y="738" on="1"/>
        <pt x="154" y="744" on="0"/>
        <pt x="283" y="750" on="0"/>
        <pt x="331" y="750" on="1"/>
        <pt x="442" y="750" on="0"/>
        <pt x="601" y="706" on="0"/>
        <pt x="704" y="613" on="0"/>
        <pt x="753" y="469" on="0"/>
        <pt x="753" y="369" on="1"/>
        <pt x="753" y="267" on="0"/>
        <pt x="702" y="123" on="0"/>
        <pt x="591" y="31" on="0"/>
        <pt x="416" y="-11" on="0"/>
      </contour>
      <contour>
        <pt x="370" y="146" on="1"/>
        <pt x="421" y="146" on="0"/>
        <pt x="490" y="168" on="0"/>
        <pt x="531" y="220" on="0"/>
        <pt x="549" y="305" on="0"/>
        <pt x="549" y="369" on="1"/>
        <pt x="549" y="432" on="0"/>
        <pt x="530" y="517" on="0"/>
        <pt x="486" y="570" on="0"/>
        <pt x="414" y="592" on="0"/>
        <pt x="361" y="592" on="1"/>
        <pt x="341" y="592" on="0"/>
        <pt x="296" y="590" on="0"/>
        <pt x="265" y="587" on="1"/>
        <pt x="265" y="154" on="1"/>
        <pt x="291" y="150" on="0"/>
        <pt x="344" y="146" on="0"/>
      </contour>
    </TTGlyph>
    <TTGlyph name="Ddotbelow.sc" xMin="64" yMin="-175" xMax="695" yMax="585">
      <contour>
        <pt x="309" y="-8" on="1"/>
        <pt x="277" y="-8" on="0"/>
        <pt x="210" y="-7" on="0"/>
        <pt x="146" y="-4" on="0"/>
        <pt x="87" y="0" on="0"/>
        <pt x="64" y="2" on="1"/>
        <pt x="64" y="576" on="1"/>
        <pt x="142" y="581" on="0"/>
        <pt x="263" y="585" on="0"/>
        <pt x="310" y="585" on="1"/>
        <pt x="510" y="585" on="0"/>
        <pt x="695" y="442" on="0"/>
        <pt x="695" y="287" on="1"/>
        <pt x="695" y="210" on="0"/>
        <pt x="650" y="98" on="0"/>
        <pt x="555" y="26" on="0"/>
        <pt x="409" y="-8" on="0"/>
      </contour>
      <contour>
        <pt x="347" y="139" on="1"/>
        <pt x="392" y="139" on="0"/>
        <pt x="451" y="152" on="0"/>
        <pt x="487" y="186" on="0"/>
        <pt x="501" y="244" on="0"/>
        <pt x="501" y="288" on="1"/>
        <pt x="501" y="331" on="0"/>
        <pt x="485" y="388" on="0"/>
        <pt x="447" y="423" on="0"/>
        <pt x="385" y="437" on="0"/>
        <pt x="339" y="437" on="1"/>
        <pt x="319" y="437" on="0"/>
        <pt x="280" y="436" on="0"/>
        <pt x="252" y="434" on="1"/>
        <pt x="252" y="145" on="1"/>
        <pt x="294" y="139" on="0"/>
      </contour>
      <contour>
        <pt x="357" y="-175" on="1"/>
        <pt x="315" y="-175" on="0"/>
        <pt x="281" y="-142" on="0"/>
        <pt x="281" y="-105" on="1"/>
        <pt x="281" y="-69" on="0"/>
        <pt x="315" y="-35" on="0"/>
        <pt x="357" y="-35" on="1"/>
        <pt x="399" y="-35" on="0"/>
        <pt x="432" y="-70" on="0"/>
        <pt x="432" y="-105" on="1"/>
        <pt x="432" y="-140" on="0"/>
        <pt x="399" y="-175" on="0"/>
      </contour>
    </TTGlyph>
    <TTGlyph name="Delta" xMin="21" yMin="0" xMax="836" yMax="740">
      <contour>
        <pt x="311" y="740" on="1"/>
        <pt x="546" y="740" on="1"/>
        <pt x="836" y="0" on="1"/>
        <pt x="21" y="0" on="1"/>
      </contour>
      <contour>
        <pt x="594" y="153" on="1"/>
        <pt x="428" y="576" on="1"/>
        <pt x="263" y="153" on="1"/>
      </contour>
    </TTGlyph>
    <TTGlyph name="E" xMin="66" yMin="0" xMax="635" yMax="740">
      <contour>
        <pt x="66" y="740" on="1"/>
        <pt x="625" y="740" on="1"/>
        <pt x="625" y="586" on="1"/>
        <pt x="266" y="586" on="1"/>
        <pt x="266" y="448" on="1"/>
        <pt x="590" y="448" on="1"/>
        <pt x="590" y="294" on="1"/>
        <pt x="266" y="294" on="1"/>
        <pt x="266" y="154" on="1"/>
        <pt x="635" y="154" on="1"/>
        <pt x="635" y="0" on="1"/>
        <pt x="66" y="0" on="1"/>
      </contour>
    </TTGlyph>
    <TTGlyph name="E.sc" xMin="64" yMin="0" xMax="587" yMax="577">
      <contour>
        <pt x="64" y="577" on="1"/>
        <pt x="579" y="577" on="1"/>
        <pt x="579" y="438" on="1"/>
        <pt x="253" y="438" on="1"/>
        <pt x="253" y="350" on="1"/>
        <pt x="546" y="350" on="1"/>
        <pt x="546" y="229" on="1"/>
        <pt x="253" y="229" on="1"/>
        <pt x="253" y="140" on="1"/>
        <pt x="587" y="140" on="1"/>
        <pt x="587" y="0" on="1"/>
        <pt x="64" y="0" on="1"/>
      </contour>
    </TTGlyph>
    <TTGlyph name="Eacute" xMin="66" yMin="0" xMax="635" yMax="992">
      <contour>
        <pt x="265" y="812" on="1"/>
        <pt x="330" y="992" on="1"/>
        <pt x="530" y="992" on="1"/>
        <pt x="406" y="802" on="1"/>
      </contour>
      <contour>
        <pt x="66" y="740" on="1"/>
        <pt x="625" y="740" on="1"/>
        <pt x="625" y="586" on="1"/>
        <pt x="266" y="586" on="1"/>
        <pt x="266" y="448" on="1"/>
        <pt x="590" y="448" on="1"/>
        <pt x="590" y="294" on="1"/>
        <pt x="266" y="294" on="1"/>
        <pt x="266" y="154" on="1"/>
        <pt x="635" y="154" on="1"/>
        <pt x="635" y="0" on="1"/>
        <pt x="66" y="0" on="1"/>
      </contour>
    </TTGlyph>
    <TTGlyph name="Eacute.sc" xMin="64" yMin="0" xMax="587" yMax="788">
      <contour>
        <pt x="64" y="577" on="1"/>
        <pt x="579" y="577" on="1"/>
        <pt x="579" y="438" on="1"/>
        <pt x="253" y="438" on="1"/>
        <pt x="253" y="350" on="1"/>
        <pt x="546" y="350" on="1"/>
        <pt x="546" y="229" on="1"/>
        <pt x="253" y="229" on="1"/>
        <pt x="253" y="140" on="1"/>
        <pt x="587" y="140" on="1"/>
        <pt x="587" y="0" on="1"/>
        <pt x="64" y="0" on="1"/>
      </contour>
      <contour>
        <pt x="245" y="636" on="1"/>
        <pt x="302" y="788" on="1"/>
        <pt x="491" y="788" on="1"/>
        <pt x="378" y="627" on="1"/>
      </contour>
    </TTGlyph>
    <TTGlyph name="Ebreve" xMin="66" yMin="0" xMax="635" yMax="992">
      <contour>
        <pt x="340" y="807" on="1"/>
        <pt x="277" y="807" on="0"/>
        <pt x="190" y="835" on="0"/>
        <pt x="136" y="884" on="0"/>
        <pt x="112" y="952" on="0"/>
        <pt x="112" y="992" on="1"/>
        <pt x="241" y="992" on="1"/>
        <pt x="241" y="945" on="0"/>
        <pt x="282" y="899" on="0"/>
        <pt x="340" y="899" on="1"/>
        <pt x="398" y="899" on="0"/>
        <pt x="439" y="945" on="0"/>
        <pt x="439" y="992" on="1"/>
        <pt x="568" y="992" on="1"/>
        <pt x="568" y="951" on="0"/>
        <pt x="544" y="884" on="0"/>
        <pt x="490" y="834" on="0"/>
        <pt x="403" y="807" on="0"/>
      </contour>
      <contour>
        <pt x="66" y="740" on="1"/>
        <pt x="625" y="740" on="1"/>
        <pt x="625" y="586" on="1"/>
        <pt x="266" y="586" on="1"/>
        <pt x="266" y="448" on="1"/>
        <pt x="590" y="448" on="1"/>
        <pt x="590" y="294" on="1"/>
        <pt x="266" y="294" on="1"/>
        <pt x="266" y="154" on="1"/>
        <pt x="635" y="154" on="1"/>
        <pt x="635" y="0" on="1"/>
        <pt x="66" y="0" on="1"/>
      </contour>
    </TTGlyph>
    <TTGlyph name="Ebreve.sc" xMin="64" yMin="0" xMax="587" yMax="783">
      <contour>
        <pt x="315" y="629" on="1"/>
        <pt x="255" y="629" on="0"/>
        <pt x="175" y="653" on="0"/>
        <pt x="125" y="695" on="0"/>
        <pt x="104" y="751" on="0"/>
        <pt x="104" y="783" on="1"/>
        <pt x="225" y="783" on="1"/>
        <pt x="225" y="748" on="0"/>
        <pt x="262" y="712" on="0"/>
        <pt x="315" y="712" on="1"/>
        <pt x="368" y="712" on="0"/>
        <pt x="405" y="748" on="0"/>
        <pt x="405" y="783" on="1"/>
        <pt x="526" y="783" on="1"/>
        <pt x="526" y="750" on="0"/>
        <pt x="504" y="694" on="0"/>
        <pt x="455" y="652" on="0"/>
        <pt x="374" y="629" on="0"/>
      </contour>
      <contour>
        <pt x="64" y="577" on="1"/>
        <pt x="579" y="577" on="1"/>
        <pt x="579" y="438" on="1"/>
        <pt x="253" y="438" on="1"/>
        <pt x="253" y="350" on="1"/>
        <pt x="546" y="350" on="1"/>
        <pt x="546" y="229" on="1"/>
        <pt x="253" y="229" on="1"/>
        <pt x="253" y="140" on="1"/>
        <pt x="587" y="140" on="1"/>
        <pt x="587" y="0" on="1"/>
        <pt x="64" y="0" on="1"/>
      </contour>
    </TTGlyph>
    <TTGlyph name="Ecaron" xMin="66" yMin="0" xMax="635" yMax="1004">
      <contour>
        <pt x="140" y="1004" on="1"/>
        <pt x="349" y="925" on="1"/>
        <pt x="558" y="1004" on="1"/>
        <pt x="558" y="875" on="1"/>
        <pt x="347" y="797" on="1"/>
        <pt x="140" y="875" on="1"/>
      </contour>
      <contour>
        <pt x="66" y="740" on="1"/>
        <pt x="625" y="740" on="1"/>
        <pt x="625" y="586" on="1"/>
        <pt x="266" y="586" on="1"/>
        <pt x="266" y="448" on="1"/>
        <pt x="590" y="448" on="1"/>
        <pt x="590" y="294" on="1"/>
        <pt x="266" y="294" on="1"/>
        <pt x="266" y="154" on="1"/>
        <pt x="635" y="154" on="1"/>
        <pt x="635" y="0" on="1"/>
        <pt x="66" y="0" on="1"/>
      </contour>
    </TTGlyph>
    <TTGlyph name="Ecaron.sc" xMin="64" yMin="0" xMax="587" yMax="800">
      <contour>
        <pt x="64" y="577" on="1"/>
        <pt x="579" y="577" on="1"/>
        <pt x="579" y="438" on="1"/>
        <pt x="253" y="438" on="1"/>
        <pt x="253" y="350" on="1"/>
        <pt x="546" y="350" on="1"/>
        <pt x="546" y="229" on="1"/>
        <pt x="253" y="229" on="1"/>
        <pt x="253" y="140" on="1"/>
        <pt x="587" y="140" on="1"/>
        <pt x="587" y="0" on="1"/>
        <pt x="64" y="0" on="1"/>
      </contour>
      <contour>
        <pt x="129" y="681" on="1"/>
        <pt x="129" y="800" on="1"/>
        <pt x="322" y="737" on="1"/>
        <pt x="516" y="800" on="1"/>
        <pt x="516" y="681" on="1"/>
        <pt x="321" y="619" on="1"/>
      </contour>
    </TTGlyph>
    <TTGlyph name="Ecircumflex" xMin="66" yMin="0" xMax="635" yMax="1004">
      <contour>
        <pt x="66" y="740" on="1"/>
        <pt x="625" y="740" on="1"/>
        <pt x="625" y="586" on="1"/>
        <pt x="266" y="586" on="1"/>
        <pt x="266" y="448" on="1"/>
        <pt x="590" y="448" on="1"/>
        <pt x="590" y="294" on="1"/>
        <pt x="266" y="294" on="1"/>
        <pt x="266" y="154" on="1"/>
        <pt x="635" y="154" on="1"/>
        <pt x="635" y="0" on="1"/>
        <pt x="66" y="0" on="1"/>
      </contour>
      <contour>
        <pt x="151" y="926" on="1"/>
        <pt x="358" y="1004" on="1"/>
        <pt x="568" y="926" on="1"/>
        <pt x="568" y="798" on="1"/>
        <pt x="359" y="875" on="1"/>
        <pt x="151" y="798" on="1"/>
      </contour>
    </TTGlyph>
    <TTGlyph name="Ecircumflex.sc" xMin="64" yMin="0" xMax="587" yMax="800">
      <contour>
        <pt x="64" y="577" on="1"/>
        <pt x="579" y="577" on="1"/>
        <pt x="579" y="438" on="1"/>
        <pt x="253" y="438" on="1"/>
        <pt x="253" y="350" on="1"/>
        <pt x="546" y="350" on="1"/>
        <pt x="546" y="229" on="1"/>
        <pt x="253" y="229" on="1"/>
        <pt x="253" y="140" on="1"/>
        <pt x="587" y="140" on="1"/>
        <pt x="587" y="0" on="1"/>
        <pt x="64" y="0" on="1"/>
      </contour>
      <contour>
        <pt x="142" y="737" on="1"/>
        <pt x="333" y="800" on="1"/>
        <pt x="529" y="737" on="1"/>
        <pt x="529" y="618" on="1"/>
        <pt x="335" y="681" on="1"/>
        <pt x="142" y="618" on="1"/>
      </contour>
    </TTGlyph>
    <TTGlyph name="Edblgrave" xMin="43" yMin="0" xMax="635" yMax="991">
      <contour>
        <pt x="66" y="740" on="1"/>
        <pt x="625" y="740" on="1"/>
        <pt x="625" y="586" on="1"/>
        <pt x="266" y="586" on="1"/>
        <pt x="266" y="448" on="1"/>
        <pt x="590" y="448" on="1"/>
        <pt x="590" y="294" on="1"/>
        <pt x="266" y="294" on="1"/>
        <pt x="266" y="154" on="1"/>
        <pt x="635" y="154" on="1"/>
        <pt x="635" y="0" on="1"/>
        <pt x="66" y="0" on="1"/>
      </contour>
      <contour>
        <pt x="167" y="801" on="1"/>
        <pt x="43" y="991" on="1"/>
        <pt x="232" y="991" on="1"/>
        <pt x="296" y="812" on="1"/>
      </contour>
      <contour>
        <pt x="391" y="801" on="1"/>
        <pt x="266" y="991" on="1"/>
        <pt x="455" y="991" on="1"/>
        <pt x="520" y="812" on="1"/>
      </contour>
    </TTGlyph>
    <TTGlyph name="Edblgrave.sc" xMin="38" yMin="0" xMax="587" yMax="789">
      <contour>
        <pt x="64" y="577" on="1"/>
        <pt x="579" y="577" on="1"/>
        <pt x="579" y="438" on="1"/>
        <pt x="253" y="438" on="1"/>
        <pt x="253" y="350" on="1"/>
        <pt x="546" y="350" on="1"/>
        <pt x="546" y="229" on="1"/>
        <pt x="253" y="229" on="1"/>
        <pt x="253" y="140" on="1"/>
        <pt x="587" y="140" on="1"/>
        <pt x="587" y="0" on="1"/>
        <pt x="64" y="0" on="1"/>
      </contour>
      <contour>
        <pt x="38" y="789" on="1"/>
        <pt x="219" y="789" on="1"/>
        <pt x="275" y="635" on="1"/>
        <pt x="152" y="628" on="1"/>
      </contour>
      <contour>
        <pt x="246" y="789" on="1"/>
        <pt x="427" y="789" on="1"/>
        <pt x="484" y="635" on="1"/>
        <pt x="360" y="628" on="1"/>
      </contour>
    </TTGlyph>
    <TTGlyph name="Edieresis" xMin="66" yMin="0" xMax="635" yMax="1004">
      <contour>
        <pt x="206" y="800" on="1"/>
        <pt x="149" y="800" on="0"/>
        <pt x="101" y="848" on="0"/>
        <pt x="101" y="902" on="1"/>
        <pt x="101" y="956" on="0"/>
        <pt x="149" y="1004" on="0"/>
        <pt x="206" y="1004" on="1"/>
        <pt x="264" y="1004" on="0"/>
        <pt x="312" y="955" on="0"/>
        <pt x="312" y="902" on="1"/>
        <pt x="312" y="849" on="0"/>
        <pt x="264" y="800" on="0"/>
      </contour>
      <contour>
        <pt x="504" y="800" on="1"/>
        <pt x="447" y="800" on="0"/>
        <pt x="399" y="848" on="0"/>
        <pt x="399" y="902" on="1"/>
        <pt x="399" y="956" on="0"/>
        <pt x="447" y="1004" on="0"/>
        <pt x="504" y="1004" on="1"/>
        <pt x="562" y="1004" on="0"/>
        <pt x="610" y="955" on="0"/>
        <pt x="610" y="902" on="1"/>
        <pt x="610" y="849" on="0"/>
        <pt x="562" y="800" on="0"/>
      </contour>
      <contour>
        <pt x="66" y="740" on="1"/>
        <pt x="625" y="740" on="1"/>
        <pt x="625" y="586" on="1"/>
        <pt x="266" y="586" on="1"/>
        <pt x="266" y="448" on="1"/>
        <pt x="590" y="448" on="1"/>
        <pt x="590" y="294" on="1"/>
        <pt x="266" y="294" on="1"/>
        <pt x="266" y="154" on="1"/>
        <pt x="635" y="154" on="1"/>
        <pt x="635" y="0" on="1"/>
        <pt x="66" y="0" on="1"/>
      </contour>
    </TTGlyph>
    <TTGlyph name="Edieresis.sc" xMin="64" yMin="0" xMax="587" yMax="807">
      <contour>
        <pt x="194" y="618" on="1"/>
        <pt x="140" y="618" on="0"/>
        <pt x="95" y="662" on="0"/>
        <pt x="95" y="713" on="1"/>
        <pt x="95" y="762" on="0"/>
        <pt x="140" y="807" on="0"/>
        <pt x="194" y="807" on="1"/>
        <pt x="249" y="807" on="0"/>
        <pt x="293" y="761" on="0"/>
        <pt x="293" y="713" on="1"/>
        <pt x="293" y="664" on="0"/>
        <pt x="249" y="618" on="0"/>
      </contour>
      <contour>
        <pt x="467" y="618" on="1"/>
        <pt x="413" y="618" on="0"/>
        <pt x="368" y="662" on="0"/>
        <pt x="368" y="713" on="1"/>
        <pt x="368" y="762" on="0"/>
        <pt x="413" y="807" on="0"/>
        <pt x="467" y="807" on="1"/>
        <pt x="521" y="807" on="0"/>
        <pt x="566" y="761" on="0"/>
        <pt x="566" y="713" on="1"/>
        <pt x="566" y="664" on="0"/>
        <pt x="521" y="618" on="0"/>
      </contour>
      <contour>
        <pt x="64" y="577" on="1"/>
        <pt x="579" y="577" on="1"/>
        <pt x="579" y="438" on="1"/>
        <pt x="253" y="438" on="1"/>
        <pt x="253" y="350" on="1"/>
        <pt x="546" y="350" on="1"/>
        <pt x="546" y="229" on="1"/>
        <pt x="253" y="229" on="1"/>
        <pt x="253" y="140" on="1"/>
        <pt x="587" y="140" on="1"/>
        <pt x="587" y="0" on="1"/>
        <pt x="64" y="0" on="1"/>
      </contour>
    </TTGlyph>
    <TTGlyph name="Edotaccent" xMin="66" yMin="0" xMax="635" yMax="1003">
      <contour>
        <pt x="340" y="799" on="1"/>
        <pt x="283" y="799" on="0"/>
        <pt x="235" y="847" on="0"/>
        <pt x="235" y="901" on="1"/>
        <pt x="235" y="955" on="0"/>
        <pt x="283" y="1003" on="0"/>
        <pt x="340" y="1003" on="1"/>
        <pt x="397" y="1003" on="0"/>
        <pt x="445" y="954" on="0"/>
        <pt x="445" y="901" on="1"/>
        <pt x="445" y="848" on="0"/>
        <pt x="397" y="799" on="0"/>
      </contour>
      <contour>
        <pt x="66" y="740" on="1"/>
        <pt x="625" y="740" on="1"/>
        <pt x="625" y="586" on="1"/>
        <pt x="266" y="586" on="1"/>
        <pt x="266" y="448" on="1"/>
        <pt x="590" y="448" on="1"/>
        <pt x="590" y="294" on="1"/>
        <pt x="266" y="294" on="1"/>
        <pt x="266" y="154" on="1"/>
        <pt x="635" y="154" on="1"/>
        <pt x="635" y="0" on="1"/>
        <pt x="66" y="0" on="1"/>
      </contour>
    </TTGlyph>
    <TTGlyph name="Edotaccent.sc" xMin="64" yMin="0" xMax="587" yMax="807">
      <contour>
        <pt x="315" y="619" on="1"/>
        <pt x="261" y="619" on="0"/>
        <pt x="216" y="662" on="0"/>
        <pt x="216" y="713" on="1"/>
        <pt x="216" y="762" on="0"/>
        <pt x="261" y="807" on="0"/>
        <pt x="315" y="807" on="1"/>
        <pt x="369" y="807" on="0"/>
        <pt x="414" y="761" on="0"/>
        <pt x="414" y="713" on="1"/>
        <pt x="414" y="665" on="0"/>
        <pt x="369" y="619" on="0"/>
      </contour>
      <contour>
        <pt x="64" y="577" on="1"/>
        <pt x="579" y="577" on="1"/>
        <pt x="579" y="438" on="1"/>
        <pt x="253" y="438" on="1"/>
        <pt x="253" y="350" on="1"/>
        <pt x="546" y="350" on="1"/>
        <pt x="546" y="229" on="1"/>
        <pt x="253" y="229" on="1"/>
        <pt x="253" y="140" on="1"/>
        <pt x="587" y="140" on="1"/>
        <pt x="587" y="0" on="1"/>
        <pt x="64" y="0" on="1"/>
      </contour>
    </TTGlyph>
    <TTGlyph name="Edotbelow" xMin="66" yMin="-213" xMax="635" yMax="740">
      <contour>
        <pt x="66" y="740" on="1"/>
        <pt x="625" y="740" on="1"/>
        <pt x="625" y="586" on="1"/>
        <pt x="266" y="586" on="1"/>
        <pt x="266" y="448" on="1"/>
        <pt x="590" y="448" on="1"/>
        <pt x="590" y="294" on="1"/>
        <pt x="266" y="294" on="1"/>
        <pt x="266" y="154" on="1"/>
        <pt x="635" y="154" on="1"/>
        <pt x="635" y="0" on="1"/>
        <pt x="66" y="0" on="1"/>
      </contour>
      <contour>
        <pt x="363" y="-213" on="1"/>
        <pt x="319" y="-213" on="0"/>
        <pt x="282" y="-177" on="0"/>
        <pt x="282" y="-135" on="1"/>
        <pt x="282" y="-93" on="0"/>
        <pt x="319" y="-56" on="0"/>
        <pt x="363" y="-56" on="1"/>
        <pt x="408" y="-56" on="0"/>
        <pt x="445" y="-95" on="0"/>
        <pt x="445" y="-135" on="1"/>
        <pt x="445" y="-175" on="0"/>
        <pt x="408" y="-213" on="0"/>
      </contour>
    </TTGlyph>
    <TTGlyph name="Edotbelow.sc" xMin="64" yMin="-175" xMax="587" yMax="577">
      <contour>
        <pt x="337" y="-175" on="1"/>
        <pt x="296" y="-175" on="0"/>
        <pt x="261" y="-142" on="0"/>
        <pt x="261" y="-105" on="1"/>
        <pt x="261" y="-68" on="0"/>
        <pt x="296" y="-35" on="0"/>
        <pt x="337" y="-35" on="1"/>
        <pt x="379" y="-35" on="0"/>
        <pt x="412" y="-70" on="0"/>
        <pt x="412" y="-105" on="1"/>
        <pt x="412" y="-140" on="0"/>
        <pt x="379" y="-175" on="0"/>
      </contour>
      <contour>
        <pt x="64" y="577" on="1"/>
        <pt x="579" y="577" on="1"/>
        <pt x="579" y="438" on="1"/>
        <pt x="253" y="438" on="1"/>
        <pt x="253" y="350" on="1"/>
        <pt x="546" y="350" on="1"/>
        <pt x="546" y="229" on="1"/>
        <pt x="253" y="229" on="1"/>
        <pt x="253" y="140" on="1"/>
        <pt x="587" y="140" on="1"/>
        <pt x="587" y="0" on="1"/>
        <pt x="64" y="0" on="1"/>
      </contour>
    </TTGlyph>
    <TTGlyph name="Egrave" xMin="66" yMin="0" xMax="635" yMax="992">
      <contour>
        <pt x="297" y="802" on="1"/>
        <pt x="173" y="992" on="1"/>
        <pt x="373" y="992" on="1"/>
        <pt x="437" y="813" on="1"/>
      </contour>
      <contour>
        <pt x="66" y="740" on="1"/>
        <pt x="625" y="740" on="1"/>
        <pt x="625" y="586" on="1"/>
        <pt x="266" y="586" on="1"/>
        <pt x="266" y="448" on="1"/>
        <pt x="590" y="448" on="1"/>
        <pt x="590" y="294" on="1"/>
        <pt x="266" y="294" on="1"/>
        <pt x="266" y="154" on="1"/>
        <pt x="635" y="154" on="1"/>
        <pt x="635" y="0" on="1"/>
        <pt x="66" y="0" on="1"/>
      </contour>
    </TTGlyph>
    <TTGlyph name="Egrave.sc" xMin="64" yMin="0" xMax="587" yMax="788">
      <contour>
        <pt x="64" y="577" on="1"/>
        <pt x="579" y="577" on="1"/>
        <pt x="579" y="438" on="1"/>
        <pt x="253" y="438" on="1"/>
        <pt x="253" y="350" on="1"/>
        <pt x="546" y="350" on="1"/>
        <pt x="546" y="229" on="1"/>
        <pt x="253" y="229" on="1"/>
        <pt x="253" y="140" on="1"/>
        <pt x="587" y="140" on="1"/>
        <pt x="587" y="0" on="1"/>
        <pt x="64" y="0" on="1"/>
      </contour>
      <contour>
        <pt x="162" y="788" on="1"/>
        <pt x="352" y="788" on="1"/>
        <pt x="408" y="635" on="1"/>
        <pt x="276" y="627" on="1"/>
      </contour>
    </TTGlyph>
    <TTGlyph name="Einvertedbreve" xMin="66" yMin="0" xMax="635" yMax="1001">
      <contour>
        <pt x="66" y="740" on="1"/>
        <pt x="625" y="740" on="1"/>
        <pt x="625" y="586" on="1"/>
        <pt x="266" y="586" on="1"/>
        <pt x="266" y="448" on="1"/>
        <pt x="590" y="448" on="1"/>
        <pt x="590" y="294" on="1"/>
        <pt x="266" y="294" on="1"/>
        <pt x="266" y="154" on="1"/>
        <pt x="635" y="154" on="1"/>
        <pt x="635" y="0" on="1"/>
        <pt x="66" y="0" on="1"/>
      </contour>
      <contour>
        <pt x="447" y="816" on="1"/>
        <pt x="447" y="862" on="0"/>
        <pt x="405" y="909" on="0"/>
        <pt x="347" y="909" on="1"/>
        <pt x="290" y="909" on="0"/>
        <pt x="248" y="862" on="0"/>
        <pt x="248" y="816" on="1"/>
        <pt x="119" y="816" on="1"/>
        <pt x="119" y="855" on="0"/>
        <pt x="143" y="923" on="0"/>
        <pt x="197" y="973" on="0"/>
        <pt x="284" y="1001" on="0"/>
        <pt x="347" y="1001" on="1"/>
        <pt x="410" y="1001" on="0"/>
        <pt x="497" y="974" on="0"/>
        <pt x="552" y="924" on="0"/>
        <pt x="576" y="856" on="0"/>
        <pt x="576" y="816" on="1"/>
      </contour>
    </TTGlyph>
    <TTGlyph name="Einvertedbreve.sc" xMin="64" yMin="0" xMax="587" yMax="792">
      <contour>
        <pt x="111" y="638" on="1"/>
        <pt x="111" y="670" on="0"/>
        <pt x="133" y="726" on="0"/>
        <pt x="182" y="768" on="0"/>
        <pt x="263" y="792" on="0"/>
        <pt x="323" y="792" on="1"/>
        <pt x="382" y="792" on="0"/>
        <pt x="463" y="769" on="0"/>
        <pt x="512" y="727" on="0"/>
        <pt x="534" y="671" on="0"/>
        <pt x="534" y="638" on="1"/>
        <pt x="413" y="638" on="1"/>
        <pt x="413" y="672" on="0"/>
        <pt x="376" y="708" on="0"/>
        <pt x="323" y="708" on="1"/>
        <pt x="270" y="708" on="0"/>
        <pt x="232" y="672" on="0"/>
        <pt x="232" y="638" on="1"/>
      </contour>
      <contour>
        <pt x="64" y="577" on="1"/>
        <pt x="579" y="577" on="1"/>
        <pt x="579" y="438" on="1"/>
        <pt x="253" y="438" on="1"/>
        <pt x="253" y="350" on="1"/>
        <pt x="546" y="350" on="1"/>
        <pt x="546" y="229" on="1"/>
        <pt x="253" y="229" on="1"/>
        <pt x="253" y="140" on="1"/>
        <pt x="587" y="140" on="1"/>
        <pt x="587" y="0" on="1"/>
        <pt x="64" y="0" on="1"/>
      </contour>
    </TTGlyph>
    <TTGlyph name="Emacron" xMin="66" yMin="0" xMax="635" yMax="969">
      <contour>
        <pt x="143" y="969" on="1"/>
        <pt x="557" y="969" on="1"/>
        <pt x="557" y="841" on="1"/>
        <pt x="143" y="841" on="1"/>
      </contour>
      <contour>
        <pt x="66" y="740" on="1"/>
        <pt x="625" y="740" on="1"/>
        <pt x="625" y="586" on="1"/>
        <pt x="266" y="586" on="1"/>
        <pt x="266" y="448" on="1"/>
        <pt x="590" y="448" on="1"/>
        <pt x="590" y="294" on="1"/>
        <pt x="266" y="294" on="1"/>
        <pt x="266" y="154" on="1"/>
        <pt x="635" y="154" on="1"/>
        <pt x="635" y="0" on="1"/>
        <pt x="66" y="0" on="1"/>
      </contour>
    </TTGlyph>
    <TTGlyph name="Emacron.sc" xMin="64" yMin="0" xMax="587" yMax="775">
      <contour>
        <pt x="64" y="577" on="1"/>
        <pt x="579" y="577" on="1"/>
        <pt x="579" y="438" on="1"/>
        <pt x="253" y="438" on="1"/>
        <pt x="253" y="350" on="1"/>
        <pt x="546" y="350" on="1"/>
        <pt x="546" y="229" on="1"/>
        <pt x="253" y="229" on="1"/>
        <pt x="253" y="140" on="1"/>
        <pt x="587" y="140" on="1"/>
        <pt x="587" y="0" on="1"/>
        <pt x="64" y="0" on="1"/>
      </contour>
      <contour>
        <pt x="133" y="775" on="1"/>
        <pt x="517" y="775" on="1"/>
        <pt x="517" y="656" on="1"/>
        <pt x="133" y="656" on="1"/>
      </contour>
    </TTGlyph>
    <TTGlyph name="Eng" xMin="66" yMin="-213" xMax="757" yMax="740">
      <contour>
        <pt x="493" y="-170" on="1"/>
        <pt x="525" y="-103" on="0"/>
        <pt x="557" y="-1" on="0"/>
        <pt x="563" y="50" on="1"/>
        <pt x="319" y="354" on="1"/>
        <pt x="252" y="447" on="1"/>
        <pt x="243" y="447" on="1"/>
        <pt x="243" y="0" on="1"/>
        <pt x="66" y="0" on="1"/>
        <pt x="66" y="740" on="1"/>
        <pt x="220" y="740" on="1"/>
        <pt x="512" y="378" on="1"/>
        <pt x="571" y="293" on="1"/>
        <pt x="581" y="293" on="1"/>
        <pt x="581" y="740" on="1"/>
        <pt x="757" y="740" on="1"/>
        <pt x="757" y="126" on="1"/>
        <pt x="757" y="95" on="0"/>
        <pt x="736" y="11" on="0"/>
        <pt x="700" y="-80" on="0"/>
        <pt x="651" y="-173" on="0"/>
        <pt x="623" y="-213" on="1"/>
      </contour>
    </TTGlyph>
    <TTGlyph name="Eng.sc" xMin="64" yMin="-173" xMax="678" yMax="577">
      <contour>
        <pt x="442" y="-132" on="1"/>
        <pt x="457" y="-103" on="0"/>
        <pt x="477" y="-57" on="0"/>
        <pt x="492" y="-18" on="0"/>
        <pt x="500" y="16" on="0"/>
        <pt x="503" y="33" on="1"/>
        <pt x="303" y="235" on="1"/>
        <pt x="240" y="311" on="1"/>
        <pt x="231" y="311" on="1"/>
        <pt x="231" y="0" on="1"/>
        <pt x="64" y="0" on="1"/>
        <pt x="64" y="577" on="1"/>
        <pt x="209" y="577" on="1"/>
        <pt x="447" y="332" on="1"/>
        <pt x="502" y="267" on="1"/>
        <pt x="511" y="267" on="1"/>
        <pt x="511" y="577" on="1"/>
        <pt x="678" y="577" on="1"/>
        <pt x="678" y="110" on="1"/>
        <pt x="678" y="82" on="0"/>
        <pt x="662" y="15" on="0"/>
        <pt x="633" y="-59" on="0"/>
        <pt x="591" y="-136" on="0"/>
        <pt x="565" y="-173" on="1"/>
      </contour>
    </TTGlyph>
    <TTGlyph name="Eogonek" xMin="66" yMin="-220" xMax="636" yMax="740">
      <contour>
        <pt x="66" y="740" on="1"/>
        <pt x="625" y="740" on="1"/>
        <pt x="625" y="586" on="1"/>
        <pt x="266" y="586" on="1"/>
        <pt x="266" y="448" on="1"/>
        <pt x="590" y="448" on="1"/>
        <pt x="590" y="294" on="1"/>
        <pt x="266" y="294" on="1"/>
        <pt x="266" y="154" on="1"/>
        <pt x="635" y="154" on="1"/>
        <pt x="635" y="-7" on="1"/>
        <pt x="567" y="-35" on="0"/>
        <pt x="514" y="-77" on="0"/>
        <pt x="514" y="-96" on="1"/>
        <pt x="514" y="-118" on="0"/>
        <pt x="546" y="-118" on="1"/>
        <pt x="560" y="-118" on="0"/>
        <pt x="613" y="-109" on="0"/>
        <pt x="636" y="-103" on="1"/>
        <pt x="636" y="-208" on="1"/>
        <pt x="594" y="-220" on="0"/>
        <pt x="544" y="-220" on="1"/>
        <pt x="470" y="-220" on="0"/>
        <pt x="390" y="-171" on="0"/>
        <pt x="390" y="-125" on="1"/>
        <pt x="390" y="-91" on="0"/>
        <pt x="434" y="-25" on="0"/>
        <pt x="475" y="0" on="1"/>
        <pt x="66" y="0" on="1"/>
      </contour>
    </TTGlyph>
    <TTGlyph name="Eogonek.sc" xMin="64" yMin="-172" xMax="589" yMax="577">
      <contour>
        <pt x="504" y="-172" on="1"/>
        <pt x="431" y="-172" on="0"/>
        <pt x="361" y="-131" on="0"/>
        <pt x="361" y="-93" on="1"/>
        <pt x="361" y="-64" on="0"/>
        <pt x="399" y="-15" on="0"/>
        <pt x="431" y="0" on="1"/>
        <pt x="64" y="0" on="1"/>
        <pt x="64" y="577" on="1"/>
        <pt x="579" y="577" on="1"/>
        <pt x="579" y="438" on="1"/>
        <pt x="253" y="438" on="1"/>
        <pt x="253" y="350" on="1"/>
        <pt x="546" y="350" on="1"/>
        <pt x="546" y="229" on="1"/>
        <pt x="253" y="229" on="1"/>
        <pt x="253" y="140" on="1"/>
        <pt x="587" y="140" on="1"/>
        <pt x="587" y="-3" on="1"/>
        <pt x="551" y="-15" on="0"/>
        <pt x="508" y="-34" on="0"/>
        <pt x="485" y="-49" on="0"/>
        <pt x="478" y="-60" on="0"/>
        <pt x="478" y="-64" on="1"/>
        <pt x="478" y="-75" on="0"/>
        <pt x="503" y="-75" on="1"/>
        <pt x="510" y="-75" on="0"/>
        <pt x="533" y="-73" on="0"/>
        <pt x="557" y="-70" on="0"/>
        <pt x="581" y="-67" on="0"/>
        <pt x="589" y="-65" on="1"/>
        <pt x="589" y="-162" on="1"/>
        <pt x="567" y="-167" on="0"/>
        <pt x="524" y="-172" on="0"/>
      </contour>
    </TTGlyph>
    <TTGlyph name="Eth" xMin="3" yMin="-11" xMax="778" yMax="750">
      <contour>
        <pt x="3" y="448" on="1"/>
        <pt x="91" y="448" on="1"/>
        <pt x="91" y="738" on="1"/>
        <pt x="179" y="744" on="0"/>
        <pt x="308" y="750" on="0"/>
        <pt x="356" y="750" on="1"/>
        <pt x="467" y="750" on="0"/>
        <pt x="626" y="706" on="0"/>
        <pt x="729" y="613" on="0"/>
        <pt x="778" y="469" on="0"/>
        <pt x="778" y="369" on="1"/>
        <pt x="778" y="267" on="0"/>
        <pt x="727" y="123" on="0"/>
        <pt x="616" y="31" on="0"/>
        <pt x="441" y="-11" on="0"/>
        <pt x="317" y="-11" on="1"/>
        <pt x="256" y="-11" on="0"/>
        <pt x="135" y="-4" on="0"/>
        <pt x="91" y="2" on="1"/>
        <pt x="91" y="299" on="1"/>
        <pt x="3" y="299" on="1"/>
      </contour>
      <contour>
        <pt x="395" y="146" on="1"/>
        <pt x="446" y="146" on="0"/>
        <pt x="515" y="168" on="0"/>
        <pt x="556" y="220" on="0"/>
        <pt x="574" y="305" on="0"/>
        <pt x="574" y="369" on="1"/>
        <pt x="574" y="432" on="0"/>
        <pt x="555" y="517" on="0"/>
        <pt x="511" y="570" on="0"/>
        <pt x="439" y="592" on="0"/>
        <pt x="386" y="592" on="1"/>
        <pt x="366" y="592" on="0"/>
        <pt x="321" y="590" on="0"/>
        <pt x="290" y="587" on="1"/>
        <pt x="290" y="448" on="1"/>
        <pt x="398" y="448" on="1"/>
        <pt x="398" y="299" on="1"/>
        <pt x="290" y="299" on="1"/>
        <pt x="290" y="154" on="1"/>
        <pt x="316" y="150" on="0"/>
        <pt x="369" y="146" on="0"/>
      </contour>
    </TTGlyph>
    <TTGlyph name="Eth.sc" xMin="10" yMin="-8" xMax="719" yMax="585">
      <contour>
        <pt x="10" y="356" on="1"/>
        <pt x="88" y="356" on="1"/>
        <pt x="88" y="576" on="1"/>
        <pt x="171" y="581" on="0"/>
        <pt x="290" y="585" on="0"/>
        <pt x="335" y="585" on="1"/>
        <pt x="435" y="585" on="0"/>
        <pt x="581" y="551" on="0"/>
        <pt x="674" y="478" on="0"/>
        <pt x="719" y="365" on="0"/>
        <pt x="719" y="287" on="1"/>
        <pt x="719" y="207" on="0"/>
        <pt x="672" y="94" on="0"/>
        <pt x="570" y="24" on="0"/>
        <pt x="409" y="-8" on="0"/>
        <pt x="295" y="-8" on="1"/>
        <pt x="267" y="-8" on="0"/>
        <pt x="210" y="-7" on="0"/>
        <pt x="156" y="-4" on="0"/>
        <pt x="107" y="0" on="0"/>
        <pt x="88" y="2" on="1"/>
        <pt x="88" y="226" on="1"/>
        <pt x="10" y="226" on="1"/>
      </contour>
      <contour>
        <pt x="371" y="139" on="1"/>
        <pt x="416" y="139" on="0"/>
        <pt x="475" y="152" on="0"/>
        <pt x="511" y="185" on="0"/>
        <pt x="526" y="243" on="0"/>
        <pt x="526" y="288" on="1"/>
        <pt x="526" y="331" on="0"/>
        <pt x="510" y="388" on="0"/>
        <pt x="472" y="423" on="0"/>
        <pt x="409" y="437" on="0"/>
        <pt x="363" y="437" on="1"/>
        <pt x="346" y="437" on="0"/>
        <pt x="306" y="436" on="0"/>
        <pt x="276" y="434" on="1"/>
        <pt x="276" y="356" on="1"/>
        <pt x="369" y="356" on="1"/>
        <pt x="369" y="226" on="1"/>
        <pt x="276" y="226" on="1"/>
        <pt x="276" y="145" on="1"/>
        <pt x="298" y="142" on="0"/>
        <pt x="348" y="139" on="0"/>
      </contour>
    </TTGlyph>
    <TTGlyph name="Etilde" xMin="66" yMin="0" xMax="635" yMax="987">
      <contour>
        <pt x="108" y="855" on="1"/>
        <pt x="143" y="921" on="0"/>
        <pt x="233" y="987" on="0"/>
        <pt x="275" y="987" on="1"/>
        <pt x="301" y="987" on="0"/>
        <pt x="352" y="975" on="0"/>
        <pt x="403" y="962" on="0"/>
        <pt x="453" y="950" on="0"/>
        <pt x="479" y="950" on="1"/>
        <pt x="502" y="950" on="0"/>
        <pt x="547" y="965" on="0"/>
        <pt x="576" y="987" on="1"/>
        <pt x="599" y="955" on="1"/>
        <pt x="564" y="888" on="0"/>
        <pt x="473" y="822" on="0"/>
        <pt x="432" y="822" on="1"/>
        <pt x="406" y="822" on="0"/>
        <pt x="355" y="834" on="0"/>
        <pt x="304" y="847" on="0"/>
        <pt x="253" y="859" on="0"/>
        <pt x="228" y="859" on="1"/>
        <pt x="204" y="859" on="0"/>
        <pt x="159" y="845" on="0"/>
        <pt x="131" y="823" on="1"/>
      </contour>
      <contour>
        <pt x="66" y="740" on="1"/>
        <pt x="625" y="740" on="1"/>
        <pt x="625" y="586" on="1"/>
        <pt x="266" y="586" on="1"/>
        <pt x="266" y="448" on="1"/>
        <pt x="590" y="448" on="1"/>
        <pt x="590" y="294" on="1"/>
        <pt x="266" y="294" on="1"/>
        <pt x="266" y="154" on="1"/>
        <pt x="635" y="154" on="1"/>
        <pt x="635" y="0" on="1"/>
        <pt x="66" y="0" on="1"/>
      </contour>
    </TTGlyph>
    <TTGlyph name="Etilde.sc" xMin="64" yMin="0" xMax="587" yMax="788">
      <contour>
        <pt x="100" y="667" on="1"/>
        <pt x="132" y="727" on="0"/>
        <pt x="216" y="787" on="0"/>
        <pt x="255" y="787" on="1"/>
        <pt x="279" y="787" on="0"/>
        <pt x="326" y="779" on="0"/>
        <pt x="373" y="768" on="0"/>
        <pt x="420" y="760" on="0"/>
        <pt x="444" y="760" on="1"/>
        <pt x="465" y="760" on="0"/>
        <pt x="505" y="770" on="0"/>
        <pt x="532" y="788" on="1"/>
        <pt x="553" y="760" on="1"/>
        <pt x="520" y="699" on="0"/>
        <pt x="436" y="640" on="0"/>
        <pt x="398" y="640" on="1"/>
        <pt x="374" y="640" on="0"/>
        <pt x="327" y="649" on="0"/>
        <pt x="280" y="659" on="0"/>
        <pt x="233" y="668" on="0"/>
        <pt x="209" y="668" on="1"/>
        <pt x="187" y="668" on="0"/>
        <pt x="147" y="657" on="0"/>
        <pt x="121" y="640" on="1"/>
      </contour>
      <contour>
        <pt x="64" y="577" on="1"/>
        <pt x="579" y="577" on="1"/>
        <pt x="579" y="438" on="1"/>
        <pt x="253" y="438" on="1"/>
        <pt x="253" y="350" on="1"/>
        <pt x="546" y="350" on="1"/>
        <pt x="546" y="229" on="1"/>
        <pt x="253" y="229" on="1"/>
        <pt x="253" y="140" on="1"/>
        <pt x="587" y="140" on="1"/>
        <pt x="587" y="0" on="1"/>
        <pt x="64" y="0" on="1"/>
      </contour>
    </TTGlyph>
    <TTGlyph name="Euro" xMin="33" yMin="-10" xMax="680" yMax="750">
      <contour>
        <pt x="33" y="508" on="1"/>
        <pt x="120" y="508" on="1"/>
        <pt x="151" y="628" on="0"/>
        <pt x="336" y="750" on="0"/>
        <pt x="500" y="750" on="1"/>
        <pt x="562" y="750" on="0"/>
        <pt x="652" y="736" on="0"/>
        <pt x="680" y="730" on="1"/>
        <pt x="635" y="574" on="1"/>
        <pt x="620" y="577" on="0"/>
        <pt x="563" y="583" on="0"/>
        <pt x="540" y="583" on="1"/>
        <pt x="492" y="583" on="0"/>
        <pt x="419" y="576" on="0"/>
        <pt x="367" y="559" on="0"/>
        <pt x="334" y="530" on="0"/>
        <pt x="324" y="508" on="1"/>
        <pt x="608" y="508" on="1"/>
        <pt x="588" y="400" on="1"/>
        <pt x="305" y="400" on="1"/>
        <pt x="305" y="339" on="1"/>
        <pt x="575" y="339" on="1"/>
        <pt x="555" y="231" on="1"/>
        <pt x="324" y="231" on="1"/>
        <pt x="334" y="209" on="0"/>
        <pt x="367" y="180" on="0"/>
        <pt x="420" y="163" on="0"/>
        <pt x="492" y="156" on="0"/>
        <pt x="541" y="156" on="1"/>
        <pt x="577" y="156" on="0"/>
        <pt x="642" y="162" on="0"/>
        <pt x="677" y="170" on="1"/>
        <pt x="677" y="8" on="1"/>
        <pt x="650" y="0" on="0"/>
        <pt x="561" y="-10" on="0"/>
        <pt x="512" y="-10" on="1"/>
        <pt x="340" y="-10" on="0"/>
        <pt x="151" y="111" on="0"/>
        <pt x="120" y="231" on="1"/>
        <pt x="33" y="231" on="1"/>
        <pt x="33" y="339" on="1"/>
        <pt x="105" y="339" on="1"/>
        <pt x="105" y="400" on="1"/>
        <pt x="33" y="400" on="1"/>
      </contour>
    </TTGlyph>
    <TTGlyph name="Euro.tab" xMin="5" yMin="-10" xMax="625" yMax="750">
      <contour>
        <pt x="5" y="508" on="1"/>
        <pt x="88" y="508" on="1"/>
        <pt x="117" y="628" on="0"/>
        <pt x="294" y="750" on="0"/>
        <pt x="451" y="750" on="1"/>
        <pt x="511" y="750" on="0"/>
        <pt x="598" y="736" on="0"/>
        <pt x="625" y="730" on="1"/>
        <pt x="582" y="574" on="1"/>
        <pt x="567" y="577" on="0"/>
        <pt x="511" y="583" on="0"/>
        <pt x="489" y="583" on="1"/>
        <pt x="403" y="583" on="0"/>
        <pt x="311" y="551" on="0"/>
        <pt x="292" y="508" on="1"/>
        <pt x="558" y="508" on="1"/>
        <pt x="540" y="400" on="1"/>
        <pt x="270" y="400" on="1"/>
        <pt x="270" y="339" on="1"/>
        <pt x="527" y="339" on="1"/>
        <pt x="508" y="231" on="1"/>
        <pt x="291" y="231" on="1"/>
        <pt x="311" y="189" on="0"/>
        <pt x="405" y="156" on="0"/>
        <pt x="491" y="156" on="1"/>
        <pt x="526" y="156" on="0"/>
        <pt x="590" y="162" on="0"/>
        <pt x="624" y="170" on="1"/>
        <pt x="624" y="8" on="1"/>
        <pt x="597" y="0" on="0"/>
        <pt x="510" y="-10" on="0"/>
        <pt x="462" y="-10" on="1"/>
        <pt x="298" y="-10" on="0"/>
        <pt x="117" y="112" on="0"/>
        <pt x="88" y="231" on="1"/>
        <pt x="5" y="231" on="1"/>
        <pt x="5" y="339" on="1"/>
        <pt x="73" y="339" on="1"/>
        <pt x="73" y="400" on="1"/>
        <pt x="5" y="400" on="1"/>
      </contour>
    </TTGlyph>
    <TTGlyph name="F" xMin="66" yMin="0" xMax="623" yMax="740">
      <contour>
        <pt x="66" y="740" on="1"/>
        <pt x="623" y="740" on="1"/>
        <pt x="623" y="586" on="1"/>
        <pt x="266" y="586" on="1"/>
        <pt x="266" y="424" on="1"/>
        <pt x="586" y="424" on="1"/>
        <pt x="586" y="270" on="1"/>
        <pt x="266" y="270" on="1"/>
        <pt x="266" y="0" on="1"/>
        <pt x="66" y="0" on="1"/>
      </contour>
    </TTGlyph>
    <TTGlyph name="F.sc" xMin="64" yMin="0" xMax="576" yMax="577">
      <contour>
        <pt x="64" y="577" on="1"/>
        <pt x="576" y="577" on="1"/>
        <pt x="576" y="434" on="1"/>
        <pt x="253" y="434" on="1"/>
        <pt x="253" y="330" on="1"/>
        <pt x="543" y="330" on="1"/>
        <pt x="543" y="199" on="1"/>
        <pt x="253" y="199" on="1"/>
        <pt x="253" y="0" on="1"/>
        <pt x="64" y="0" on="1"/>
      </contour>
    </TTGlyph>
    <TTGlyph name="F_B.sc" xMin="64" yMin="-8" xMax="1244" yMax="585">
      <contour>
        <pt x="64" y="577" on="1"/>
        <pt x="576" y="577" on="1"/>
        <pt x="576" y="434" on="1"/>
        <pt x="253" y="434" on="1"/>
        <pt x="253" y="330" on="1"/>
        <pt x="543" y="330" on="1"/>
        <pt x="543" y="199" on="1"/>
        <pt x="253" y="199" on="1"/>
        <pt x="253" y="0" on="1"/>
        <pt x="64" y="0" on="1"/>
      </contour>
      <contour>
        <pt x="949" y="-8" on="1"/>
        <pt x="877" y="-8" on="0"/>
        <pt x="737" y="-2" on="0"/>
        <pt x="659" y="4" on="1"/>
        <pt x="659" y="573" on="1"/>
        <pt x="731" y="579" on="0"/>
        <pt x="857" y="585" on="0"/>
        <pt x="920" y="585" on="1"/>
        <pt x="1078" y="585" on="0"/>
        <pt x="1222" y="505" on="0"/>
        <pt x="1222" y="418" on="1"/>
        <pt x="1222" y="328" on="0"/>
        <pt x="1107" y="299" on="1"/>
        <pt x="1107" y="296" on="1"/>
        <pt x="1173" y="285" on="0"/>
        <pt x="1244" y="216" on="0"/>
        <pt x="1244" y="161" on="1"/>
        <pt x="1244" y="73" on="0"/>
        <pt x="1101" y="-8" on="0"/>
      </contour>
      <contour>
        <pt x="945" y="118" on="1"/>
        <pt x="1058" y="118" on="0"/>
        <pt x="1058" y="180" on="1"/>
        <pt x="1058" y="212" on="0"/>
        <pt x="1007" y="237" on="0"/>
        <pt x="946" y="237" on="1"/>
        <pt x="839" y="237" on="1"/>
        <pt x="839" y="120" on="1"/>
        <pt x="845" y="119" on="0"/>
        <pt x="859" y="118" on="0"/>
        <pt x="881" y="118" on="0"/>
        <pt x="917" y="118" on="0"/>
      </contour>
      <contour>
        <pt x="931" y="347" on="1"/>
        <pt x="990" y="347" on="0"/>
        <pt x="1037" y="372" on="0"/>
        <pt x="1037" y="404" on="1"/>
        <pt x="1037" y="435" on="0"/>
        <pt x="989" y="459" on="0"/>
        <pt x="930" y="459" on="1"/>
        <pt x="904" y="459" on="0"/>
        <pt x="858" y="458" on="0"/>
        <pt x="839" y="455" on="1"/>
        <pt x="839" y="347" on="1"/>
      </contour>
    </TTGlyph>
    <TTGlyph name="F_F.sc" xMin="64" yMin="0" xMax="1171" yMax="577">
      <contour>
        <pt x="64" y="577" on="1"/>
        <pt x="576" y="577" on="1"/>
        <pt x="576" y="434" on="1"/>
        <pt x="253" y="434" on="1"/>
        <pt x="253" y="330" on="1"/>
        <pt x="543" y="330" on="1"/>
        <pt x="543" y="199" on="1"/>
        <pt x="253" y="199" on="1"/>
        <pt x="253" y="0" on="1"/>
        <pt x="64" y="0" on="1"/>
      </contour>
      <contour>
        <pt x="659" y="577" on="1"/>
        <pt x="1171" y="577" on="1"/>
        <pt x="1171" y="434" on="1"/>
        <pt x="848" y="434" on="1"/>
        <pt x="848" y="330" on="1"/>
        <pt x="1138" y="330" on="1"/>
        <pt x="1138" y="199" on="1"/>
        <pt x="848" y="199" on="1"/>
        <pt x="848" y="0" on="1"/>
        <pt x="659" y="0" on="1"/>
      </contour>
    </TTGlyph>
    <TTGlyph name="F_F_B.sc" xMin="64" yMin="-8" xMax="1838" yMax="585">
      <contour>
        <pt x="64" y="577" on="1"/>
        <pt x="576" y="577" on="1"/>
        <pt x="576" y="434" on="1"/>
        <pt x="253" y="434" on="1"/>
        <pt x="253" y="330" on="1"/>
        <pt x="543" y="330" on="1"/>
        <pt x="543" y="199" on="1"/>
        <pt x="253" y="199" on="1"/>
        <pt x="253" y="0" on="1"/>
        <pt x="64" y="0" on="1"/>
      </contour>
      <contour>
        <pt x="659" y="577" on="1"/>
        <pt x="1171" y="577" on="1"/>
        <pt x="1171" y="434" on="1"/>
        <pt x="848" y="434" on="1"/>
        <pt x="848" y="330" on="1"/>
        <pt x="1138" y="330" on="1"/>
        <pt x="1138" y="199" on="1"/>
        <pt x="848" y="199" on="1"/>
        <pt x="848" y="0" on="1"/>
        <pt x="659" y="0" on="1"/>
      </contour>
      <contour>
        <pt x="1543" y="-8" on="1"/>
        <pt x="1471" y="-8" on="0"/>
        <pt x="1331" y="-2" on="0"/>
        <pt x="1253" y="4" on="1"/>
        <pt x="1253" y="573" on="1"/>
        <pt x="1325" y="579" on="0"/>
        <pt x="1451" y="585" on="0"/>
        <pt x="1514" y="585" on="1"/>
        <pt x="1672" y="585" on="0"/>
        <pt x="1816" y="505" on="0"/>
        <pt x="1816" y="418" on="1"/>
        <pt x="1816" y="328" on="0"/>
        <pt x="1701" y="299" on="1"/>
        <pt x="1701" y="296" on="1"/>
        <pt x="1767" y="285" on="0"/>
        <pt x="1838" y="216" on="0"/>
        <pt x="1838" y="161" on="1"/>
        <pt x="1838" y="73" on="0"/>
        <pt x="1695" y="-8" on="0"/>
      </contour>
      <contour>
        <pt x="1539" y="118" on="1"/>
        <pt x="1652" y="118" on="0"/>
        <pt x="1652" y="180" on="1"/>
        <pt x="1652" y="212" on="0"/>
        <pt x="1601" y="237" on="0"/>
        <pt x="1540" y="237" on="1"/>
        <pt x="1433" y="237" on="1"/>
        <pt x="1433" y="120" on="1"/>
        <pt x="1439" y="119" on="0"/>
        <pt x="1453" y="118" on="0"/>
        <pt x="1475" y="118" on="0"/>
        <pt x="1511" y="118" on="0"/>
      </contour>
      <contour>
        <pt x="1525" y="347" on="1"/>
        <pt x="1584" y="347" on="0"/>
        <pt x="1631" y="372" on="0"/>
        <pt x="1631" y="404" on="1"/>
        <pt x="1631" y="435" on="0"/>
        <pt x="1583" y="459" on="0"/>
        <pt x="1524" y="459" on="1"/>
        <pt x="1498" y="459" on="0"/>
        <pt x="1452" y="458" on="0"/>
        <pt x="1433" y="455" on="1"/>
        <pt x="1433" y="347" on="1"/>
      </contour>
    </TTGlyph>
    <TTGlyph name="F_F_H.sc" xMin="64" yMin="0" xMax="1895" yMax="577">
      <contour>
        <pt x="64" y="577" on="1"/>
        <pt x="576" y="577" on="1"/>
        <pt x="576" y="434" on="1"/>
        <pt x="253" y="434" on="1"/>
        <pt x="253" y="330" on="1"/>
        <pt x="543" y="330" on="1"/>
        <pt x="543" y="199" on="1"/>
        <pt x="253" y="199" on="1"/>
        <pt x="253" y="0" on="1"/>
        <pt x="64" y="0" on="1"/>
      </contour>
      <contour>
        <pt x="659" y="577" on="1"/>
        <pt x="1171" y="577" on="1"/>
        <pt x="1171" y="434" on="1"/>
        <pt x="848" y="434" on="1"/>
        <pt x="848" y="330" on="1"/>
        <pt x="1138" y="330" on="1"/>
        <pt x="1138" y="199" on="1"/>
        <pt x="848" y="199" on="1"/>
        <pt x="848" y="0" on="1"/>
        <pt x="659" y="0" on="1"/>
      </contour>
      <contour>
        <pt x="1253" y="577" on="1"/>
        <pt x="1442" y="577" on="1"/>
        <pt x="1442" y="368" on="1"/>
        <pt x="1706" y="368" on="1"/>
        <pt x="1706" y="577" on="1"/>
        <pt x="1895" y="577" on="1"/>
        <pt x="1895" y="0" on="1"/>
        <pt x="1706" y="0" on="1"/>
        <pt x="1706" y="224" on="1"/>
        <pt x="1442" y="224" on="1"/>
        <pt x="1442" y="0" on="1"/>
        <pt x="1253" y="0" on="1"/>
      </contour>
    </TTGlyph>
    <TTGlyph name="F_F_I.sc" xMin="64" yMin="0" xMax="1442" yMax="577">
      <contour>
        <pt x="64" y="577" on="1"/>
        <pt x="576" y="577" on="1"/>
        <pt x="576" y="434" on="1"/>
        <pt x="253" y="434" on="1"/>
        <pt x="253" y="330" on="1"/>
        <pt x="543" y="330" on="1"/>
        <pt x="543" y="199" on="1"/>
        <pt x="253" y="199" on="1"/>
        <pt x="253" y="0" on="1"/>
        <pt x="64" y="0" on="1"/>
      </contour>
      <contour>
        <pt x="659" y="577" on="1"/>
        <pt x="1171" y="577" on="1"/>
        <pt x="1171" y="434" on="1"/>
        <pt x="848" y="434" on="1"/>
        <pt x="848" y="330" on="1"/>
        <pt x="1138" y="330" on="1"/>
        <pt x="1138" y="199" on="1"/>
        <pt x="848" y="199" on="1"/>
        <pt x="848" y="0" on="1"/>
        <pt x="659" y="0" on="1"/>
      </contour>
      <contour>
        <pt x="1253" y="577" on="1"/>
        <pt x="1442" y="577" on="1"/>
        <pt x="1442" y="0" on="1"/>
        <pt x="1253" y="0" on="1"/>
      </contour>
    </TTGlyph>
    <TTGlyph name="F_F_J.sc" xMin="64" yMin="-173" xMax="1452" yMax="577">
      <contour>
        <pt x="64" y="577" on="1"/>
        <pt x="576" y="577" on="1"/>
        <pt x="576" y="434" on="1"/>
        <pt x="253" y="434" on="1"/>
        <pt x="253" y="330" on="1"/>
        <pt x="543" y="330" on="1"/>
        <pt x="543" y="199" on="1"/>
        <pt x="253" y="199" on="1"/>
        <pt x="253" y="0" on="1"/>
        <pt x="64" y="0" on="1"/>
      </contour>
      <contour>
        <pt x="659" y="577" on="1"/>
        <pt x="1171" y="577" on="1"/>
        <pt x="1171" y="434" on="1"/>
        <pt x="848" y="434" on="1"/>
        <pt x="848" y="330" on="1"/>
        <pt x="1138" y="330" on="1"/>
        <pt x="1138" y="199" on="1"/>
        <pt x="848" y="199" on="1"/>
        <pt x="848" y="0" on="1"/>
        <pt x="659" y="0" on="1"/>
      </contour>
      <contour>
        <pt x="1196" y="-122" on="1"/>
        <pt x="1215" y="-83" on="0"/>
        <pt x="1241" y="-16" on="0"/>
        <pt x="1256" y="49" on="0"/>
        <pt x="1263" y="117" on="0"/>
        <pt x="1263" y="158" on="1"/>
        <pt x="1263" y="577" on="1"/>
        <pt x="1452" y="577" on="1"/>
        <pt x="1452" y="144" on="1"/>
        <pt x="1452" y="102" on="0"/>
        <pt x="1438" y="27" on="0"/>
        <pt x="1406" y="-48" on="0"/>
        <pt x="1354" y="-127" on="0"/>
        <pt x="1316" y="-173" on="1"/>
      </contour>
    </TTGlyph>
    <TTGlyph name="F_F_K.sc" xMin="64" yMin="0" xMax="1889" yMax="577">
      <contour>
        <pt x="64" y="577" on="1"/>
        <pt x="576" y="577" on="1"/>
        <pt x="576" y="434" on="1"/>
        <pt x="253" y="434" on="1"/>
        <pt x="253" y="330" on="1"/>
        <pt x="543" y="330" on="1"/>
        <pt x="543" y="199" on="1"/>
        <pt x="253" y="199" on="1"/>
        <pt x="253" y="0" on="1"/>
        <pt x="64" y="0" on="1"/>
      </contour>
      <contour>
        <pt x="659" y="577" on="1"/>
        <pt x="1171" y="577" on="1"/>
        <pt x="1171" y="434" on="1"/>
        <pt x="848" y="434" on="1"/>
        <pt x="848" y="330" on="1"/>
        <pt x="1138" y="330" on="1"/>
        <pt x="1138" y="199" on="1"/>
        <pt x="848" y="199" on="1"/>
        <pt x="848" y="0" on="1"/>
        <pt x="659" y="0" on="1"/>
      </contour>
      <contour>
        <pt x="1253" y="577" on="1"/>
        <pt x="1442" y="577" on="1"/>
        <pt x="1442" y="361" on="1"/>
        <pt x="1523" y="361" on="1"/>
        <pt x="1663" y="577" on="1"/>
        <pt x="1873" y="577" on="1"/>
        <pt x="1699" y="327" on="1"/>
        <pt x="1647" y="306" on="1"/>
        <pt x="1647" y="299" on="1"/>
        <pt x="1702" y="277" on="1"/>
        <pt x="1889" y="0" on="1"/>
        <pt x="1679" y="0" on="1"/>
        <pt x="1536" y="218" on="1"/>
        <pt x="1442" y="218" on="1"/>
        <pt x="1442" y="0" on="1"/>
        <pt x="1253" y="0" on="1"/>
      </contour>
    </TTGlyph>
    <TTGlyph name="F_F_L.sc" xMin="64" yMin="0" xMax="1723" yMax="577">
      <contour>
        <pt x="1253" y="577" on="1"/>
        <pt x="1442" y="577" on="1"/>
        <pt x="1442" y="143" on="1"/>
        <pt x="1723" y="143" on="1"/>
        <pt x="1723" y="0" on="1"/>
        <pt x="1253" y="0" on="1"/>
      </contour>
      <contour>
        <pt x="64" y="577" on="1"/>
        <pt x="576" y="577" on="1"/>
        <pt x="576" y="434" on="1"/>
        <pt x="253" y="434" on="1"/>
        <pt x="253" y="330" on="1"/>
        <pt x="543" y="330" on="1"/>
        <pt x="543" y="199" on="1"/>
        <pt x="253" y="199" on="1"/>
        <pt x="253" y="0" on="1"/>
        <pt x="64" y="0" on="1"/>
      </contour>
      <contour>
        <pt x="659" y="577" on="1"/>
        <pt x="1171" y="577" on="1"/>
        <pt x="1171" y="434" on="1"/>
        <pt x="848" y="434" on="1"/>
        <pt x="848" y="330" on="1"/>
        <pt x="1138" y="330" on="1"/>
        <pt x="1138" y="199" on="1"/>
        <pt x="848" y="199" on="1"/>
        <pt x="848" y="0" on="1"/>
        <pt x="659" y="0" on="1"/>
      </contour>
    </TTGlyph>
    <TTGlyph name="F_F_T.sc" xMin="64" yMin="0" xMax="1748" yMax="577">
      <contour>
        <pt x="1373" y="433" on="1"/>
        <pt x="1186" y="433" on="1"/>
        <pt x="1186" y="577" on="1"/>
        <pt x="1748" y="577" on="1"/>
        <pt x="1748" y="433" on="1"/>
        <pt x="1561" y="433" on="1"/>
        <pt x="1561" y="0" on="1"/>
        <pt x="1373" y="0" on="1"/>
      </contour>
      <contour>
        <pt x="64" y="577" on="1"/>
        <pt x="576" y="577" on="1"/>
        <pt x="576" y="434" on="1"/>
        <pt x="253" y="434" on="1"/>
        <pt x="253" y="330" on="1"/>
        <pt x="543" y="330" on="1"/>
        <pt x="543" y="199" on="1"/>
        <pt x="253" y="199" on="1"/>
        <pt x="253" y="0" on="1"/>
        <pt x="64" y="0" on="1"/>
      </contour>
      <contour>
        <pt x="659" y="577" on="1"/>
        <pt x="1171" y="577" on="1"/>
        <pt x="1171" y="434" on="1"/>
        <pt x="848" y="434" on="1"/>
        <pt x="848" y="330" on="1"/>
        <pt x="1138" y="330" on="1"/>
        <pt x="1138" y="199" on="1"/>
        <pt x="848" y="199" on="1"/>
        <pt x="848" y="0" on="1"/>
        <pt x="659" y="0" on="1"/>
      </contour>
    </TTGlyph>
    <TTGlyph name="F_H.sc" xMin="64" yMin="0" xMax="1301" yMax="577">
      <contour>
        <pt x="64" y="577" on="1"/>
        <pt x="576" y="577" on="1"/>
        <pt x="576" y="434" on="1"/>
        <pt x="253" y="434" on="1"/>
        <pt x="253" y="330" on="1"/>
        <pt x="543" y="330" on="1"/>
        <pt x="543" y="199" on="1"/>
        <pt x="253" y="199" on="1"/>
        <pt x="253" y="0" on="1"/>
        <pt x="64" y="0" on="1"/>
      </contour>
      <contour>
        <pt x="659" y="577" on="1"/>
        <pt x="848" y="577" on="1"/>
        <pt x="848" y="368" on="1"/>
        <pt x="1112" y="368" on="1"/>
        <pt x="1112" y="577" on="1"/>
        <pt x="1301" y="577" on="1"/>
        <pt x="1301" y="0" on="1"/>
        <pt x="1112" y="0" on="1"/>
        <pt x="1112" y="224" on="1"/>
        <pt x="848" y="224" on="1"/>
        <pt x="848" y="0" on="1"/>
        <pt x="659" y="0" on="1"/>
      </contour>
    </TTGlyph>
    <TTGlyph name="F_I.sc" xMin="64" yMin="0" xMax="848" yMax="577">
      <contour>
        <pt x="64" y="577" on="1"/>
        <pt x="576" y="577" on="1"/>
        <pt x="576" y="434" on="1"/>
        <pt x="253" y="434" on="1"/>
        <pt x="253" y="330" on="1"/>
        <pt x="543" y="330" on="1"/>
        <pt x="543" y="199" on="1"/>
        <pt x="253" y="199" on="1"/>
        <pt x="253" y="0" on="1"/>
        <pt x="64" y="0" on="1"/>
      </contour>
      <contour>
        <pt x="659" y="577" on="1"/>
        <pt x="848" y="577" on="1"/>
        <pt x="848" y="0" on="1"/>
        <pt x="659" y="0" on="1"/>
      </contour>
    </TTGlyph>
    <TTGlyph name="F_J.sc" xMin="64" yMin="-173" xMax="857" yMax="577">
      <contour>
        <pt x="64" y="577" on="1"/>
        <pt x="576" y="577" on="1"/>
        <pt x="576" y="434" on="1"/>
        <pt x="253" y="434" on="1"/>
        <pt x="253" y="330" on="1"/>
        <pt x="543" y="330" on="1"/>
        <pt x="543" y="199" on="1"/>
        <pt x="253" y="199" on="1"/>
        <pt x="253" y="0" on="1"/>
        <pt x="64" y="0" on="1"/>
      </contour>
      <contour>
        <pt x="601" y="-122" on="1"/>
        <pt x="620" y="-83" on="0"/>
        <pt x="646" y="-16" on="0"/>
        <pt x="661" y="49" on="0"/>
        <pt x="668" y="117" on="0"/>
        <pt x="668" y="158" on="1"/>
        <pt x="668" y="577" on="1"/>
        <pt x="857" y="577" on="1"/>
        <pt x="857" y="144" on="1"/>
        <pt x="857" y="102" on="0"/>
        <pt x="843" y="27" on="0"/>
        <pt x="811" y="-48" on="0"/>
        <pt x="759" y="-127" on="0"/>
        <pt x="721" y="-173" on="1"/>
      </contour>
    </TTGlyph>
    <TTGlyph name="F_K.sc" xMin="64" yMin="0" xMax="1295" yMax="577">
      <contour>
        <pt x="64" y="577" on="1"/>
        <pt x="576" y="577" on="1"/>
        <pt x="576" y="434" on="1"/>
        <pt x="253" y="434" on="1"/>
        <pt x="253" y="330" on="1"/>
        <pt x="543" y="330" on="1"/>
        <pt x="543" y="199" on="1"/>
        <pt x="253" y="199" on="1"/>
        <pt x="253" y="0" on="1"/>
        <pt x="64" y="0" on="1"/>
      </contour>
      <contour>
        <pt x="659" y="577" on="1"/>
        <pt x="848" y="577" on="1"/>
        <pt x="848" y="361" on="1"/>
        <pt x="929" y="361" on="1"/>
        <pt x="1069" y="577" on="1"/>
        <pt x="1279" y="577" on="1"/>
        <pt x="1105" y="327" on="1"/>
        <pt x="1053" y="306" on="1"/>
        <pt x="1053" y="299" on="1"/>
        <pt x="1108" y="277" on="1"/>
        <pt x="1295" y="0" on="1"/>
        <pt x="1085" y="0" on="1"/>
        <pt x="942" y="218" on="1"/>
        <pt x="848" y="218" on="1"/>
        <pt x="848" y="0" on="1"/>
        <pt x="659" y="0" on="1"/>
      </contour>
    </TTGlyph>
    <TTGlyph name="F_L.sc" xMin="64" yMin="0" xMax="1129" yMax="577">
      <contour>
        <pt x="659" y="577" on="1"/>
        <pt x="848" y="577" on="1"/>
        <pt x="848" y="143" on="1"/>
        <pt x="1129" y="143" on="1"/>
        <pt x="1129" y="0" on="1"/>
        <pt x="659" y="0" on="1"/>
      </contour>
      <contour>
        <pt x="64" y="577" on="1"/>
        <pt x="576" y="577" on="1"/>
        <pt x="576" y="434" on="1"/>
        <pt x="253" y="434" on="1"/>
        <pt x="253" y="330" on="1"/>
        <pt x="543" y="330" on="1"/>
        <pt x="543" y="199" on="1"/>
        <pt x="253" y="199" on="1"/>
        <pt x="253" y="0" on="1"/>
        <pt x="64" y="0" on="1"/>
      </contour>
    </TTGlyph>
    <TTGlyph name="F_T.sc" xMin="64" yMin="0" xMax="1154" yMax="577">
      <contour>
        <pt x="779" y="433" on="1"/>
        <pt x="592" y="433" on="1"/>
        <pt x="592" y="577" on="1"/>
        <pt x="1154" y="577" on="1"/>
        <pt x="1154" y="433" on="1"/>
        <pt x="967" y="433" on="1"/>
        <pt x="967" y="0" on="1"/>
        <pt x="779" y="0" on="1"/>
      </contour>
      <contour>
        <pt x="64" y="577" on="1"/>
        <pt x="576" y="577" on="1"/>
        <pt x="576" y="434" on="1"/>
        <pt x="253" y="434" on="1"/>
        <pt x="253" y="330" on="1"/>
        <pt x="543" y="330" on="1"/>
        <pt x="543" y="199" on="1"/>
        <pt x="253" y="199" on="1"/>
        <pt x="253" y="0" on="1"/>
        <pt x="64" y="0" on="1"/>
      </contour>
    </TTGlyph>
    <TTGlyph name="G" xMin="34" yMin="-13" xMax="667" yMax="753">
      <contour>
        <pt x="418" y="-13" on="1"/>
        <pt x="223" y="-13" on="0"/>
        <pt x="34" y="175" on="0"/>
        <pt x="34" y="369" on="1"/>
        <pt x="34" y="753" on="0"/>
        <pt x="437" y="753" on="1"/>
        <pt x="491" y="753" on="0"/>
        <pt x="612" y="740" on="0"/>
        <pt x="657" y="729" on="1"/>
        <pt x="657" y="571" on="1"/>
        <pt x="591" y="582" on="0"/>
        <pt x="489" y="591" on="0"/>
        <pt x="453" y="591" on="1"/>
        <pt x="389" y="591" on="0"/>
        <pt x="306" y="571" on="0"/>
        <pt x="258" y="520" on="0"/>
        <pt x="239" y="435" on="0"/>
        <pt x="239" y="369" on="1"/>
        <pt x="239" y="304" on="0"/>
        <pt x="256" y="220" on="0"/>
        <pt x="299" y="170" on="0"/>
        <pt x="371" y="150" on="0"/>
        <pt x="426" y="150" on="1"/>
        <pt x="448" y="150" on="0"/>
        <pt x="474" y="151" on="0"/>
        <pt x="485" y="152" on="1"/>
        <pt x="485" y="376" on="1"/>
        <pt x="667" y="376" on="1"/>
        <pt x="667" y="25" on="1"/>
        <pt x="636" y="17" on="0"/>
        <pt x="569" y="3" on="0"/>
        <pt x="504" y="-7" on="0"/>
        <pt x="443" y="-13" on="0"/>
      </contour>
    </TTGlyph>
    <TTGlyph name="G.sc" xMin="34" yMin="-11" xMax="615" yMax="588">
      <contour>
        <pt x="387" y="-11" on="1"/>
        <pt x="206" y="-11" on="0"/>
        <pt x="34" y="135" on="0"/>
        <pt x="34" y="288" on="1"/>
        <pt x="34" y="440" on="0"/>
        <pt x="216" y="588" on="0"/>
        <pt x="403" y="588" on="1"/>
        <pt x="427" y="588" on="0"/>
        <pt x="481" y="585" on="0"/>
        <pt x="535" y="581" on="0"/>
        <pt x="585" y="573" on="0"/>
        <pt x="606" y="569" on="1"/>
        <pt x="606" y="424" on="1"/>
        <pt x="483" y="436" on="0"/>
        <pt x="418" y="436" on="1"/>
        <pt x="358" y="436" on="0"/>
        <pt x="284" y="424" on="0"/>
        <pt x="243" y="391" on="0"/>
        <pt x="229" y="334" on="0"/>
        <pt x="229" y="288" on="1"/>
        <pt x="229" y="243" on="0"/>
        <pt x="242" y="186" on="0"/>
        <pt x="278" y="154" on="0"/>
        <pt x="342" y="142" on="0"/>
        <pt x="393" y="142" on="1"/>
        <pt x="395" y="142" on="0"/>
        <pt x="409" y="142" on="0"/>
        <pt x="426" y="143" on="0"/>
        <pt x="440" y="144" on="0"/>
        <pt x="442" y="144" on="1"/>
        <pt x="442" y="293" on="1"/>
        <pt x="615" y="293" on="1"/>
        <pt x="615" y="21" on="1"/>
        <pt x="586" y="14" on="0"/>
        <pt x="525" y="2" on="0"/>
        <pt x="465" y="-6" on="0"/>
        <pt x="409" y="-11" on="0"/>
      </contour>
    </TTGlyph>
    <TTGlyph name="Gacute" xMin="34" yMin="-13" xMax="667" yMax="992">
      <contour>
        <pt x="301" y="812" on="1"/>
        <pt x="366" y="992" on="1"/>
        <pt x="566" y="992" on="1"/>
        <pt x="442" y="802" on="1"/>
      </contour>
      <contour>
        <pt x="418" y="-13" on="1"/>
        <pt x="223" y="-13" on="0"/>
        <pt x="34" y="175" on="0"/>
        <pt x="34" y="369" on="1"/>
        <pt x="34" y="753" on="0"/>
        <pt x="437" y="753" on="1"/>
        <pt x="491" y="753" on="0"/>
        <pt x="612" y="740" on="0"/>
        <pt x="657" y="729" on="1"/>
        <pt x="657" y="571" on="1"/>
        <pt x="591" y="582" on="0"/>
        <pt x="489" y="591" on="0"/>
        <pt x="453" y="591" on="1"/>
        <pt x="389" y="591" on="0"/>
        <pt x="306" y="571" on="0"/>
        <pt x="258" y="520" on="0"/>
        <pt x="239" y="435" on="0"/>
        <pt x="239" y="369" on="1"/>
        <pt x="239" y="304" on="0"/>
        <pt x="256" y="220" on="0"/>
        <pt x="299" y="170" on="0"/>
        <pt x="371" y="150" on="0"/>
        <pt x="426" y="150" on="1"/>
        <pt x="448" y="150" on="0"/>
        <pt x="474" y="151" on="0"/>
        <pt x="485" y="152" on="1"/>
        <pt x="485" y="376" on="1"/>
        <pt x="667" y="376" on="1"/>
        <pt x="667" y="25" on="1"/>
        <pt x="636" y="17" on="0"/>
        <pt x="569" y="3" on="0"/>
        <pt x="504" y="-7" on="0"/>
        <pt x="443" y="-13" on="0"/>
      </contour>
    </TTGlyph>
    <TTGlyph name="Gacute.sc" xMin="34" yMin="-11" xMax="615" yMax="788">
      <contour>
        <pt x="387" y="-11" on="1"/>
        <pt x="207" y="-11" on="0"/>
        <pt x="34" y="134" on="0"/>
        <pt x="34" y="288" on="1"/>
        <pt x="34" y="440" on="0"/>
        <pt x="216" y="588" on="0"/>
        <pt x="403" y="588" on="1"/>
        <pt x="453" y="588" on="0"/>
        <pt x="565" y="578" on="0"/>
        <pt x="606" y="569" on="1"/>
        <pt x="606" y="421" on="1"/>
        <pt x="484" y="436" on="0"/>
        <pt x="418" y="436" on="1"/>
        <pt x="360" y="436" on="0"/>
        <pt x="287" y="425" on="0"/>
        <pt x="245" y="393" on="0"/>
        <pt x="229" y="335" on="0"/>
        <pt x="229" y="288" on="1"/>
        <pt x="229" y="241" on="0"/>
        <pt x="243" y="184" on="0"/>
        <pt x="280" y="153" on="0"/>
        <pt x="343" y="142" on="0"/>
        <pt x="393" y="142" on="1"/>
        <pt x="395" y="142" on="0"/>
        <pt x="409" y="142" on="0"/>
        <pt x="426" y="143" on="0"/>
        <pt x="440" y="144" on="0"/>
        <pt x="442" y="144" on="1"/>
        <pt x="442" y="293" on="1"/>
        <pt x="615" y="293" on="1"/>
        <pt x="615" y="21" on="1"/>
        <pt x="559" y="7" on="0"/>
        <pt x="434" y="-11" on="0"/>
      </contour>
      <contour>
        <pt x="276" y="636" on="1"/>
        <pt x="332" y="788" on="1"/>
        <pt x="522" y="788" on="1"/>
        <pt x="409" y="627" on="1"/>
      </contour>
    </TTGlyph>
    <TTGlyph name="Gbreve" xMin="34" yMin="-13" xMax="667" yMax="992">
      <contour>
        <pt x="390" y="807" on="1"/>
        <pt x="327" y="807" on="0"/>
        <pt x="240" y="835" on="0"/>
        <pt x="186" y="884" on="0"/>
        <pt x="162" y="952" on="0"/>
        <pt x="162" y="992" on="1"/>
        <pt x="291" y="992" on="1"/>
        <pt x="291" y="945" on="0"/>
        <pt x="332" y="899" on="0"/>
        <pt x="390" y="899" on="1"/>
        <pt x="448" y="899" on="0"/>
        <pt x="489" y="945" on="0"/>
        <pt x="489" y="992" on="1"/>
        <pt x="618" y="992" on="1"/>
        <pt x="618" y="951" on="0"/>
        <pt x="594" y="884" on="0"/>
        <pt x="540" y="834" on="0"/>
        <pt x="453" y="807" on="0"/>
      </contour>
      <contour>
        <pt x="418" y="-13" on="1"/>
        <pt x="223" y="-13" on="0"/>
        <pt x="34" y="175" on="0"/>
        <pt x="34" y="369" on="1"/>
        <pt x="34" y="753" on="0"/>
        <pt x="437" y="753" on="1"/>
        <pt x="491" y="753" on="0"/>
        <pt x="612" y="740" on="0"/>
        <pt x="657" y="729" on="1"/>
        <pt x="657" y="571" on="1"/>
        <pt x="591" y="582" on="0"/>
        <pt x="489" y="591" on="0"/>
        <pt x="453" y="591" on="1"/>
        <pt x="389" y="591" on="0"/>
        <pt x="306" y="571" on="0"/>
        <pt x="258" y="520" on="0"/>
        <pt x="239" y="435" on="0"/>
        <pt x="239" y="369" on="1"/>
        <pt x="239" y="304" on="0"/>
        <pt x="256" y="220" on="0"/>
        <pt x="299" y="170" on="0"/>
        <pt x="371" y="150" on="0"/>
        <pt x="426" y="150" on="1"/>
        <pt x="448" y="150" on="0"/>
        <pt x="474" y="151" on="0"/>
        <pt x="485" y="152" on="1"/>
        <pt x="485" y="376" on="1"/>
        <pt x="667" y="376" on="1"/>
        <pt x="667" y="25" on="1"/>
        <pt x="636" y="17" on="0"/>
        <pt x="569" y="3" on="0"/>
        <pt x="504" y="-7" on="0"/>
        <pt x="443" y="-13" on="0"/>
      </contour>
    </TTGlyph>
    <TTGlyph name="Gbreve.sc" xMin="34" yMin="-11" xMax="615" yMax="783">
      <contour>
        <pt x="387" y="-11" on="1"/>
        <pt x="207" y="-11" on="0"/>
        <pt x="34" y="134" on="0"/>
        <pt x="34" y="288" on="1"/>
        <pt x="34" y="440" on="0"/>
        <pt x="216" y="588" on="0"/>
        <pt x="403" y="588" on="1"/>
        <pt x="453" y="588" on="0"/>
        <pt x="565" y="578" on="0"/>
        <pt x="606" y="569" on="1"/>
        <pt x="606" y="421" on="1"/>
        <pt x="484" y="436" on="0"/>
        <pt x="418" y="436" on="1"/>
        <pt x="360" y="436" on="0"/>
        <pt x="287" y="425" on="0"/>
        <pt x="245" y="393" on="0"/>
        <pt x="229" y="335" on="0"/>
        <pt x="229" y="288" on="1"/>
        <pt x="229" y="241" on="0"/>
        <pt x="243" y="184" on="0"/>
        <pt x="280" y="153" on="0"/>
        <pt x="343" y="142" on="0"/>
        <pt x="393" y="142" on="1"/>
        <pt x="395" y="142" on="0"/>
        <pt x="409" y="142" on="0"/>
        <pt x="426" y="143" on="0"/>
        <pt x="440" y="144" on="0"/>
        <pt x="442" y="144" on="1"/>
        <pt x="442" y="293" on="1"/>
        <pt x="615" y="293" on="1"/>
        <pt x="615" y="21" on="1"/>
        <pt x="559" y="7" on="0"/>
        <pt x="434" y="-11" on="0"/>
      </contour>
      <contour>
        <pt x="360" y="629" on="1"/>
        <pt x="300" y="629" on="0"/>
        <pt x="220" y="653" on="0"/>
        <pt x="170" y="695" on="0"/>
        <pt x="149" y="751" on="0"/>
        <pt x="149" y="783" on="1"/>
        <pt x="270" y="783" on="1"/>
        <pt x="270" y="748" on="0"/>
        <pt x="307" y="712" on="0"/>
        <pt x="360" y="712" on="1"/>
        <pt x="413" y="712" on="0"/>
        <pt x="450" y="748" on="0"/>
        <pt x="450" y="783" on="1"/>
        <pt x="572" y="783" on="1"/>
        <pt x="572" y="750" on="0"/>
        <pt x="550" y="694" on="0"/>
        <pt x="500" y="652" on="0"/>
        <pt x="419" y="629" on="0"/>
      </contour>
    </TTGlyph>
    <TTGlyph name="Gcircumflex" xMin="34" yMin="-13" xMax="667" yMax="1004">
      <contour>
        <pt x="418" y="-13" on="1"/>
        <pt x="223" y="-13" on="0"/>
        <pt x="34" y="175" on="0"/>
        <pt x="34" y="369" on="1"/>
        <pt x="34" y="753" on="0"/>
        <pt x="437" y="753" on="1"/>
        <pt x="491" y="753" on="0"/>
        <pt x="612" y="740" on="0"/>
        <pt x="657" y="729" on="1"/>
        <pt x="657" y="571" on="1"/>
        <pt x="591" y="582" on="0"/>
        <pt x="489" y="591" on="0"/>
        <pt x="453" y="591" on="1"/>
        <pt x="389" y="591" on="0"/>
        <pt x="306" y="571" on="0"/>
        <pt x="258" y="520" on="0"/>
        <pt x="239" y="435" on="0"/>
        <pt x="239" y="369" on="1"/>
        <pt x="239" y="304" on="0"/>
        <pt x="256" y="220" on="0"/>
        <pt x="299" y="170" on="0"/>
        <pt x="371" y="150" on="0"/>
        <pt x="426" y="150" on="1"/>
        <pt x="448" y="150" on="0"/>
        <pt x="474" y="151" on="0"/>
        <pt x="485" y="152" on="1"/>
        <pt x="485" y="376" on="1"/>
        <pt x="667" y="376" on="1"/>
        <pt x="667" y="25" on="1"/>
        <pt x="636" y="17" on="0"/>
        <pt x="569" y="3" on="0"/>
        <pt x="504" y="-7" on="0"/>
        <pt x="443" y="-13" on="0"/>
      </contour>
      <contour>
        <pt x="171" y="926" on="1"/>
        <pt x="378" y="1004" on="1"/>
        <pt x="588" y="926" on="1"/>
        <pt x="588" y="798" on="1"/>
        <pt x="379" y="875" on="1"/>
        <pt x="171" y="798" on="1"/>
      </contour>
    </TTGlyph>
    <TTGlyph name="Gcircumflex.sc" xMin="34" yMin="-11" xMax="615" yMax="800">
      <contour>
        <pt x="387" y="-11" on="1"/>
        <pt x="207" y="-11" on="0"/>
        <pt x="34" y="134" on="0"/>
        <pt x="34" y="288" on="1"/>
        <pt x="34" y="440" on="0"/>
        <pt x="216" y="588" on="0"/>
        <pt x="403" y="588" on="1"/>
        <pt x="453" y="588" on="0"/>
        <pt x="565" y="578" on="0"/>
        <pt x="606" y="569" on="1"/>
        <pt x="606" y="421" on="1"/>
        <pt x="484" y="436" on="0"/>
        <pt x="418" y="436" on="1"/>
        <pt x="360" y="436" on="0"/>
        <pt x="287" y="425" on="0"/>
        <pt x="245" y="393" on="0"/>
        <pt x="229" y="335" on="0"/>
        <pt x="229" y="288" on="1"/>
        <pt x="229" y="241" on="0"/>
        <pt x="243" y="184" on="0"/>
        <pt x="280" y="153" on="0"/>
        <pt x="343" y="142" on="0"/>
        <pt x="393" y="142" on="1"/>
        <pt x="395" y="142" on="0"/>
        <pt x="409" y="142" on="0"/>
        <pt x="426" y="143" on="0"/>
        <pt x="440" y="144" on="0"/>
        <pt x="442" y="144" on="1"/>
        <pt x="442" y="293" on="1"/>
        <pt x="615" y="293" on="1"/>
        <pt x="615" y="21" on="1"/>
        <pt x="559" y="7" on="0"/>
        <pt x="434" y="-11" on="0"/>
      </contour>
      <contour>
        <pt x="155" y="737" on="1"/>
        <pt x="347" y="800" on="1"/>
        <pt x="542" y="737" on="1"/>
        <pt x="542" y="618" on="1"/>
        <pt x="349" y="681" on="1"/>
        <pt x="155" y="618" on="1"/>
      </contour>
    </TTGlyph>
    <TTGlyph name="Gcommaaccent" xMin="34" yMin="-220" xMax="667" yMax="753">
      <contour>
        <pt x="288" y="-70" on="1"/>
        <pt x="488" y="-70" on="1"/>
        <pt x="393" y="-220" on="1"/>
        <pt x="246" y="-220" on="1"/>
      </contour>
      <contour>
        <pt x="418" y="-13" on="1"/>
        <pt x="223" y="-13" on="0"/>
        <pt x="34" y="175" on="0"/>
        <pt x="34" y="369" on="1"/>
        <pt x="34" y="753" on="0"/>
        <pt x="437" y="753" on="1"/>
        <pt x="491" y="753" on="0"/>
        <pt x="612" y="740" on="0"/>
        <pt x="657" y="729" on="1"/>
        <pt x="657" y="571" on="1"/>
        <pt x="591" y="582" on="0"/>
        <pt x="489" y="591" on="0"/>
        <pt x="453" y="591" on="1"/>
        <pt x="389" y="591" on="0"/>
        <pt x="306" y="571" on="0"/>
        <pt x="258" y="520" on="0"/>
        <pt x="239" y="435" on="0"/>
        <pt x="239" y="369" on="1"/>
        <pt x="239" y="304" on="0"/>
        <pt x="256" y="220" on="0"/>
        <pt x="299" y="170" on="0"/>
        <pt x="371" y="150" on="0"/>
        <pt x="426" y="150" on="1"/>
        <pt x="448" y="150" on="0"/>
        <pt x="474" y="151" on="0"/>
        <pt x="485" y="152" on="1"/>
        <pt x="485" y="376" on="1"/>
        <pt x="667" y="376" on="1"/>
        <pt x="667" y="25" on="1"/>
        <pt x="636" y="17" on="0"/>
        <pt x="569" y="3" on="0"/>
        <pt x="504" y="-7" on="0"/>
        <pt x="443" y="-13" on="0"/>
      </contour>
    </TTGlyph>
    <TTGlyph name="Gcommaaccent.sc" xMin="34" yMin="-172" xMax="615" yMax="588">
      <contour>
        <pt x="387" y="-11" on="1"/>
        <pt x="207" y="-11" on="0"/>
        <pt x="34" y="134" on="0"/>
        <pt x="34" y="288" on="1"/>
        <pt x="34" y="440" on="0"/>
        <pt x="216" y="588" on="0"/>
        <pt x="403" y="588" on="1"/>
        <pt x="453" y="588" on="0"/>
        <pt x="565" y="578" on="0"/>
        <pt x="606" y="569" on="1"/>
        <pt x="606" y="421" on="1"/>
        <pt x="484" y="436" on="0"/>
        <pt x="418" y="436" on="1"/>
        <pt x="360" y="436" on="0"/>
        <pt x="287" y="425" on="0"/>
        <pt x="245" y="393" on="0"/>
        <pt x="229" y="335" on="0"/>
        <pt x="229" y="288" on="1"/>
        <pt x="229" y="241" on="0"/>
        <pt x="243" y="184" on="0"/>
        <pt x="280" y="153" on="0"/>
        <pt x="343" y="142" on="0"/>
        <pt x="393" y="142" on="1"/>
        <pt x="395" y="142" on="0"/>
        <pt x="409" y="142" on="0"/>
        <pt x="426" y="143" on="0"/>
        <pt x="440" y="144" on="0"/>
        <pt x="442" y="144" on="1"/>
        <pt x="442" y="293" on="1"/>
        <pt x="615" y="293" on="1"/>
        <pt x="615" y="21" on="1"/>
        <pt x="559" y="7" on="0"/>
        <pt x="434" y="-11" on="0"/>
      </contour>
      <contour>
        <pt x="261" y="-55" on="1"/>
        <pt x="451" y="-55" on="1"/>
        <pt x="363" y="-172" on="1"/>
        <pt x="225" y="-172" on="1"/>
      </contour>
    </TTGlyph>
    <TTGlyph name="Gdotaccent" xMin="34" yMin="-13" xMax="667" yMax="1003">
      <contour>
        <pt x="393" y="799" on="1"/>
        <pt x="336" y="799" on="0"/>
        <pt x="288" y="847" on="0"/>
        <pt x="288" y="901" on="1"/>
        <pt x="288" y="955" on="0"/>
        <pt x="336" y="1003" on="0"/>
        <pt x="393" y="1003" on="1"/>
        <pt x="450" y="1003" on="0"/>
        <pt x="498" y="954" on="0"/>
        <pt x="498" y="901" on="1"/>
        <pt x="498" y="848" on="0"/>
        <pt x="450" y="799" on="0"/>
      </contour>
      <contour>
        <pt x="418" y="-13" on="1"/>
        <pt x="223" y="-13" on="0"/>
        <pt x="34" y="175" on="0"/>
        <pt x="34" y="369" on="1"/>
        <pt x="34" y="753" on="0"/>
        <pt x="437" y="753" on="1"/>
        <pt x="491" y="753" on="0"/>
        <pt x="612" y="740" on="0"/>
        <pt x="657" y="729" on="1"/>
        <pt x="657" y="571" on="1"/>
        <pt x="591" y="582" on="0"/>
        <pt x="489" y="591" on="0"/>
        <pt x="453" y="591" on="1"/>
        <pt x="389" y="591" on="0"/>
        <pt x="306" y="571" on="0"/>
        <pt x="258" y="520" on="0"/>
        <pt x="239" y="435" on="0"/>
        <pt x="239" y="369" on="1"/>
        <pt x="239" y="304" on="0"/>
        <pt x="256" y="220" on="0"/>
        <pt x="299" y="170" on="0"/>
        <pt x="371" y="150" on="0"/>
        <pt x="426" y="150" on="1"/>
        <pt x="448" y="150" on="0"/>
        <pt x="474" y="151" on="0"/>
        <pt x="485" y="152" on="1"/>
        <pt x="485" y="376" on="1"/>
        <pt x="667" y="376" on="1"/>
        <pt x="667" y="25" on="1"/>
        <pt x="636" y="17" on="0"/>
        <pt x="569" y="3" on="0"/>
        <pt x="504" y="-7" on="0"/>
        <pt x="443" y="-13" on="0"/>
      </contour>
    </TTGlyph>
    <TTGlyph name="Gdotaccent.sc" xMin="34" yMin="-11" xMax="615" yMax="807">
      <contour>
        <pt x="387" y="-11" on="1"/>
        <pt x="207" y="-11" on="0"/>
        <pt x="34" y="134" on="0"/>
        <pt x="34" y="288" on="1"/>
        <pt x="34" y="440" on="0"/>
        <pt x="216" y="588" on="0"/>
        <pt x="403" y="588" on="1"/>
        <pt x="453" y="588" on="0"/>
        <pt x="565" y="578" on="0"/>
        <pt x="606" y="569" on="1"/>
        <pt x="606" y="421" on="1"/>
        <pt x="484" y="436" on="0"/>
        <pt x="418" y="436" on="1"/>
        <pt x="360" y="436" on="0"/>
        <pt x="287" y="425" on="0"/>
        <pt x="245" y="393" on="0"/>
        <pt x="229" y="335" on="0"/>
        <pt x="229" y="288" on="1"/>
        <pt x="229" y="241" on="0"/>
        <pt x="243" y="184" on="0"/>
        <pt x="280" y="153" on="0"/>
        <pt x="343" y="142" on="0"/>
        <pt x="393" y="142" on="1"/>
        <pt x="395" y="142" on="0"/>
        <pt x="409" y="142" on="0"/>
        <pt x="426" y="143" on="0"/>
        <pt x="440" y="144" on="0"/>
        <pt x="442" y="144" on="1"/>
        <pt x="442" y="293" on="1"/>
        <pt x="615" y="293" on="1"/>
        <pt x="615" y="21" on="1"/>
        <pt x="559" y="7" on="0"/>
        <pt x="434" y="-11" on="0"/>
      </contour>
      <contour>
        <pt x="363" y="619" on="1"/>
        <pt x="309" y="619" on="0"/>
        <pt x="264" y="662" on="0"/>
        <pt x="264" y="713" on="1"/>
        <pt x="264" y="762" on="0"/>
        <pt x="309" y="807" on="0"/>
        <pt x="363" y="807" on="1"/>
        <pt x="418" y="807" on="0"/>
        <pt x="462" y="761" on="0"/>
        <pt x="462" y="713" on="1"/>
        <pt x="462" y="665" on="0"/>
        <pt x="418" y="619" on="0"/>
      </contour>
    </TTGlyph>
    <TTGlyph name="H" xMin="66" yMin="0" xMax="765" yMax="740">
      <contour>
        <pt x="66" y="740" on="1"/>
        <pt x="266" y="740" on="1"/>
        <pt x="266" y="456" on="1"/>
        <pt x="565" y="456" on="1"/>
        <pt x="565" y="740" on="1"/>
        <pt x="765" y="740" on="1"/>
        <pt x="765" y="0" on="1"/>
        <pt x="565" y="0" on="1"/>
        <pt x="565" y="303" on="1"/>
        <pt x="266" y="303" on="1"/>
        <pt x="266" y="0" on="1"/>
        <pt x="66" y="0" on="1"/>
      </contour>
    </TTGlyph>
    <TTGlyph name="H.sc" xMin="64" yMin="0" xMax="706" yMax="577">
      <contour>
        <pt x="64" y="577" on="1"/>
        <pt x="253" y="577" on="1"/>
        <pt x="253" y="368" on="1"/>
        <pt x="517" y="368" on="1"/>
        <pt x="517" y="577" on="1"/>
        <pt x="706" y="577" on="1"/>
        <pt x="706" y="0" on="1"/>
        <pt x="517" y="0" on="1"/>
        <pt x="517" y="224" on="1"/>
        <pt x="253" y="224" on="1"/>
        <pt x="253" y="0" on="1"/>
        <pt x="64" y="0" on="1"/>
      </contour>
    </TTGlyph>
    <TTGlyph name="Hbar" xMin="6" yMin="0" xMax="846" yMax="740">
      <contour>
        <pt x="6" y="627" on="1"/>
        <pt x="74" y="627" on="1"/>
        <pt x="74" y="740" on="1"/>
        <pt x="274" y="740" on="1"/>
        <pt x="274" y="627" on="1"/>
        <pt x="573" y="627" on="1"/>
        <pt x="573" y="740" on="1"/>
        <pt x="773" y="740" on="1"/>
        <pt x="773" y="627" on="1"/>
        <pt x="846" y="627" on="1"/>
        <pt x="846" y="537" on="1"/>
        <pt x="773" y="537" on="1"/>
        <pt x="773" y="0" on="1"/>
        <pt x="573" y="0" on="1"/>
        <pt x="573" y="303" on="1"/>
        <pt x="274" y="303" on="1"/>
        <pt x="274" y="0" on="1"/>
        <pt x="74" y="0" on="1"/>
        <pt x="74" y="537" on="1"/>
        <pt x="6" y="537" on="1"/>
      </contour>
      <contour>
        <pt x="573" y="456" on="1"/>
        <pt x="573" y="537" on="1"/>
        <pt x="274" y="537" on="1"/>
        <pt x="274" y="456" on="1"/>
      </contour>
    </TTGlyph>
    <TTGlyph name="Hbar.sc" xMin="11" yMin="0" xMax="777" yMax="577">
      <contour>
        <pt x="11" y="498" on="1"/>
        <pt x="71" y="498" on="1"/>
        <pt x="71" y="577" on="1"/>
        <pt x="260" y="577" on="1"/>
        <pt x="260" y="498" on="1"/>
        <pt x="524" y="498" on="1"/>
        <pt x="524" y="577" on="1"/>
        <pt x="713" y="577" on="1"/>
        <pt x="713" y="498" on="1"/>
        <pt x="777" y="498" on="1"/>
        <pt x="777" y="416" on="1"/>
        <pt x="713" y="416" on="1"/>
        <pt x="713" y="0" on="1"/>
        <pt x="524" y="0" on="1"/>
        <pt x="524" y="211" on="1"/>
        <pt x="260" y="211" on="1"/>
        <pt x="260" y="0" on="1"/>
        <pt x="71" y="0" on="1"/>
        <pt x="71" y="416" on="1"/>
        <pt x="11" y="416" on="1"/>
      </contour>
      <contour>
        <pt x="524" y="355" on="1"/>
        <pt x="524" y="416" on="1"/>
        <pt x="260" y="416" on="1"/>
        <pt x="260" y="355" on="1"/>
      </contour>
    </TTGlyph>
    <TTGlyph name="Hcircumflex" xMin="66" yMin="0" xMax="765" yMax="1004">
      <contour>
        <pt x="66" y="740" on="1"/>
        <pt x="266" y="740" on="1"/>
        <pt x="266" y="456" on="1"/>
        <pt x="565" y="456" on="1"/>
        <pt x="565" y="740" on="1"/>
        <pt x="765" y="740" on="1"/>
        <pt x="765" y="0" on="1"/>
        <pt x="565" y="0" on="1"/>
        <pt x="565" y="303" on="1"/>
        <pt x="266" y="303" on="1"/>
        <pt x="266" y="0" on="1"/>
        <pt x="66" y="0" on="1"/>
      </contour>
      <contour>
        <pt x="207" y="926" on="1"/>
        <pt x="414" y="1004" on="1"/>
        <pt x="624" y="926" on="1"/>
        <pt x="624" y="798" on="1"/>
        <pt x="415" y="875" on="1"/>
        <pt x="207" y="798" on="1"/>
      </contour>
    </TTGlyph>
    <TTGlyph name="Hcircumflex.sc" xMin="64" yMin="0" xMax="706" yMax="800">
      <contour>
        <pt x="64" y="577" on="1"/>
        <pt x="253" y="577" on="1"/>
        <pt x="253" y="368" on="1"/>
        <pt x="517" y="368" on="1"/>
        <pt x="517" y="577" on="1"/>
        <pt x="706" y="577" on="1"/>
        <pt x="706" y="0" on="1"/>
        <pt x="517" y="0" on="1"/>
        <pt x="517" y="224" on="1"/>
        <pt x="253" y="224" on="1"/>
        <pt x="253" y="0" on="1"/>
        <pt x="64" y="0" on="1"/>
      </contour>
      <contour>
        <pt x="192" y="737" on="1"/>
        <pt x="384" y="800" on="1"/>
        <pt x="579" y="737" on="1"/>
        <pt x="579" y="618" on="1"/>
        <pt x="386" y="681" on="1"/>
        <pt x="192" y="618" on="1"/>
      </contour>
    </TTGlyph>
    <TTGlyph name="Hdotbelow" xMin="66" yMin="-213" xMax="765" yMax="740">
      <contour>
        <pt x="66" y="740" on="1"/>
        <pt x="266" y="740" on="1"/>
        <pt x="266" y="456" on="1"/>
        <pt x="565" y="456" on="1"/>
        <pt x="565" y="740" on="1"/>
        <pt x="765" y="740" on="1"/>
        <pt x="765" y="0" on="1"/>
        <pt x="565" y="0" on="1"/>
        <pt x="565" y="303" on="1"/>
        <pt x="266" y="303" on="1"/>
        <pt x="266" y="0" on="1"/>
        <pt x="66" y="0" on="1"/>
      </contour>
      <contour>
        <pt x="414" y="-213" on="1"/>
        <pt x="370" y="-213" on="0"/>
        <pt x="333" y="-177" on="0"/>
        <pt x="333" y="-135" on="1"/>
        <pt x="333" y="-93" on="0"/>
        <pt x="370" y="-56" on="0"/>
        <pt x="414" y="-56" on="1"/>
        <pt x="459" y="-56" on="0"/>
        <pt x="496" y="-95" on="0"/>
        <pt x="496" y="-135" on="1"/>
        <pt x="496" y="-175" on="0"/>
        <pt x="459" y="-213" on="0"/>
      </contour>
    </TTGlyph>
    <TTGlyph name="Hdotbelow.sc" xMin="64" yMin="-175" xMax="706" yMax="577">
      <contour>
        <pt x="64" y="577" on="1"/>
        <pt x="253" y="577" on="1"/>
        <pt x="253" y="368" on="1"/>
        <pt x="517" y="368" on="1"/>
        <pt x="517" y="577" on="1"/>
        <pt x="706" y="577" on="1"/>
        <pt x="706" y="0" on="1"/>
        <pt x="517" y="0" on="1"/>
        <pt x="517" y="224" on="1"/>
        <pt x="253" y="224" on="1"/>
        <pt x="253" y="0" on="1"/>
        <pt x="64" y="0" on="1"/>
      </contour>
      <contour>
        <pt x="383" y="-175" on="1"/>
        <pt x="342" y="-175" on="0"/>
        <pt x="308" y="-142" on="0"/>
        <pt x="308" y="-105" on="1"/>
        <pt x="308" y="-69" on="0"/>
        <pt x="342" y="-35" on="0"/>
        <pt x="383" y="-35" on="1"/>
        <pt x="425" y="-35" on="0"/>
        <pt x="459" y="-70" on="0"/>
        <pt x="459" y="-105" on="1"/>
        <pt x="459" y="-140" on="0"/>
        <pt x="425" y="-175" on="0"/>
      </contour>
    </TTGlyph>
    <TTGlyph name="I" xMin="66" yMin="0" xMax="266" yMax="740">
      <contour>
        <pt x="66" y="740" on="1"/>
        <pt x="266" y="740" on="1"/>
        <pt x="266" y="0" on="1"/>
        <pt x="66" y="0" on="1"/>
      </contour>
    </TTGlyph>
    <TTGlyph name="I.sc" xMin="64" yMin="0" xMax="253" yMax="577">
      <contour>
        <pt x="64" y="577" on="1"/>
        <pt x="253" y="577" on="1"/>
        <pt x="253" y="0" on="1"/>
        <pt x="64" y="0" on="1"/>
      </contour>
    </TTGlyph>
    <TTGlyph name="IJ" xMin="66" yMin="-213" xMax="600" yMax="740">
      <contour>
        <pt x="66" y="740" on="1"/>
        <pt x="266" y="740" on="1"/>
        <pt x="266" y="0" on="1"/>
        <pt x="66" y="0" on="1"/>
      </contour>
      <contour>
        <pt x="325" y="-158" on="1"/>
        <pt x="347" y="-108" on="0"/>
        <pt x="376" y="-23" on="0"/>
        <pt x="393" y="60" on="0"/>
        <pt x="400" y="146" on="0"/>
        <pt x="400" y="198" on="1"/>
        <pt x="400" y="740" on="1"/>
        <pt x="600" y="740" on="1"/>
        <pt x="600" y="183" on="1"/>
        <pt x="600" y="130" on="0"/>
        <pt x="585" y="37" on="0"/>
        <pt x="550" y="-56" on="0"/>
        <pt x="493" y="-155" on="0"/>
        <pt x="452" y="-213" on="1"/>
      </contour>
    </TTGlyph>
    <TTGlyph name="Iacute" xMin="66" yMin="0" xMax="356" yMax="992">
      <contour>
        <pt x="66" y="740" on="1"/>
        <pt x="266" y="740" on="1"/>
        <pt x="266" y="0" on="1"/>
        <pt x="66" y="0" on="1"/>
      </contour>
      <contour>
        <pt x="91" y="812" on="1"/>
        <pt x="156" y="992" on="1"/>
        <pt x="356" y="992" on="1"/>
        <pt x="232" y="802" on="1"/>
      </contour>
    </TTGlyph>
    <TTGlyph name="Iacute.sc" xMin="64" yMin="0" xMax="334" yMax="788">
      <contour>
        <pt x="64" y="577" on="1"/>
        <pt x="253" y="577" on="1"/>
        <pt x="253" y="0" on="1"/>
        <pt x="64" y="0" on="1"/>
      </contour>
      <contour>
        <pt x="88" y="636" on="1"/>
        <pt x="145" y="788" on="1"/>
        <pt x="334" y="788" on="1"/>
        <pt x="221" y="627" on="1"/>
      </contour>
    </TTGlyph>
    <TTGlyph name="Ibreve" xMin="-62" yMin="0" xMax="394" yMax="992">
      <contour>
        <pt x="66" y="740" on="1"/>
        <pt x="266" y="740" on="1"/>
        <pt x="266" y="0" on="1"/>
        <pt x="66" y="0" on="1"/>
      </contour>
      <contour>
        <pt x="166" y="807" on="1"/>
        <pt x="103" y="807" on="0"/>
        <pt x="16" y="835" on="0"/>
        <pt x="-38" y="884" on="0"/>
        <pt x="-62" y="952" on="0"/>
        <pt x="-62" y="992" on="1"/>
        <pt x="67" y="992" on="1"/>
        <pt x="67" y="945" on="0"/>
        <pt x="108" y="899" on="0"/>
        <pt x="166" y="899" on="1"/>
        <pt x="224" y="899" on="0"/>
        <pt x="265" y="945" on="0"/>
        <pt x="265" y="992" on="1"/>
        <pt x="394" y="992" on="1"/>
        <pt x="394" y="951" on="0"/>
        <pt x="370" y="884" on="0"/>
        <pt x="316" y="834" on="0"/>
        <pt x="229" y="807" on="0"/>
      </contour>
    </TTGlyph>
    <TTGlyph name="Ibreve.sc" xMin="-53" yMin="0" xMax="369" yMax="783">
      <contour>
        <pt x="64" y="577" on="1"/>
        <pt x="253" y="577" on="1"/>
        <pt x="253" y="0" on="1"/>
        <pt x="64" y="0" on="1"/>
      </contour>
      <contour>
        <pt x="158" y="629" on="1"/>
        <pt x="98" y="629" on="0"/>
        <pt x="18" y="653" on="0"/>
        <pt x="-32" y="695" on="0"/>
        <pt x="-53" y="751" on="0"/>
        <pt x="-53" y="783" on="1"/>
        <pt x="68" y="783" on="1"/>
        <pt x="68" y="748" on="0"/>
        <pt x="105" y="712" on="0"/>
        <pt x="158" y="712" on="1"/>
        <pt x="211" y="712" on="0"/>
        <pt x="248" y="748" on="0"/>
        <pt x="248" y="783" on="1"/>
        <pt x="369" y="783" on="1"/>
        <pt x="369" y="750" on="0"/>
        <pt x="347" y="694" on="0"/>
        <pt x="298" y="652" on="0"/>
        <pt x="217" y="629" on="0"/>
      </contour>
    </TTGlyph>
    <TTGlyph name="Icircumflex" xMin="-40" yMin="0" xMax="377" yMax="1004">
      <contour>
        <pt x="66" y="740" on="1"/>
        <pt x="266" y="740" on="1"/>
        <pt x="266" y="0" on="1"/>
        <pt x="66" y="0" on="1"/>
      </contour>
      <contour>
        <pt x="-40" y="926" on="1"/>
        <pt x="167" y="1004" on="1"/>
        <pt x="377" y="926" on="1"/>
        <pt x="377" y="798" on="1"/>
        <pt x="168" y="875" on="1"/>
        <pt x="-40" y="798" on="1"/>
      </contour>
    </TTGlyph>
    <TTGlyph name="Icircumflex.sc" xMin="-32" yMin="0" xMax="354" yMax="800">
      <contour>
        <pt x="64" y="577" on="1"/>
        <pt x="253" y="577" on="1"/>
        <pt x="253" y="0" on="1"/>
        <pt x="64" y="0" on="1"/>
      </contour>
      <contour>
        <pt x="-32" y="737" on="1"/>
        <pt x="159" y="800" on="1"/>
        <pt x="354" y="737" on="1"/>
        <pt x="354" y="618" on="1"/>
        <pt x="161" y="681" on="1"/>
        <pt x="-32" y="618" on="1"/>
      </contour>
    </TTGlyph>
    <TTGlyph name="Idblgrave" xMin="-119" yMin="0" xMax="358" yMax="991">
      <contour>
        <pt x="66" y="740" on="1"/>
        <pt x="266" y="740" on="1"/>
        <pt x="266" y="0" on="1"/>
        <pt x="66" y="0" on="1"/>
      </contour>
      <contour>
        <pt x="5" y="801" on="1"/>
        <pt x="-119" y="991" on="1"/>
        <pt x="70" y="991" on="1"/>
        <pt x="134" y="812" on="1"/>
      </contour>
      <contour>
        <pt x="229" y="801" on="1"/>
        <pt x="104" y="991" on="1"/>
        <pt x="293" y="991" on="1"/>
        <pt x="358" y="812" on="1"/>
      </contour>
    </TTGlyph>
    <TTGlyph name="Idblgrave.sc" xMin="-107" yMin="0" xMax="339" yMax="789">
      <contour>
        <pt x="64" y="577" on="1"/>
        <pt x="253" y="577" on="1"/>
        <pt x="253" y="0" on="1"/>
        <pt x="64" y="0" on="1"/>
      </contour>
      <contour>
        <pt x="7" y="628" on="1"/>
        <pt x="-107" y="789" on="1"/>
        <pt x="74" y="789" on="1"/>
        <pt x="130" y="635" on="1"/>
      </contour>
      <contour>
        <pt x="214" y="628" on="1"/>
        <pt x="101" y="789" on="1"/>
        <pt x="282" y="789" on="1"/>
        <pt x="339" y="635" on="1"/>
      </contour>
    </TTGlyph>
    <TTGlyph name="Idieresis" xMin="-85" yMin="0" xMax="424" yMax="1004">
      <contour>
        <pt x="66" y="740" on="1"/>
        <pt x="266" y="740" on="1"/>
        <pt x="266" y="0" on="1"/>
        <pt x="66" y="0" on="1"/>
      </contour>
      <contour>
        <pt x="20" y="800" on="1"/>
        <pt x="-37" y="800" on="0"/>
        <pt x="-85" y="848" on="0"/>
        <pt x="-85" y="902" on="1"/>
        <pt x="-85" y="956" on="0"/>
        <pt x="-37" y="1004" on="0"/>
        <pt x="20" y="1004" on="1"/>
        <pt x="78" y="1004" on="0"/>
        <pt x="126" y="955" on="0"/>
        <pt x="126" y="902" on="1"/>
        <pt x="126" y="849" on="0"/>
        <pt x="78" y="800" on="0"/>
      </contour>
      <contour>
        <pt x="318" y="800" on="1"/>
        <pt x="261" y="800" on="0"/>
        <pt x="213" y="848" on="0"/>
        <pt x="213" y="902" on="1"/>
        <pt x="213" y="956" on="0"/>
        <pt x="261" y="1004" on="0"/>
        <pt x="318" y="1004" on="1"/>
        <pt x="376" y="1004" on="0"/>
        <pt x="424" y="955" on="0"/>
        <pt x="424" y="902" on="1"/>
        <pt x="424" y="849" on="0"/>
        <pt x="376" y="800" on="0"/>
      </contour>
    </TTGlyph>
    <TTGlyph name="Idieresis.sc" xMin="-74" yMin="0" xMax="397" yMax="807">
      <contour>
        <pt x="64" y="577" on="1"/>
        <pt x="253" y="577" on="1"/>
        <pt x="253" y="0" on="1"/>
        <pt x="64" y="0" on="1"/>
      </contour>
      <contour>
        <pt x="25" y="618" on="1"/>
        <pt x="-29" y="618" on="0"/>
        <pt x="-74" y="662" on="0"/>
        <pt x="-74" y="713" on="1"/>
        <pt x="-74" y="762" on="0"/>
        <pt x="-29" y="807" on="0"/>
        <pt x="25" y="807" on="1"/>
        <pt x="80" y="807" on="0"/>
        <pt x="124" y="761" on="0"/>
        <pt x="124" y="713" on="1"/>
        <pt x="124" y="664" on="0"/>
        <pt x="80" y="618" on="0"/>
      </contour>
      <contour>
        <pt x="298" y="618" on="1"/>
        <pt x="244" y="618" on="0"/>
        <pt x="199" y="662" on="0"/>
        <pt x="199" y="713" on="1"/>
        <pt x="199" y="762" on="0"/>
        <pt x="244" y="807" on="0"/>
        <pt x="298" y="807" on="1"/>
        <pt x="352" y="807" on="0"/>
        <pt x="397" y="761" on="0"/>
        <pt x="397" y="713" on="1"/>
        <pt x="397" y="664" on="0"/>
        <pt x="352" y="618" on="0"/>
      </contour>
    </TTGlyph>
    <TTGlyph name="Idotaccent" xMin="62" yMin="0" xMax="272" yMax="1003">
      <contour>
        <pt x="66" y="740" on="1"/>
        <pt x="266" y="740" on="1"/>
        <pt x="266" y="0" on="1"/>
        <pt x="66" y="0" on="1"/>
      </contour>
      <contour>
        <pt x="167" y="799" on="1"/>
        <pt x="110" y="799" on="0"/>
        <pt x="62" y="847" on="0"/>
        <pt x="62" y="901" on="1"/>
        <pt x="62" y="955" on="0"/>
        <pt x="110" y="1003" on="0"/>
        <pt x="167" y="1003" on="1"/>
        <pt x="224" y="1003" on="0"/>
        <pt x="272" y="954" on="0"/>
        <pt x="272" y="901" on="1"/>
        <pt x="272" y="848" on="0"/>
        <pt x="224" y="799" on="0"/>
      </contour>
    </TTGlyph>
    <TTGlyph name="Idotaccent.sc" xMin="60" yMin="0" xMax="258" yMax="807">
      <contour>
        <pt x="64" y="577" on="1"/>
        <pt x="253" y="577" on="1"/>
        <pt x="253" y="0" on="1"/>
        <pt x="64" y="0" on="1"/>
      </contour>
      <contour>
        <pt x="160" y="619" on="1"/>
        <pt x="106" y="619" on="0"/>
        <pt x="60" y="662" on="0"/>
        <pt x="60" y="713" on="1"/>
        <pt x="60" y="762" on="0"/>
        <pt x="106" y="807" on="0"/>
        <pt x="160" y="807" on="1"/>
        <pt x="214" y="807" on="0"/>
        <pt x="258" y="761" on="0"/>
        <pt x="258" y="713" on="1"/>
        <pt x="258" y="665" on="0"/>
        <pt x="214" y="619" on="0"/>
      </contour>
    </TTGlyph>
    <TTGlyph name="Idotbelow" xMin="66" yMin="-213" xMax="266" yMax="740">
      <contour>
        <pt x="66" y="740" on="1"/>
        <pt x="266" y="740" on="1"/>
        <pt x="266" y="0" on="1"/>
        <pt x="66" y="0" on="1"/>
      </contour>
      <contour>
        <pt x="166" y="-213" on="1"/>
        <pt x="122" y="-213" on="0"/>
        <pt x="85" y="-177" on="0"/>
        <pt x="85" y="-135" on="1"/>
        <pt x="85" y="-93" on="0"/>
        <pt x="122" y="-56" on="0"/>
        <pt x="166" y="-56" on="1"/>
        <pt x="211" y="-56" on="0"/>
        <pt x="248" y="-95" on="0"/>
        <pt x="248" y="-135" on="1"/>
        <pt x="248" y="-175" on="0"/>
        <pt x="211" y="-213" on="0"/>
      </contour>
    </TTGlyph>
    <TTGlyph name="Idotbelow.sc" xMin="64" yMin="-175" xMax="253" yMax="577">
      <contour>
        <pt x="64" y="577" on="1"/>
        <pt x="253" y="577" on="1"/>
        <pt x="253" y="0" on="1"/>
        <pt x="64" y="0" on="1"/>
      </contour>
      <contour>
        <pt x="159" y="-175" on="1"/>
        <pt x="118" y="-175" on="0"/>
        <pt x="84" y="-142" on="0"/>
        <pt x="84" y="-105" on="1"/>
        <pt x="84" y="-69" on="0"/>
        <pt x="118" y="-35" on="0"/>
        <pt x="159" y="-35" on="1"/>
        <pt x="201" y="-35" on="0"/>
        <pt x="235" y="-70" on="0"/>
        <pt x="235" y="-105" on="1"/>
        <pt x="235" y="-140" on="0"/>
        <pt x="201" y="-175" on="0"/>
      </contour>
    </TTGlyph>
    <TTGlyph name="Igrave" xMin="-14" yMin="0" xMax="266" yMax="992">
      <contour>
        <pt x="66" y="740" on="1"/>
        <pt x="266" y="740" on="1"/>
        <pt x="266" y="0" on="1"/>
        <pt x="66" y="0" on="1"/>
      </contour>
      <contour>
        <pt x="110" y="802" on="1"/>
        <pt x="-14" y="992" on="1"/>
        <pt x="186" y="992" on="1"/>
        <pt x="250" y="813" on="1"/>
      </contour>
    </TTGlyph>
    <TTGlyph name="Igrave.sc" xMin="-7" yMin="0" xMax="253" yMax="788">
      <contour>
        <pt x="64" y="577" on="1"/>
        <pt x="253" y="577" on="1"/>
        <pt x="253" y="0" on="1"/>
        <pt x="64" y="0" on="1"/>
      </contour>
      <contour>
        <pt x="107" y="627" on="1"/>
        <pt x="-7" y="788" on="1"/>
        <pt x="182" y="788" on="1"/>
        <pt x="239" y="635" on="1"/>
      </contour>
    </TTGlyph>
    <TTGlyph name="Iinvertedbreve" xMin="-59" yMin="0" xMax="398" yMax="1001">
      <contour>
        <pt x="66" y="740" on="1"/>
        <pt x="266" y="740" on="1"/>
        <pt x="266" y="0" on="1"/>
        <pt x="66" y="0" on="1"/>
      </contour>
      <contour>
        <pt x="269" y="816" on="1"/>
        <pt x="269" y="862" on="0"/>
        <pt x="227" y="909" on="0"/>
        <pt x="169" y="909" on="1"/>
        <pt x="112" y="909" on="0"/>
        <pt x="70" y="862" on="0"/>
        <pt x="70" y="816" on="1"/>
        <pt x="-59" y="816" on="1"/>
        <pt x="-59" y="855" on="0"/>
        <pt x="-35" y="923" on="0"/>
        <pt x="19" y="973" on="0"/>
        <pt x="106" y="1001" on="0"/>
        <pt x="169" y="1001" on="1"/>
        <pt x="232" y="1001" on="0"/>
        <pt x="319" y="974" on="0"/>
        <pt x="374" y="924" on="0"/>
        <pt x="398" y="856" on="0"/>
        <pt x="398" y="816" on="1"/>
      </contour>
    </TTGlyph>
    <TTGlyph name="Iinvertedbreve.sc" xMin="-50" yMin="0" xMax="373" yMax="792">
      <contour>
        <pt x="64" y="577" on="1"/>
        <pt x="253" y="577" on="1"/>
        <pt x="253" y="0" on="1"/>
        <pt x="64" y="0" on="1"/>
      </contour>
      <contour>
        <pt x="252" y="638" on="1"/>
        <pt x="252" y="672" on="0"/>
        <pt x="215" y="708" on="0"/>
        <pt x="162" y="708" on="1"/>
        <pt x="109" y="708" on="0"/>
        <pt x="72" y="672" on="0"/>
        <pt x="72" y="638" on="1"/>
        <pt x="-50" y="638" on="1"/>
        <pt x="-50" y="670" on="0"/>
        <pt x="-28" y="726" on="0"/>
        <pt x="21" y="768" on="0"/>
        <pt x="102" y="792" on="0"/>
        <pt x="162" y="792" on="1"/>
        <pt x="221" y="792" on="0"/>
        <pt x="302" y="769" on="0"/>
        <pt x="351" y="727" on="0"/>
        <pt x="373" y="671" on="0"/>
        <pt x="373" y="638" on="1"/>
      </contour>
    </TTGlyph>
    <TTGlyph name="Imacron" xMin="-36" yMin="0" xMax="378" yMax="969">
      <contour>
        <pt x="66" y="740" on="1"/>
        <pt x="266" y="740" on="1"/>
        <pt x="266" y="0" on="1"/>
        <pt x="66" y="0" on="1"/>
      </contour>
      <contour>
        <pt x="-36" y="969" on="1"/>
        <pt x="378" y="969" on="1"/>
        <pt x="378" y="841" on="1"/>
        <pt x="-36" y="841" on="1"/>
      </contour>
    </TTGlyph>
    <TTGlyph name="Imacron.sc" xMin="-28" yMin="0" xMax="356" yMax="775">
      <contour>
        <pt x="64" y="577" on="1"/>
        <pt x="253" y="577" on="1"/>
        <pt x="253" y="0" on="1"/>
        <pt x="64" y="0" on="1"/>
      </contour>
      <contour>
        <pt x="-28" y="775" on="1"/>
        <pt x="356" y="775" on="1"/>
        <pt x="356" y="656" on="1"/>
        <pt x="-28" y="656" on="1"/>
      </contour>
    </TTGlyph>
    <TTGlyph name="Iogonek" xMin="21" yMin="-220" xMax="267" yMax="740">
      <contour>
        <pt x="66" y="740" on="1"/>
        <pt x="266" y="740" on="1"/>
        <pt x="266" y="-7" on="1"/>
        <pt x="198" y="-35" on="0"/>
        <pt x="145" y="-77" on="0"/>
        <pt x="145" y="-96" on="1"/>
        <pt x="145" y="-118" on="0"/>
        <pt x="177" y="-118" on="1"/>
        <pt x="191" y="-118" on="0"/>
        <pt x="244" y="-109" on="0"/>
        <pt x="267" y="-103" on="1"/>
        <pt x="267" y="-208" on="1"/>
        <pt x="225" y="-220" on="0"/>
        <pt x="175" y="-220" on="1"/>
        <pt x="101" y="-220" on="0"/>
        <pt x="21" y="-171" on="0"/>
        <pt x="21" y="-125" on="1"/>
        <pt x="21" y="-91" on="0"/>
        <pt x="65" y="-25" on="0"/>
        <pt x="106" y="0" on="1"/>
        <pt x="66" y="0" on="1"/>
      </contour>
    </TTGlyph>
    <TTGlyph name="Iogonek.sc" xMin="26" yMin="-172" xMax="254" yMax="577">
      <contour>
        <pt x="64" y="577" on="1"/>
        <pt x="253" y="577" on="1"/>
        <pt x="253" y="-3" on="1"/>
        <pt x="217" y="-15" on="0"/>
        <pt x="173" y="-34" on="0"/>
        <pt x="151" y="-49" on="0"/>
        <pt x="144" y="-60" on="0"/>
        <pt x="144" y="-64" on="1"/>
        <pt x="144" y="-75" on="0"/>
        <pt x="169" y="-75" on="1"/>
        <pt x="176" y="-75" on="0"/>
        <pt x="199" y="-73" on="0"/>
        <pt x="223" y="-70" on="0"/>
        <pt x="246" y="-67" on="0"/>
        <pt x="254" y="-65" on="1"/>
        <pt x="254" y="-162" on="1"/>
        <pt x="233" y="-167" on="0"/>
        <pt x="190" y="-172" on="0"/>
        <pt x="169" y="-172" on="1"/>
        <pt x="100" y="-172" on="0"/>
        <pt x="26" y="-129" on="0"/>
        <pt x="26" y="-93" on="1"/>
        <pt x="26" y="-64" on="0"/>
        <pt x="65" y="-15" on="0"/>
        <pt x="96" y="0" on="1"/>
        <pt x="64" y="0" on="1"/>
      </contour>
    </TTGlyph>
    <TTGlyph name="Itilde" xMin="-73" yMin="0" xMax="418" yMax="987">
      <contour>
        <pt x="66" y="740" on="1"/>
        <pt x="266" y="740" on="1"/>
        <pt x="266" y="0" on="1"/>
        <pt x="66" y="0" on="1"/>
      </contour>
      <contour>
        <pt x="-73" y="855" on="1"/>
        <pt x="-38" y="921" on="0"/>
        <pt x="52" y="987" on="0"/>
        <pt x="94" y="987" on="1"/>
        <pt x="120" y="987" on="0"/>
        <pt x="171" y="975" on="0"/>
        <pt x="222" y="962" on="0"/>
        <pt x="272" y="950" on="0"/>
        <pt x="298" y="950" on="1"/>
        <pt x="321" y="950" on="0"/>
        <pt x="366" y="965" on="0"/>
        <pt x="395" y="987" on="1"/>
        <pt x="418" y="955" on="1"/>
        <pt x="383" y="888" on="0"/>
        <pt x="292" y="822" on="0"/>
        <pt x="251" y="822" on="1"/>
        <pt x="225" y="822" on="0"/>
        <pt x="174" y="834" on="0"/>
        <pt x="123" y="847" on="0"/>
        <pt x="72" y="859" on="0"/>
        <pt x="47" y="859" on="1"/>
        <pt x="23" y="859" on="0"/>
        <pt x="-22" y="845" on="0"/>
        <pt x="-50" y="823" on="1"/>
      </contour>
    </TTGlyph>
    <TTGlyph name="Itilde.sc" xMin="-63" yMin="0" xMax="390" yMax="788">
      <contour>
        <pt x="64" y="577" on="1"/>
        <pt x="253" y="577" on="1"/>
        <pt x="253" y="0" on="1"/>
        <pt x="64" y="0" on="1"/>
      </contour>
      <contour>
        <pt x="-63" y="667" on="1"/>
        <pt x="-31" y="727" on="0"/>
        <pt x="53" y="787" on="0"/>
        <pt x="91" y="787" on="1"/>
        <pt x="115" y="787" on="0"/>
        <pt x="163" y="779" on="0"/>
        <pt x="210" y="768" on="0"/>
        <pt x="257" y="760" on="0"/>
        <pt x="281" y="760" on="1"/>
        <pt x="302" y="760" on="0"/>
        <pt x="342" y="770" on="0"/>
        <pt x="369" y="788" on="1"/>
        <pt x="390" y="760" on="1"/>
        <pt x="357" y="699" on="0"/>
        <pt x="273" y="640" on="0"/>
        <pt x="235" y="640" on="1"/>
        <pt x="211" y="640" on="0"/>
        <pt x="164" y="649" on="0"/>
        <pt x="117" y="659" on="0"/>
        <pt x="70" y="668" on="0"/>
        <pt x="46" y="668" on="1"/>
        <pt x="24" y="668" on="0"/>
        <pt x="-16" y="657" on="0"/>
        <pt x="-42" y="640" on="1"/>
      </contour>
    </TTGlyph>
    <TTGlyph name="J" xMin="-7" yMin="-213" xMax="268" yMax="740">
      <contour>
        <pt x="-7" y="-158" on="1"/>
        <pt x="15" y="-108" on="0"/>
        <pt x="44" y="-23" on="0"/>
        <pt x="61" y="60" on="0"/>
        <pt x="68" y="146" on="0"/>
        <pt x="68" y="198" on="1"/>
        <pt x="68" y="740" on="1"/>
        <pt x="268" y="740" on="1"/>
        <pt x="268" y="183" on="1"/>
        <pt x="268" y="130" on="0"/>
        <pt x="253" y="37" on="0"/>
        <pt x="218" y="-56" on="0"/>
        <pt x="161" y="-155" on="0"/>
        <pt x="120" y="-213" on="1"/>
      </contour>
    </TTGlyph>
    <TTGlyph name="J.sc" xMin="-1" yMin="-173" xMax="255" yMax="577">
      <contour>
        <pt x="-1" y="-122" on="1"/>
        <pt x="18" y="-83" on="0"/>
        <pt x="44" y="-16" on="0"/>
        <pt x="59" y="49" on="0"/>
        <pt x="66" y="117" on="0"/>
        <pt x="66" y="158" on="1"/>
        <pt x="66" y="577" on="1"/>
        <pt x="255" y="577" on="1"/>
        <pt x="255" y="144" on="1"/>
        <pt x="255" y="102" on="0"/>
        <pt x="241" y="27" on="0"/>
        <pt x="209" y="-48" on="0"/>
        <pt x="157" y="-127" on="0"/>
        <pt x="119" y="-173" on="1"/>
      </contour>
    </TTGlyph>
    <TTGlyph name="Jcircumflex" xMin="-38" yMin="-213" xMax="379" yMax="1004">
      <contour>
        <pt x="-7" y="-158" on="1"/>
        <pt x="15" y="-108" on="0"/>
        <pt x="44" y="-23" on="0"/>
        <pt x="61" y="60" on="0"/>
        <pt x="68" y="146" on="0"/>
        <pt x="68" y="198" on="1"/>
        <pt x="68" y="740" on="1"/>
        <pt x="268" y="740" on="1"/>
        <pt x="268" y="183" on="1"/>
        <pt x="268" y="130" on="0"/>
        <pt x="253" y="37" on="0"/>
        <pt x="218" y="-56" on="0"/>
        <pt x="161" y="-155" on="0"/>
        <pt x="120" y="-213" on="1"/>
      </contour>
      <contour>
        <pt x="-38" y="926" on="1"/>
        <pt x="169" y="1004" on="1"/>
        <pt x="379" y="926" on="1"/>
        <pt x="379" y="798" on="1"/>
        <pt x="170" y="875" on="1"/>
        <pt x="-38" y="798" on="1"/>
      </contour>
    </TTGlyph>
    <TTGlyph name="Jcircumflex.sc" xMin="-31" yMin="-173" xMax="356" yMax="800">
      <contour>
        <pt x="-2" y="-122" on="1"/>
        <pt x="17" y="-83" on="0"/>
        <pt x="44" y="-16" on="0"/>
        <pt x="59" y="49" on="0"/>
        <pt x="66" y="117" on="0"/>
        <pt x="66" y="158" on="1"/>
        <pt x="66" y="577" on="1"/>
        <pt x="255" y="577" on="1"/>
        <pt x="255" y="144" on="1"/>
        <pt x="255" y="102" on="0"/>
        <pt x="241" y="27" on="0"/>
        <pt x="209" y="-48" on="0"/>
        <pt x="156" y="-127" on="0"/>
        <pt x="118" y="-173" on="1"/>
      </contour>
      <contour>
        <pt x="-31" y="737" on="1"/>
        <pt x="161" y="800" on="1"/>
        <pt x="356" y="737" on="1"/>
        <pt x="356" y="618" on="1"/>
        <pt x="162" y="681" on="1"/>
        <pt x="-31" y="618" on="1"/>
      </contour>
    </TTGlyph>
    <TTGlyph name="K" xMin="66" yMin="0" xMax="758" yMax="740">
      <contour>
        <pt x="66" y="740" on="1"/>
        <pt x="266" y="740" on="1"/>
        <pt x="266" y="450" on="1"/>
        <pt x="359" y="450" on="1"/>
        <pt x="519" y="740" on="1"/>
        <pt x="740" y="740" on="1"/>
        <pt x="546" y="416" on="1"/>
        <pt x="493" y="390" on="1"/>
        <pt x="493" y="381" on="1"/>
        <pt x="548" y="354" on="1"/>
        <pt x="758" y="0" on="1"/>
        <pt x="536" y="0" on="1"/>
        <pt x="372" y="296" on="1"/>
        <pt x="266" y="296" on="1"/>
        <pt x="266" y="0" on="1"/>
        <pt x="66" y="0" on="1"/>
      </contour>
    </TTGlyph>
    <TTGlyph name="K.sc" xMin="64" yMin="0" xMax="700" yMax="577">
      <contour>
        <pt x="64" y="577" on="1"/>
        <pt x="253" y="577" on="1"/>
        <pt x="253" y="361" on="1"/>
        <pt x="334" y="361" on="1"/>
        <pt x="474" y="577" on="1"/>
        <pt x="684" y="577" on="1"/>
        <pt x="510" y="327" on="1"/>
        <pt x="458" y="306" on="1"/>
        <pt x="458" y="299" on="1"/>
        <pt x="513" y="277" on="1"/>
        <pt x="700" y="0" on="1"/>
        <pt x="490" y="0" on="1"/>
        <pt x="347" y="218" on="1"/>
        <pt x="253" y="218" on="1"/>
        <pt x="253" y="0" on="1"/>
        <pt x="64" y="0" on="1"/>
      </contour>
    </TTGlyph>
    <TTGlyph name="Kcommaaccent" xMin="66" yMin="-220" xMax="758" yMax="740">
      <contour>
        <pt x="258" y="-70" on="1"/>
        <pt x="458" y="-70" on="1"/>
        <pt x="363" y="-220" on="1"/>
        <pt x="216" y="-220" on="1"/>
      </contour>
      <contour>
        <pt x="66" y="740" on="1"/>
        <pt x="266" y="740" on="1"/>
        <pt x="266" y="450" on="1"/>
        <pt x="359" y="450" on="1"/>
        <pt x="519" y="740" on="1"/>
        <pt x="740" y="740" on="1"/>
        <pt x="546" y="416" on="1"/>
        <pt x="493" y="390" on="1"/>
        <pt x="493" y="381" on="1"/>
        <pt x="548" y="354" on="1"/>
        <pt x="758" y="0" on="1"/>
        <pt x="536" y="0" on="1"/>
        <pt x="372" y="296" on="1"/>
        <pt x="266" y="296" on="1"/>
        <pt x="266" y="0" on="1"/>
        <pt x="66" y="0" on="1"/>
      </contour>
    </TTGlyph>
    <TTGlyph name="Kcommaaccent.sc" xMin="64" yMin="-172" xMax="700" yMax="577">
      <contour>
        <pt x="64" y="577" on="1"/>
        <pt x="253" y="577" on="1"/>
        <pt x="253" y="361" on="1"/>
        <pt x="334" y="361" on="1"/>
        <pt x="474" y="577" on="1"/>
        <pt x="684" y="577" on="1"/>
        <pt x="510" y="327" on="1"/>
        <pt x="458" y="306" on="1"/>
        <pt x="458" y="299" on="1"/>
        <pt x="513" y="277" on="1"/>
        <pt x="700" y="0" on="1"/>
        <pt x="490" y="0" on="1"/>
        <pt x="347" y="218" on="1"/>
        <pt x="253" y="218" on="1"/>
        <pt x="253" y="0" on="1"/>
        <pt x="64" y="0" on="1"/>
      </contour>
      <contour>
        <pt x="265" y="-55" on="1"/>
        <pt x="455" y="-55" on="1"/>
        <pt x="368" y="-172" on="1"/>
        <pt x="230" y="-172" on="1"/>
      </contour>
    </TTGlyph>
    <TTGlyph name="L" xMin="66" yMin="0" xMax="576" yMax="740">
      <contour>
        <pt x="66" y="740" on="1"/>
        <pt x="266" y="740" on="1"/>
        <pt x="266" y="153" on="1"/>
        <pt x="576" y="153" on="1"/>
        <pt x="576" y="0" on="1"/>
        <pt x="66" y="0" on="1"/>
      </contour>
    </TTGlyph>
    <TTGlyph name="L.sc" xMin="64" yMin="0" xMax="534" yMax="577">
      <contour>
        <pt x="64" y="577" on="1"/>
        <pt x="253" y="577" on="1"/>
        <pt x="253" y="143" on="1"/>
        <pt x="534" y="143" on="1"/>
        <pt x="534" y="0" on="1"/>
        <pt x="64" y="0" on="1"/>
      </contour>
    </TTGlyph>
    <TTGlyph name="Lacute" xMin="66" yMin="0" xMax="576" yMax="992">
      <contour>
        <pt x="98" y="812" on="1"/>
        <pt x="163" y="992" on="1"/>
        <pt x="363" y="992" on="1"/>
        <pt x="239" y="802" on="1"/>
      </contour>
      <contour>
        <pt x="66" y="740" on="1"/>
        <pt x="266" y="740" on="1"/>
        <pt x="266" y="153" on="1"/>
        <pt x="576" y="153" on="1"/>
        <pt x="576" y="0" on="1"/>
        <pt x="66" y="0" on="1"/>
      </contour>
    </TTGlyph>
    <TTGlyph name="Lacute.sc" xMin="64" yMin="0" xMax="534" yMax="788">
      <contour>
        <pt x="64" y="577" on="1"/>
        <pt x="253" y="577" on="1"/>
        <pt x="253" y="143" on="1"/>
        <pt x="534" y="143" on="1"/>
        <pt x="534" y="0" on="1"/>
        <pt x="64" y="0" on="1"/>
      </contour>
      <contour>
        <pt x="94" y="636" on="1"/>
        <pt x="151" y="788" on="1"/>
        <pt x="340" y="788" on="1"/>
        <pt x="227" y="627" on="1"/>
      </contour>
    </TTGlyph>
    <TTGlyph name="Lcaron" xMin="66" yMin="0" xMax="576" yMax="799">
      <contour>
        <pt x="414" y="799" on="1"/>
        <pt x="566" y="799" on="1"/>
        <pt x="519" y="571" on="1"/>
        <pt x="414" y="571" on="1"/>
      </contour>
      <contour>
        <pt x="66" y="740" on="1"/>
        <pt x="266" y="740" on="1"/>
        <pt x="266" y="153" on="1"/>
        <pt x="576" y="153" on="1"/>
        <pt x="576" y="0" on="1"/>
        <pt x="66" y="0" on="1"/>
      </contour>
    </TTGlyph>
    <TTGlyph name="Lcaron.sc" xMin="64" yMin="0" xMax="534" yMax="634">
      <contour>
        <pt x="64" y="577" on="1"/>
        <pt x="253" y="577" on="1"/>
        <pt x="253" y="143" on="1"/>
        <pt x="534" y="143" on="1"/>
        <pt x="534" y="0" on="1"/>
        <pt x="64" y="0" on="1"/>
      </contour>
      <contour>
        <pt x="379" y="634" on="1"/>
        <pt x="524" y="634" on="1"/>
        <pt x="479" y="457" on="1"/>
        <pt x="379" y="457" on="1"/>
      </contour>
    </TTGlyph>
    <TTGlyph name="Lcommaaccent" xMin="66" yMin="-220" xMax="576" yMax="740">
      <contour>
        <pt x="203" y="-70" on="1"/>
        <pt x="403" y="-70" on="1"/>
        <pt x="308" y="-220" on="1"/>
        <pt x="161" y="-220" on="1"/>
      </contour>
      <contour>
        <pt x="66" y="740" on="1"/>
        <pt x="266" y="740" on="1"/>
        <pt x="266" y="153" on="1"/>
        <pt x="576" y="153" on="1"/>
        <pt x="576" y="0" on="1"/>
        <pt x="66" y="0" on="1"/>
      </contour>
    </TTGlyph>
    <TTGlyph name="Lcommaaccent.sc" xMin="64" yMin="-172" xMax="534" yMax="577">
      <contour>
        <pt x="64" y="577" on="1"/>
        <pt x="253" y="577" on="1"/>
        <pt x="253" y="143" on="1"/>
        <pt x="534" y="143" on="1"/>
        <pt x="534" y="0" on="1"/>
        <pt x="64" y="0" on="1"/>
      </contour>
      <contour>
        <pt x="183" y="-55" on="1"/>
        <pt x="373" y="-55" on="1"/>
        <pt x="286" y="-172" on="1"/>
        <pt x="147" y="-172" on="1"/>
      </contour>
    </TTGlyph>
    <TTGlyph name="Ldot" xMin="66" yMin="0" xMax="592" yMax="740">
      <contour>
        <pt x="66" y="740" on="1"/>
        <pt x="266" y="740" on="1"/>
        <pt x="266" y="153" on="1"/>
        <pt x="576" y="153" on="1"/>
        <pt x="576" y="0" on="1"/>
        <pt x="66" y="0" on="1"/>
      </contour>
      <contour>
        <pt x="487" y="290" on="1"/>
        <pt x="430" y="290" on="0"/>
        <pt x="381" y="338" on="0"/>
        <pt x="381" y="392" on="1"/>
        <pt x="381" y="446" on="0"/>
        <pt x="430" y="495" on="0"/>
        <pt x="487" y="495" on="1"/>
        <pt x="544" y="495" on="0"/>
        <pt x="592" y="445" on="0"/>
        <pt x="592" y="392" on="1"/>
        <pt x="592" y="339" on="0"/>
        <pt x="544" y="290" on="0"/>
      </contour>
    </TTGlyph>
    <TTGlyph name="Ldot.sc" xMin="64" yMin="0" xMax="551" yMax="577">
      <contour>
        <pt x="64" y="577" on="1"/>
        <pt x="253" y="577" on="1"/>
        <pt x="253" y="143" on="1"/>
        <pt x="534" y="143" on="1"/>
        <pt x="534" y="0" on="1"/>
        <pt x="64" y="0" on="1"/>
      </contour>
      <contour>
        <pt x="452" y="218" on="1"/>
        <pt x="398" y="218" on="0"/>
        <pt x="353" y="262" on="0"/>
        <pt x="353" y="312" on="1"/>
        <pt x="353" y="362" on="0"/>
        <pt x="398" y="406" on="0"/>
        <pt x="452" y="406" on="1"/>
        <pt x="506" y="406" on="0"/>
        <pt x="551" y="360" on="0"/>
        <pt x="551" y="312" on="1"/>
        <pt x="551" y="264" on="0"/>
        <pt x="506" y="218" on="0"/>
      </contour>
    </TTGlyph>
    <TTGlyph name="Lslash" xMin="11" yMin="0" xMax="594" yMax="740">
      <contour>
        <pt x="11" y="367" on="1"/>
        <pt x="84" y="402" on="1"/>
        <pt x="84" y="740" on="1"/>
        <pt x="284" y="740" on="1"/>
        <pt x="284" y="498" on="1"/>
        <pt x="414" y="560" on="1"/>
        <pt x="414" y="418" on="1"/>
        <pt x="284" y="356" on="1"/>
        <pt x="284" y="153" on="1"/>
        <pt x="594" y="153" on="1"/>
        <pt x="594" y="0" on="1"/>
        <pt x="84" y="0" on="1"/>
        <pt x="84" y="261" on="1"/>
        <pt x="11" y="226" on="1"/>
      </contour>
    </TTGlyph>
    <TTGlyph name="Lslash.sc" xMin="14" yMin="0" xMax="550" yMax="577">
      <contour>
        <pt x="14" y="307" on="1"/>
        <pt x="79" y="334" on="1"/>
        <pt x="79" y="577" on="1"/>
        <pt x="268" y="577" on="1"/>
        <pt x="268" y="404" on="1"/>
        <pt x="384" y="451" on="1"/>
        <pt x="384" y="320" on="1"/>
        <pt x="268" y="273" on="1"/>
        <pt x="268" y="143" on="1"/>
        <pt x="550" y="143" on="1"/>
        <pt x="550" y="0" on="1"/>
        <pt x="79" y="0" on="1"/>
        <pt x="79" y="203" on="1"/>
        <pt x="14" y="176" on="1"/>
      </contour>
    </TTGlyph>
    <TTGlyph name="M" xMin="66" yMin="0" xMax="951" yMax="740">
      <contour>
        <pt x="66" y="740" on="1"/>
        <pt x="338" y="740" on="1"/>
        <pt x="463" y="410" on="1"/>
        <pt x="505" y="259" on="1"/>
        <pt x="512" y="259" on="1"/>
        <pt x="555" y="410" on="1"/>
        <pt x="680" y="740" on="1"/>
        <pt x="951" y="740" on="1"/>
        <pt x="951" y="0" on="1"/>
        <pt x="775" y="0" on="1"/>
        <pt x="775" y="521" on="1"/>
        <pt x="766" y="521" on="1"/>
        <pt x="702" y="320" on="1"/>
        <pt x="588" y="30" on="1"/>
        <pt x="429" y="30" on="1"/>
        <pt x="316" y="320" on="1"/>
        <pt x="250" y="521" on="1"/>
        <pt x="242" y="521" on="1"/>
        <pt x="242" y="0" on="1"/>
        <pt x="66" y="0" on="1"/>
      </contour>
    </TTGlyph>
    <TTGlyph name="M.sc" xMin="64" yMin="0" xMax="874" yMax="577">
      <contour>
        <pt x="64" y="577" on="1"/>
        <pt x="311" y="577" on="1"/>
        <pt x="421" y="348" on="1"/>
        <pt x="464" y="238" on="1"/>
        <pt x="473" y="238" on="1"/>
        <pt x="516" y="348" on="1"/>
        <pt x="626" y="577" on="1"/>
        <pt x="874" y="577" on="1"/>
        <pt x="874" y="0" on="1"/>
        <pt x="706" y="0" on="1"/>
        <pt x="706" y="380" on="1"/>
        <pt x="697" y="380" on="1"/>
        <pt x="630" y="215" on="1"/>
        <pt x="542" y="23" on="1"/>
        <pt x="396" y="23" on="1"/>
        <pt x="308" y="215" on="1"/>
        <pt x="240" y="380" on="1"/>
        <pt x="232" y="380" on="1"/>
        <pt x="232" y="0" on="1"/>
        <pt x="64" y="0" on="1"/>
      </contour>
    </TTGlyph>
    <TTGlyph name="N" xMin="66" yMin="0" xMax="757" yMax="740">
      <contour>
        <pt x="66" y="740" on="1"/>
        <pt x="224" y="740" on="1"/>
        <pt x="515" y="378" on="1"/>
        <pt x="574" y="294" on="1"/>
        <pt x="583" y="294" on="1"/>
        <pt x="583" y="740" on="1"/>
        <pt x="757" y="740" on="1"/>
        <pt x="757" y="0" on="1"/>
        <pt x="600" y="0" on="1"/>
        <pt x="317" y="354" on="1"/>
        <pt x="250" y="446" on="1"/>
        <pt x="240" y="446" on="1"/>
        <pt x="240" y="0" on="1"/>
        <pt x="66" y="0" on="1"/>
      </contour>
    </TTGlyph>
    <TTGlyph name="N.sc" xMin="64" yMin="0" xMax="678" yMax="577">
      <contour>
        <pt x="64" y="577" on="1"/>
        <pt x="209" y="577" on="1"/>
        <pt x="445" y="327" on="1"/>
        <pt x="502" y="262" on="1"/>
        <pt x="511" y="262" on="1"/>
        <pt x="511" y="577" on="1"/>
        <pt x="678" y="577" on="1"/>
        <pt x="678" y="0" on="1"/>
        <pt x="533" y="0" on="1"/>
        <pt x="305" y="240" on="1"/>
        <pt x="239" y="315" on="1"/>
        <pt x="231" y="315" on="1"/>
        <pt x="231" y="0" on="1"/>
        <pt x="64" y="0" on="1"/>
      </contour>
    </TTGlyph>
    <TTGlyph name="Nacute" xMin="66" yMin="0" xMax="757" yMax="992">
      <contour>
        <pt x="313" y="812" on="1"/>
        <pt x="378" y="992" on="1"/>
        <pt x="578" y="992" on="1"/>
        <pt x="454" y="802" on="1"/>
      </contour>
      <contour>
        <pt x="66" y="740" on="1"/>
        <pt x="224" y="740" on="1"/>
        <pt x="515" y="378" on="1"/>
        <pt x="574" y="294" on="1"/>
        <pt x="583" y="294" on="1"/>
        <pt x="583" y="740" on="1"/>
        <pt x="757" y="740" on="1"/>
        <pt x="757" y="0" on="1"/>
        <pt x="600" y="0" on="1"/>
        <pt x="317" y="354" on="1"/>
        <pt x="250" y="446" on="1"/>
        <pt x="240" y="446" on="1"/>
        <pt x="240" y="0" on="1"/>
        <pt x="66" y="0" on="1"/>
      </contour>
    </TTGlyph>
    <TTGlyph name="Nacute.sc" xMin="64" yMin="0" xMax="678" yMax="788">
      <contour>
        <pt x="64" y="577" on="1"/>
        <pt x="209" y="577" on="1"/>
        <pt x="445" y="327" on="1"/>
        <pt x="502" y="262" on="1"/>
        <pt x="511" y="262" on="1"/>
        <pt x="511" y="577" on="1"/>
        <pt x="678" y="577" on="1"/>
        <pt x="678" y="0" on="1"/>
        <pt x="533" y="0" on="1"/>
        <pt x="305" y="240" on="1"/>
        <pt x="239" y="315" on="1"/>
        <pt x="231" y="315" on="1"/>
        <pt x="231" y="0" on="1"/>
        <pt x="64" y="0" on="1"/>
      </contour>
      <contour>
        <pt x="279" y="636" on="1"/>
        <pt x="336" y="788" on="1"/>
        <pt x="525" y="788" on="1"/>
        <pt x="412" y="627" on="1"/>
      </contour>
    </TTGlyph>
    <TTGlyph name="Ncaron" xMin="66" yMin="0" xMax="757" yMax="1004">
      <contour>
        <pt x="204" y="1004" on="1"/>
        <pt x="413" y="925" on="1"/>
        <pt x="622" y="1004" on="1"/>
        <pt x="622" y="875" on="1"/>
        <pt x="411" y="797" on="1"/>
        <pt x="204" y="875" on="1"/>
      </contour>
      <contour>
        <pt x="66" y="740" on="1"/>
        <pt x="224" y="740" on="1"/>
        <pt x="515" y="378" on="1"/>
        <pt x="574" y="294" on="1"/>
        <pt x="583" y="294" on="1"/>
        <pt x="583" y="740" on="1"/>
        <pt x="757" y="740" on="1"/>
        <pt x="757" y="0" on="1"/>
        <pt x="600" y="0" on="1"/>
        <pt x="317" y="354" on="1"/>
        <pt x="250" y="446" on="1"/>
        <pt x="240" y="446" on="1"/>
        <pt x="240" y="0" on="1"/>
        <pt x="66" y="0" on="1"/>
      </contour>
    </TTGlyph>
    <TTGlyph name="Ncaron.sc" xMin="64" yMin="0" xMax="678" yMax="800">
      <contour>
        <pt x="64" y="577" on="1"/>
        <pt x="209" y="577" on="1"/>
        <pt x="445" y="327" on="1"/>
        <pt x="502" y="262" on="1"/>
        <pt x="511" y="262" on="1"/>
        <pt x="511" y="577" on="1"/>
        <pt x="678" y="577" on="1"/>
        <pt x="678" y="0" on="1"/>
        <pt x="533" y="0" on="1"/>
        <pt x="305" y="240" on="1"/>
        <pt x="239" y="315" on="1"/>
        <pt x="231" y="315" on="1"/>
        <pt x="231" y="0" on="1"/>
        <pt x="64" y="0" on="1"/>
      </contour>
      <contour>
        <pt x="179" y="681" on="1"/>
        <pt x="179" y="800" on="1"/>
        <pt x="372" y="737" on="1"/>
        <pt x="567" y="800" on="1"/>
        <pt x="567" y="681" on="1"/>
        <pt x="371" y="619" on="1"/>
      </contour>
    </TTGlyph>
    <TTGlyph name="Ncommaaccent" xMin="66" yMin="-220" xMax="757" yMax="740">
      <contour>
        <pt x="321" y="-70" on="1"/>
        <pt x="521" y="-70" on="1"/>
        <pt x="426" y="-220" on="1"/>
        <pt x="279" y="-220" on="1"/>
      </contour>
      <contour>
        <pt x="66" y="740" on="1"/>
        <pt x="224" y="740" on="1"/>
        <pt x="515" y="378" on="1"/>
        <pt x="574" y="294" on="1"/>
        <pt x="583" y="294" on="1"/>
        <pt x="583" y="740" on="1"/>
        <pt x="757" y="740" on="1"/>
        <pt x="757" y="0" on="1"/>
        <pt x="600" y="0" on="1"/>
        <pt x="317" y="354" on="1"/>
        <pt x="250" y="446" on="1"/>
        <pt x="240" y="446" on="1"/>
        <pt x="240" y="0" on="1"/>
        <pt x="66" y="0" on="1"/>
      </contour>
    </TTGlyph>
    <TTGlyph name="Ncommaaccent.sc" xMin="64" yMin="-172" xMax="678" yMax="577">
      <contour>
        <pt x="64" y="577" on="1"/>
        <pt x="209" y="577" on="1"/>
        <pt x="445" y="327" on="1"/>
        <pt x="502" y="262" on="1"/>
        <pt x="511" y="262" on="1"/>
        <pt x="511" y="577" on="1"/>
        <pt x="678" y="577" on="1"/>
        <pt x="678" y="0" on="1"/>
        <pt x="533" y="0" on="1"/>
        <pt x="305" y="240" on="1"/>
        <pt x="239" y="315" on="1"/>
        <pt x="231" y="315" on="1"/>
        <pt x="231" y="0" on="1"/>
        <pt x="64" y="0" on="1"/>
      </contour>
      <contour>
        <pt x="283" y="-55" on="1"/>
        <pt x="472" y="-55" on="1"/>
        <pt x="385" y="-172" on="1"/>
        <pt x="246" y="-172" on="1"/>
      </contour>
    </TTGlyph>
</ttFont>
